<?xml version="1.0" standalone="no"?>
<!DOCTYPE svg PUBLIC "-//W3C//DTD SVG 1.1//EN"
  "http://www.w3.org/Graphics/SVG/1.1/DTD/svg11.dtd">
<svg width="102mm" height="136mm" viewBox="26 43 102 136" xmlns="http://www.w3.org/2000/svg" version="1.1">
	<title>svgOutput</title>
	<desc>made with tinkercad</desc>
<path d="M 127 178 L 122.00199890136719 178 L 122.00199890136719 172.9980010986328 L 117.00199890136719 172.9980010986328 L 117.00199890136719 178 L 112.00199890136719 178 L 112.00199890136719 172.9980010986328 L 107.00199890136719 172.9980010986328 L 107.00199890136719 178 L 102.00199890136719 178 L 102.00199890136719 172.9980010986328 L 97.00199890136719 172.9980010986328 L 97.00199890136719 178 L 92.00199890136719 178 L 92.00199890136719 172.9980010986328 L 87.00199890136719 172.9980010986328 L 87.00199890136719 178 L 82.0009994506836 178 L 82.0009994506836 172.9980010986328 L 77.0009994506836 172.9980010986328 L 77.0009994506836 178 L 72.0009994506836 178 L 72.0009994506836 172.9980010986328 L 67.0009994506836 172.9980010986328 L 67.0009994506836 178 L 62.000999450683594 178 L 62.000999450683594 172.9980010986328 L 57.000999450683594 172.9980010986328 L 57.000999450683594 178 L 52.000999450683594 178 L 52.000999450683594 172.9980010986328 L 47.000999450683594 172.9980010986328 L 47.000999450683594 178 L 42 178 L 42 172.9980010986328 L 37 172.9980010986328 L 37 178 L 32 178 L 32 172.9980010986328 L 27 172.9980010986328 L 27 49.00299835205078 L 32 49.00299835205078 L 32 44 L 37 44 L 37 49.00299835205078 L 42 49.00299835205078 L 42 44 L 47.000999450683594 44 L 47.000999450683594 49.00299835205078 L 52.000999450683594 49.00299835205078 L 52.000999450683594 44 L 57.000999450683594 44 L 57.000999450683594 49.00299835205078 L 62.000999450683594 49.00299835205078 L 62.000999450683594 44 L 67.0009994506836 44 L 67.0009994506836 49.00299835205078 L 72.0009994506836 49.00299835205078 L 72.0009994506836 44 L 77.0009994506836 44 L 77.0009994506836 49.00299835205078 L 82.0009994506836 49.00299835205078 L 82.0009994506836 44 L 87.00199890136719 44 L 87.00199890136719 49.00299835205078 L 92.00199890136719 49.00299835205078 L 92.00199890136719 44 L 97.00199890136719 44 L 97.00199890136719 49.00299835205078 L 102.00199890136719 49.00299835205078 L 102.00199890136719 44 L 107.00199890136719 44 L 107.00199890136719 49.00299835205078 L 112.00199890136719 49.00299835205078 L 112.00199890136719 44 L 117.00199890136719 44 L 117.00199890136719 49.00299835205078 L 122.00199890136719 49.00299835205078 L 122.00199890136719 44 L 127 44 L 127 178 z" fill="none" stroke="rgb(255,0,0)" stroke-width="0.001mm" />
</svg>