<?xml version="1.0" standalone="no"?>
<!DOCTYPE svg PUBLIC "-//W3C//DTD SVG 1.1//EN"
  "http://www.w3.org/Graphics/SVG/1.1/DTD/svg11.dtd">
<svg width="102mm" height="136mm" viewBox="-81 44.5 102 136" xmlns="http://www.w3.org/2000/svg" version="1.1">
	<title>svgOutput</title>
	<desc>made with tinkercad</desc>
<path d="M -55.00199890136719 179.5 L -55.00199890136719 174.4980010986328 L -60.00199890136719 174.4980010986328 L -60.00199890136719 179.5 L -65.00199890136719 179.5 L -65.00199890136719 174.4980010986328 L -69.99800109863281 174.4980010986328 L -70.00199890136719 174.4980010986328 L -70.00199890136719 179.5 L -75.00199890136719 179.5 L -75.00199890136719 174.4980010986328 L -80 174.4980010986328 L -80 172.5030059814453 L -75.00199890136719 172.5030059814453 L -70.00199890136719 172.5030059814453 L -69.99800109863281 172.5030059814453 L -69.99800109863281 52.49700164794922 L -70.00199890136719 52.49700164794922 L -75.00199890136719 52.49700164794922 L -80 52.49700164794922 L -80 50.50299835205078 L -75.00199890136719 50.50299835205078 L -75.00199890136719 45.5 L -70.00199890136719 45.5 L -70.00199890136719 50.50299835205078 L -69.99800109863281 50.50299835205078 L -65.00199890136719 50.50299835205078 L -65.00199890136719 45.5 L -60.00199890136719 45.5 L -60.00199890136719 50.50299835205078 L -55.00199890136719 50.50299835205078 L -55.00199890136719 45.5 L -50.00199890136719 45.5 L -50.00199890136719 50.50299835205078 L -45.00199890136719 50.50299835205078 L -45.00199890136719 45.5 L -40.000999450683594 45.5 L -40.000999450683594 50.50299835205078 L -35.000999450683594 50.50299835205078 L -35.000999450683594 45.5 L -30.000999450683594 45.5 L -30.000999450683594 50.50299835205078 L -25.000999450683594 50.50299835205078 L -25.000999450683594 45.5 L -20.000999450683594 45.5 L -20.000999450683594 50.50299835205078 L -15.00100040435791 50.50299835205078 L -15.00100040435791 45.5 L -10.00100040435791 45.5 L -10.00100040435791 50.50299835205078 L -5.000999927520752 50.50299835205078 L -5.000999927520752 45.5 L 0 45.5 L 0 50.50299835205078 L 5 50.50299835205078 L 5 45.5 L 10 45.5 L 10 50.50299835205078 L 15 50.50299835205078 L 15 45.5 L 20 45.5 L 20 179.5 L 15 179.5 L 15 174.4980010986328 L 10 174.4980010986328 L 10 179.5 L 5 179.5 L 5 174.4980010986328 L 0 174.4980010986328 L 0 179.5 L -5.000999927520752 179.5 L -5.000999927520752 174.4980010986328 L -10.00100040435791 174.4980010986328 L -10.00100040435791 179.5 L -15.00100040435791 179.5 L -15.00100040435791 174.4980010986328 L -20.000999450683594 174.4980010986328 L -20.000999450683594 179.5 L -25.000999450683594 179.5 L -25.000999450683594 174.4980010986328 L -30.000999450683594 174.4980010986328 L -30.000999450683594 179.5 L -35.000999450683594 179.5 L -35.000999450683594 174.4980010986328 L -40.000999450683594 174.4980010986328 L -40.000999450683594 179.5 L -45.00199890136719 179.5 L -45.00199890136719 174.4980010986328 L -50.00199890136719 174.4980010986328 L -50.00199890136719 179.5 L -55.00199890136719 179.5 z" fill="none" stroke="rgb(255,0,0)" stroke-width="0.001mm" />
</svg>