<?xml version="1.0" standalone="no"?>
<!DOCTYPE svg PUBLIC "-//W3C//DTD SVG 1.1//EN"
  "http://www.w3.org/Graphics/SVG/1.1/DTD/svg11.dtd">
<svg width="425.0798034667969mm" height="109.18826293945312mm" viewBox="-247 216 425.0798034667969 109.18826293945312" xmlns="http://www.w3.org/2000/svg" version="1.1">
	<title>svgOutput</title>
	<desc>made with tinkercad</desc>
<path d="M 177.07980346679688 217 L 163.22311401367188 241.9980010986328 L 148.50186157226562 268.55572509765625 L 138.6316375732422 286.3619689941406 L 129.60662841796875 302.6434631347656 L 123.42743682861328 313.79095458984375 L 119.57341766357422 320.7437438964844 L 117.71822357177734 324.0906066894531 L 117.66407775878906 324.1882629394531 L 89.78399658203125 303.5119934082031 L 59.06100082397461 285.09698486328125 L 26.68000030517578 269.7820129394531 L 1.5806320553639341e-13 260.2357482910156 L -7.045000076293945 257.7149963378906 L -41.79199981689453 249.01100158691406 L -45.99800109863281 248.3870849609375 L -50.99800109863281 247.64537048339844 L -55.99800109863281 246.90367126464844 L -60.99800109863281 246.16197204589844 L -65.99800109863281 245.42027282714844 L -70.99800109863281 244.67857360839844 L -75.99800109863281 243.93685913085938 L -77.2239990234375 243.7550048828125 L -80.99800109863281 243.5696563720703 L -85.9990005493164 243.3240509033203 L -90.9990005493164 243.0784912109375 L -95.9990005493164 242.8329315185547 L -100.9990005493164 242.58738708496094 L -105.9990005493164 242.34182739257812 L -110.9990005493164 242.0962677001953 L -113 241.9980010986328 L -115.9990005493164 241.9980010986328 L -115.9990005493164 236.9980010986328 L -120.9990005493164 236.9980010986328 L -120.9990005493164 241.9980010986328 L -126 241.9980010986328 L -126 236.9980010986328 L -131 236.9980010986328 L -131 241.9980010986328 L -136 241.9980010986328 L -136 236.9980010986328 L -141 236.9980010986328 L -141 241.9980010986328 L -146 241.9980010986328 L -146 236.9980010986328 L -151 236.9980010986328 L -151 241.9980010986328 L -156 241.9980010986328 L -156 236.9980010986328 L -161 236.9980010986328 L -161 241.9980010986328 L -166.00100708007812 241.9980010986328 L -166.00100708007812 236.9980010986328 L -171.00100708007812 236.9980010986328 L -171.00100708007812 241.9980010986328 L -176.00100708007812 241.9980010986328 L -176.00100708007812 236.9980010986328 L -181.00100708007812 236.9980010986328 L -181.00100708007812 241.9980010986328 L -186.00100708007812 241.9980010986328 L -186.00100708007812 236.9980010986328 L -191.00100708007812 236.9980010986328 L -191.00100708007812 241.9980010986328 L -196.00100708007812 241.9980010986328 L -196.00100708007812 236.9980010986328 L -201.00100708007812 236.9980010986328 L -201.00100708007812 241.9980010986328 L -206.0019989013672 241.9980010986328 L -206.0019989013672 236.9980010986328 L -211.0019989013672 236.9980010986328 L -211.0019989013672 241.9980010986328 L -216.0019989013672 241.9980010986328 L -216.0019989013672 236.9980010986328 L -221.0019989013672 236.9980010986328 L -221.0019989013672 241.9980010986328 L -226.0019989013672 241.9980010986328 L -226.0019989013672 236.9980010986328 L -231.0019989013672 236.9980010986328 L -231.0019989013672 241.9980010986328 L -236.0019989013672 241.9980010986328 L -236.0019989013672 236.9980010986328 L -241.0030059814453 236.9980010986328 L -241.0030059814453 241.9980010986328 L -246 241.9980010986328 L -246 217 L -241.0030059814453 217 L -236.0019989013672 217 L -231.0019989013672 217 L -226.0019989013672 217 L -221.0019989013672 217 L -216.0019989013672 217 L -211.0019989013672 217 L -206.0019989013672 217 L -201.00100708007812 217 L -196.00100708007812 217 L -191.00100708007812 217 L -186.00100708007812 217 L -181.00100708007812 217 L -176.00100708007812 217 L -171.00100708007812 217 L -166.00100708007812 217 L -161 217 L -156 217 L -151 217 L -146 217 L -141 217 L -136 217 L -131 217 L -126 217 L -120.9990005493164 217 L -115.9990005493164 217 L -110.9990005493164 217 L -105.9990005493164 217 L -100.9990005493164 217 L -95.9990005493164 217 L -90.9990005493164 217 L -85.9990005493164 217 L -80.99800109863281 217 L -75.99800109863281 217 L -70.99800109863281 217 L -65.99800109863281 217 L -60.99800109863281 217 L -55.99800109863281 217 L -50.99800109863281 217 L -45.99800109863281 217 L 177.07980346679688 217 M -85.9990005493164 242.0030059814453 L -85.9990005493164 241.9980010986328 L -85.9990005493164 236.9980010986328 L -90.9990005493164 236.9980010986328 L -90.9990005493164 241.9980010986328 L -90.9990005493164 242.0030059814453 L -89.03466796875 242.0030059814453 L -85.9990005493164 242.0030059814453 M -65.99800109863281 242.0030059814453 L -65.99800109863281 241.9980010986328 L -65.99800109863281 236.9980010986328 L -70.99800109863281 236.9980010986328 L -70.99800109863281 241.9980010986328 L -70.99800109863281 242.0030059814453 L -69.76844787597656 242.0030059814453 L -65.99800109863281 242.0030059814453 M -45.99800109863281 242.0030059814453 L -45.99800109863281 241.9980010986328 L -45.99800109863281 236.9980010986328 L -50.99800109863281 236.9980010986328 L -50.99800109863281 241.9980010986328 L -50.99800109863281 242.0030059814453 L -50.95709228515625 242.0030059814453 L -45.99800109863281 242.0030059814453 M -55.99800109863281 242.0030059814453 L -55.99800109863281 241.9980010986328 L -55.99800109863281 236.9980010986328 L -60.99800109863281 236.9980010986328 L -60.99800109863281 241.9980010986328 L -60.99800109863281 242.0030059814453 L -55.99800109863281 242.0030059814453 M -80.99800109863281 242.0030059814453 L -75.99800109863281 242.0030059814453 L -75.99800109863281 241.9980010986328 L -75.99800109863281 236.9980010986328 L -80.99800109863281 236.9980010986328 L -80.99800109863281 241.9980010986328 L -80.99800109863281 242.0030059814453 M -100.9990005493164 241.9980010986328 L -100.9990005493164 242.0030059814453 L -95.9990005493164 242.0030059814453 L -95.9990005493164 241.9980010986328 L -95.9990005493164 236.9980010986328 L -100.9990005493164 236.9980010986328 L -100.9990005493164 241.9980010986328 M -105.9990005493164 242.0030059814453 L -105.9990005493164 241.9980010986328 L -105.9990005493164 236.9980010986328 L -110.9990005493164 236.9980010986328 L -110.9990005493164 241.9980010986328 L -110.9990005493164 242.0030059814453 L -105.9990005493164 242.0030059814453 z" fill="none" stroke="rgb(255,0,0)" stroke-width="0.001mm" />
</svg>