<?xml version="1.0" standalone="no"?>
<!DOCTYPE svg PUBLIC "-//W3C//DTD SVG 1.1//EN"
  "http://www.w3.org/Graphics/SVG/1.1/DTD/svg11.dtd">
<svg width="433mm" height="174mm" viewBox="5 189 433 174" xmlns="http://www.w3.org/2000/svg" version="1.1">
	<title>svgOutput</title>
	<desc>made with tinkercad</desc>
<path d="M 437 362 L 436.1261291503906 362 L 437 360.0439147949219 L 437 362 M 235.9980010986328 190 L 235.9980010986328 214.9980010986328 L 235.9980010986328 227.5101318359375 L 235.9980010986328 228.47129821777344 L 210.20799255371094 222.01100158691406 L 206.0030059814453 221.38722229003906 L 201.0019989013672 220.64537048339844 L 196.0019989013672 219.90367126464844 L 191.0019989013672 219.16197204589844 L 186.0019989013672 218.42027282714844 L 181.0019989013672 217.67857360839844 L 176.0019989013672 216.93685913085938 L 174.7760009765625 216.7550048828125 L 171.0019989013672 216.5696563720703 L 166.00100708007812 216.3240509033203 L 161.00100708007812 216.0784912109375 L 156.00100708007812 215.8329315185547 L 151.00100708007812 215.58738708496094 L 146.00100708007812 215.34182739257812 L 141.00100708007812 215.0962677001953 L 139 214.9980010986328 L 136.00100708007812 214.9980010986328 L 136.00100708007812 209.9980010986328 L 131.00100708007812 209.9980010986328 L 131.00100708007812 214.9980010986328 L 126 214.9980010986328 L 126 209.9980010986328 L 121 209.9980010986328 L 121 214.9980010986328 L 116 214.9980010986328 L 116 209.9980010986328 L 111 209.9980010986328 L 111 214.9980010986328 L 106 214.9980010986328 L 106 209.9980010986328 L 101 209.9980010986328 L 101 214.9980010986328 L 96 214.9980010986328 L 96 209.9980010986328 L 91 209.9980010986328 L 91 214.9980010986328 L 85.9990005493164 214.9980010986328 L 85.9990005493164 209.9980010986328 L 80.9990005493164 209.9980010986328 L 80.9990005493164 214.9980010986328 L 75.9990005493164 214.9980010986328 L 75.9990005493164 209.9980010986328 L 70.9990005493164 209.9980010986328 L 70.9990005493164 214.9980010986328 L 65.9990005493164 214.9980010986328 L 65.9990005493164 209.9980010986328 L 60.999000549316406 209.9980010986328 L 60.999000549316406 214.9980010986328 L 55.999000549316406 214.9980010986328 L 55.999000549316406 209.9980010986328 L 50.999000549316406 209.9980010986328 L 50.999000549316406 214.9980010986328 L 45.99800109863281 214.9980010986328 L 45.99800109863281 209.9980010986328 L 40.99800109863281 209.9980010986328 L 40.99800109863281 214.9980010986328 L 35.99800109863281 214.9980010986328 L 35.99800109863281 209.9980010986328 L 30.99799919128418 209.9980010986328 L 30.99799919128418 214.9980010986328 L 25.99799919128418 214.9980010986328 L 25.99799919128418 209.9980010986328 L 20.99799919128418 209.9980010986328 L 20.99799919128418 214.9980010986328 L 15.998000144958496 214.9980010986328 L 15.998000144958496 209.9980010986328 L 10.998000144958496 209.9980010986328 L 10.998000144958496 214.9980010986328 L 6 214.9980010986328 L 6 190 L 10.998000144958496 190 L 15.998000144958496 190 L 20.99799919128418 190 L 25.99799919128418 190 L 30.99799919128418 190 L 35.99800109863281 190 L 40.99800109863281 190 L 45.99800109863281 190 L 50.999000549316406 190 L 55.999000549316406 190 L 60.999000549316406 190 L 65.9990005493164 190 L 70.9990005493164 190 L 75.9990005493164 190 L 80.9990005493164 190 L 85.9990005493164 190 L 91 190 L 96 190 L 101 190 L 106 190 L 111 190 L 116 190 L 121 190 L 126 190 L 131.00100708007812 190 L 136.00100708007812 190 L 141.00100708007812 190 L 146.00100708007812 190 L 151.00100708007812 190 L 156.00100708007812 190 L 161.00100708007812 190 L 166.00100708007812 190 L 171.0019989013672 190 L 176.0019989013672 190 L 181.0019989013672 190 L 186.0019989013672 190 L 191.0019989013672 190 L 196.0019989013672 190 L 201.0019989013672 190 L 206.0030059814453 190 L 235.9980010986328 190 M 166.00100708007812 215.0030059814453 L 166.00100708007812 214.9980010986328 L 166.00100708007812 209.9980010986328 L 161.00100708007812 209.9980010986328 L 161.00100708007812 214.9980010986328 L 161.00100708007812 215.0030059814453 L 162.96533203125 215.0030059814453 L 166.00100708007812 215.0030059814453 M 186.0019989013672 215.0030059814453 L 186.0019989013672 214.9980010986328 L 186.0019989013672 209.9980010986328 L 181.0019989013672 209.9980010986328 L 181.0019989013672 214.9980010986328 L 181.0019989013672 215.0030059814453 L 182.23155212402344 215.0030059814453 L 186.0019989013672 215.0030059814453 M 206.0030059814453 215.0030059814453 L 206.0030059814453 214.9980010986328 L 206.0030059814453 209.9980010986328 L 201.0019989013672 209.9980010986328 L 201.0019989013672 214.9980010986328 L 201.0019989013672 215.0030059814453 L 201.04290771484375 215.0030059814453 L 206.0030059814453 215.0030059814453 M 196.0019989013672 215.0030059814453 L 196.0019989013672 214.9980010986328 L 196.0019989013672 209.9980010986328 L 191.0019989013672 209.9980010986328 L 191.0019989013672 214.9980010986328 L 191.0019989013672 215.0030059814453 L 196.0019989013672 215.0030059814453 M 171.0019989013672 215.0030059814453 L 176.0019989013672 215.0030059814453 L 176.0019989013672 214.9980010986328 L 176.0019989013672 209.9980010986328 L 171.0019989013672 209.9980010986328 L 171.0019989013672 214.9980010986328 L 171.0019989013672 215.0030059814453 M 151.00100708007812 214.9980010986328 L 151.00100708007812 215.0030059814453 L 156.00100708007812 215.0030059814453 L 156.00100708007812 214.9980010986328 L 156.00100708007812 209.9980010986328 L 151.00100708007812 209.9980010986328 L 151.00100708007812 214.9980010986328 M 146.00100708007812 215.0030059814453 L 146.00100708007812 214.9980010986328 L 146.00100708007812 209.9980010986328 L 141.00100708007812 209.9980010986328 L 141.00100708007812 214.9980010986328 L 141.00100708007812 215.0030059814453 L 146.00100708007812 215.0030059814453 z" fill="none" stroke="rgb(255,0,0)" stroke-width="0.001mm" />
</svg>