<?xml version="1.0" standalone="no"?>
<!DOCTYPE svg PUBLIC "-//W3C//DTD SVG 1.1//EN"
  "http://www.w3.org/Graphics/SVG/1.1/DTD/svg11.dtd">
<svg width="587mm" height="246.188232421875mm" viewBox="-341 -51 587 246.188232421875" xmlns="http://www.w3.org/2000/svg" version="1.1">
	<title>svgOutput</title>
	<desc>made with tinkercad</desc>
<path d="M -302 -30 L -302 -29.99799919128418 L -302 -29 L -302 -25.003000259399414 L -302 -25 L -306.3900146484375 -25 L -306.3900146484375 -25.003000259399414 L -307 -25.003000259399414 L -317.3949890136719 -25.003000259399414 L -317.3949890136719 -25 L -317.3949890136719 -24 L -317.3949890136719 -20 L -317.3949890136719 -19.99799919128418 L -307 -19.99799919128418 L -306.3900146484375 -19.99799919128418 L -306.3900146484375 -20 L -302 -20 L -302 -19.99799919128418 L -302 -19 L -302 -15 L -307 -15 L -307 -14 L -307 -10 L -302 -10 L -302 -9 L -302 -5 L -307 -5 L -307 -4 L -307 1.1102230246251565e-16 L -302 1.1102230246251565e-16 L -302 1 L -302 5 L -307 5 L -307 6 L -307 10 L -302 10 L -302 11 L -302 15 L -307 15 L -307 16 L -307 20 L -302 20 L -302 21 L -302 25 L -307 25 L -307 26 L -307 30 L -302 30 L -302 31 L -302 35 L -307 35 L -307 36 L -307 40 L -302 40 L -302 41 L -302 45 L -307 45 L -307 46 L -307 50 L -302 50 L -302 51 L -302 55 L -307 55 L -307 56 L -307 60 L -302 60 L -302 61 L -302 65 L -307 65 L -307 66 L -307 70 L -302 70 L -302 71 L -302 75 L -307 75 L -307.3908996582031 75 L -307.58734130859375 71 L -307.6364440917969 70 L -307.8328857421875 66 L -307.8819885253906 65 L -308.07843017578125 61 L -308.1275634765625 60 L -308.3240051269531 56 L -308.37310791015625 55 L -308.5695495605469 51 L -308.61865234375 50 L -308.7550048828125 47.2239990234375 L -308.9365539550781 46 L -309.08489990234375 45 L -309.67828369140625 41 L -309.82659912109375 40 L -310.41998291015625 36 L -310.5683288574219 35 L -311.16168212890625 31 L -311.3100280761719 30 L -311.90338134765625 26 L -312.0517272949219 25 L -312.64508056640625 21 L -312.7934265136719 20 L -313.38677978515625 16 L -313.5351257324219 15 L -314.010986328125 11.791999816894531 L -314.2093811035156 11 L -314.45989990234375 10 L -315.4618835449219 6 L -315.7123718261719 5 L -316.71435546875 1 L -316.96484375 1.1102230246251565e-16 L -317.9668273925781 -4 L -318.21734619140625 -5 L -319.2193298339844 -9 L -319.4698181152344 -10 L -320.4718017578125 -14 L -320.7222900390625 -15 L -321.7242736816406 -19 L -321.9742736816406 -19.99799919128418 L -321.97479248046875 -20 L -322.7149963378906 -22.954999923706055 L -323.0888977050781 -24 L -323.44671630859375 -25 L -324.8779296875 -29 L -325 -29.34114646911621 L -325.2357482910156 -30 L -326.6669616699219 -34 L -327.0247802734375 -35 L -328.45599365234375 -39 L -328.8138122558594 -40 L -330.2450256347656 -44 L -330.6028137207031 -45 L -332.0340576171875 -49 L -332.391845703125 -50 L -329.48968505859375 -50 L -307 -50 L -307 -49 L -307 -44 L -307 -40 L -302 -40 L -302 -39 L -302 -35.00299835205078 L -302 -35 L -306.3900146484375 -35 L -306.3900146484375 -35.00299835205078 L -307 -35.00299835205078 L -317.3949890136719 -35.00299835205078 L -317.3949890136719 -35 L -317.3949890136719 -34 L -317.3949890136719 -30 L -317.3949890136719 -29.99799919128418 L -307 -29.99799919128418 L -306.3900146484375 -29.99799919128418 L -306.3900146484375 -30 L -302 -30 M -300 -44 L -300 -49 L -295 -49 L -294.6091003417969 -49 L -294.3635559082031 -44 L -294.1671142578125 -40 L -294.1180114746094 -39 L -293.92156982421875 -35 L -293.8724365234375 -34 L -293.6759948730469 -30 L -293.62689208984375 -29 L -293.4304504394531 -25 L -293.38134765625 -24 L -293.2449951171875 -21.224000930786133 L -293.0634460449219 -20 L -292.91510009765625 -19 L -292.32171630859375 -15 L -292.17340087890625 -14 L -291.58001708984375 -10 L -291.4316711425781 -9 L -290.83831787109375 -5 L -290.6899719238281 -4 L -290.09661865234375 1.1102230246251565e-16 L -289.9482727050781 1 L -289.35491943359375 5 L -289.2065734863281 6 L -288.61322021484375 10 L -288.4648742675781 11 L -287.989013671875 14.208000183105469 L -287.7906188964844 15 L -287.54010009765625 16 L -286.5381164550781 20 L -286.2876281738281 21 L -285.28564453125 25 L -285.03515625 26 L -285 26.140304565429688 L -283.78265380859375 31 L -282.5301818847656 36 L -281.4584655761719 40.278343200683594 L -281.2777099609375 41 L -280.02520751953125 46 L -279.2850036621094 48.95500183105469 L -278.55328369140625 51 L -276.7642517089844 56 L -274.9752197265625 61 L -273.1861877441406 66 L -271.3971862792969 71 L -269.608154296875 76 L -272.51031494140625 76 L -278.82275390625 76 L -285 76 L -295 76 L -295 75 L -295 71 L -295 70 L -295 66 L -300 66 L -300 65 L -300 61.00299835205078 L -300 61 L -295.6109924316406 61 L -295.6109924316406 61.00299835205078 L -295 61.00299835205078 L -285 61.00299835205078 L -284.6059875488281 61.00299835205078 L -284.6059875488281 61 L -284.6059875488281 56 L -284.6059875488281 55.99800109863281 L -285 55.99800109863281 L -295 55.99800109863281 L -295.6109924316406 55.99800109863281 L -295.6109924316406 56 L -300 56 L -300 55.99800109863281 L -300 55 L -300 51.00299835205078 L -300 51 L -295.6109924316406 51 L -295.6109924316406 51.00299835205078 L -295 51.00299835205078 L -285 51.00299835205078 L -284.6059875488281 51.00299835205078 L -284.6059875488281 51 L -284.6059875488281 46 L -284.6059875488281 45.99800109863281 L -284.6244812011719 45.99800109863281 L -285 45.99800109863281 L -295 45.99800109863281 L -295.6109924316406 45.99800109863281 L -295.6109924316406 46 L -300 46 L -300 45.99800109863281 L -300 45 L -300 41 L -295 41 L -295 40 L -295 36 L -300 36 L -300 35 L -300 31 L -295 31 L -295 30 L -295 26 L -300 26 L -300 25 L -300 21 L -295 21 L -295 20 L -295 16 L -300 16 L -300 15 L -300 11 L -295 11 L -295 10 L -295 6 L -300 6 L -300 5 L -300 1 L -295 1 L -295 1.1102230246251565e-16 L -295 -4 L -300 -4 L -300 -5 L -300 -9 L -295 -9 L -295 -10 L -295 -14 L -300 -14 L -300 -15 L -300 -19 L -295 -19 L -295 -20 L -295 -24 L -300 -24 L -300 -25 L -300 -29 L -295 -29 L -295 -30 L -295 -34 L -300 -34 L -300 -35 L -300 -39 L -295 -39 L -295 -40 L -295 -44 L -300 -44 M -334.6091003417969 -50 L -334.55999755859375 -49 L -334.3635559082031 -45 L -334.314453125 -44 L -334.1180114746094 -40 L -334.0688781738281 -39 L -333.8724365234375 -35 L -333.8233337402344 -34 L -333.62689208984375 -30 L -333.5777893066406 -29 L -333.38134765625 -25 L -333.33221435546875 -24 L -333.2449951171875 -22.224000930786133 L -332.91510009765625 -20 L -332.7667541503906 -19 L -332.17340087890625 -15 L -332.0250549316406 -14 L -331.4316711425781 -10 L -331.2833557128906 -9 L -330.6899719238281 -5 L -330.5416564941406 -4 L -329.9482727050781 1.1102230246251565e-16 L -329.7999267578125 1 L -329.2065734863281 5 L -329.0582275390625 6 L -328.4648742675781 10 L -328.3165283203125 11 L -327.989013671875 13.208000183105469 L -327.54010009765625 15 L -327.28961181640625 16 L -326.2876281738281 20 L -326.0371398925781 21 L -325.03515625 25 L -324.7846374511719 26 L -323.78265380859375 30 L -323.53216552734375 31 L -322.5301818847656 35 L -322.2796936035156 36 L -321.2777099609375 40 L -321.0271911621094 41 L -320.02520751953125 45 L -319.77471923828125 46 L -319.2850036621094 47.95500183105469 L -318.55328369140625 50 L -318.19549560546875 51 L -316.7642517089844 55 L -316.4064636230469 56 L -314.9752197265625 60 L -314.617431640625 61 L -313.1861877441406 65 L -312.8283996582031 66 L -311.3971862792969 70 L -311.03936767578125 71 L -309.608154296875 75 L -312.51031494140625 75 L -318.82275390625 75 L -335 75 L -335 71 L -335 70 L -335 66 L -335 65 L -340 65 L -340 61 L -340 60.00299835205078 L -340 60 L -335.6109924316406 60 L -335.6109924316406 60.00299835205078 L -335 60.00299835205078 L -324.6059875488281 60.00299835205078 L -324.6059875488281 60 L -324.6059875488281 56 L -324.6059875488281 55 L -324.6059875488281 54.99800109863281 L -335 54.99800109863281 L -335.6109924316406 54.99800109863281 L -335.6109924316406 55 L -340 55 L -340 54.99800109863281 L -340 51 L -340 50.00299835205078 L -340 50 L -335.6109924316406 50 L -335.6109924316406 50.00299835205078 L -335 50.00299835205078 L -324.6059875488281 50.00299835205078 L -324.6059875488281 50 L -324.6059875488281 46 L -324.6059875488281 45 L -324.6059875488281 44.99800109863281 L -335 44.99800109863281 L -335.6109924316406 44.99800109863281 L -335.6109924316406 45 L -340 45 L -340 44.99800109863281 L -340 41 L -340 40 L -335 40 L -335 36 L -335 35 L -340 35 L -340 31 L -340 30 L -335 30 L -335 26 L -335 25 L -340 25 L -340 21 L -340 20 L -335 20 L -335 16 L -335 15 L -340 15 L -340 11 L -340 10 L -335 10 L -335 6 L -335 5 L -340 5 L -340 1 L -340 1.1102230246251565e-16 L -335 1.1102230246251565e-16 L -335 -4 L -335 -5 L -340 -5 L -340 -9 L -340 -10 L -335 -10 L -335 -14 L -335 -15 L -340 -15 L -340 -19 L -340 -20 L -335 -20 L -335 -24 L -335 -25 L -340 -25 L -340 -29 L -340 -30 L -335 -30 L -335 -34 L -335 -35 L -340 -35 L -340 -39 L -340 -40 L -335 -40 L -335 -44 L -335 -45 L -340 -45 L -340 -49 L -340 -50 L -335 -50 L -334.6091003417969 -50 M -35 85 L -39.077999114990234 85 L -39.077999114990234 79.99800109863281 L -44.07899856567383 79.99800109863281 L -44.07899856567383 85 L -49.07899856567383 85 L -49.07899856567383 79.99800109863281 L -54.07899856567383 79.99800109863281 L -54.07899856567383 85 L -55 85 L -59.07699966430664 85 L -59.07899856567383 85 L -59.07899856567383 79.99800109863281 L -64.0770034790039 79.99800109863281 L -64.0790023803711 79.99800109863281 L -64.0790023803711 85 L -69.0780029296875 85 L -69.0790023803711 85 L -69.0790023803711 79.99800109863281 L -74.0780029296875 79.99800109863281 L -74.0790023803711 79.99800109863281 L -74.0790023803711 85 L -79.0780029296875 85 L -79.0790023803711 85 L -79.0790023803711 79.99800109863281 L -84.0780029296875 79.99800109863281 L -84.08000183105469 79.99800109863281 L -84.08000183105469 -43.99700164794922 L -84.0780029296875 -43.99700164794922 L -79.0790023803711 -43.99700164794922 L -79.0790023803711 -49 L -79.0780029296875 -49 L -74.0790023803711 -49 L -74.0790023803711 -43.99700164794922 L -74.0780029296875 -43.99700164794922 L -69.0790023803711 -43.99700164794922 L -69.0790023803711 -49 L -69.0780029296875 -49 L -64.0790023803711 -49 L -64.0790023803711 -43.99700164794922 L -64.0770034790039 -43.99700164794922 L -59.07899856567383 -43.99700164794922 L -59.07899856567383 -49 L -59.07699966430664 -49 L -54.07899856567383 -49 L -54.07899856567383 -43.99700164794922 L -49.07899856567383 -43.99700164794922 L -49.07899856567383 -49 L -44.07899856567383 -49 L -44.07899856567383 -43.99700164794922 L -39.077999114990234 -43.99700164794922 L -39.077999114990234 -49 L -34.077999114990234 -49 L -34.077999114990234 -43.99700164794922 L -29.077999114990234 -43.99700164794922 L -29.077999114990234 -49 L -24.077999114990234 -49 L -24.077999114990234 -43.99700164794922 L -19.077999114990234 -43.99700164794922 L -19.077999114990234 -49 L -14.07800006866455 -49 L -14.07800006866455 -43.99700164794922 L -9.07800006866455 -43.99700164794922 L -9.07800006866455 -49 L -4.077000141143799 -49 L -4.077000141143799 -43.99700164794922 L 0.9229999780654907 -43.99700164794922 L 0.9229999780654907 -49 L 5.922999858856201 -49 L 5.922999858856201 -43.99700164794922 L 10.92300033569336 -43.99700164794922 L 10.92300033569336 -49 L 11.918000221252441 -49 L 12.92300033569336 -49 L 15.920000076293945 -49 L 15.920000076293945 85 L 12.92300033569336 85 L 11.918000221252441 85 L 10.92300033569336 85 L 10.92300033569336 79.99800109863281 L 5.922999858856201 79.99800109863281 L 5.922999858856201 85 L 0.9229999780654907 85 L 0.9229999780654907 79.99800109863281 L -4.077000141143799 79.99800109863281 L -4.077000141143799 85 L -9.07800006866455 85 L -9.07800006866455 79.99800109863281 L -14.07800006866455 79.99800109863281 L -14.07800006866455 85 L -19.077999114990234 85 L -19.077999114990234 79.99800109863281 L -24.077999114990234 79.99800109863281 L -24.077999114990234 85 L -29.077999114990234 85 L -29.077999114990234 79.99800109863281 L -34.077999114990234 79.99800109863281 L -34.077999114990234 85 L -35 85 M -85.08000183105469 85 L -88 85 L -90.0780029296875 85 L -90.08000183105469 85 L -90.08000183105469 79.99800109863281 L -95.0790023803711 79.99800109863281 L -95.08000183105469 79.99800109863281 L -95.08000183105469 85 L -100.0790023803711 85 L -100.08000183105469 85 L -100.08000183105469 79.99800109863281 L -105.0790023803711 79.99800109863281 L -105.08000183105469 79.99800109863281 L -105.08000183105469 85 L -110.0790023803711 85 L -110.08000183105469 85 L -110.08000183105469 79.99800109863281 L -115.0790023803711 79.99800109863281 L -115.08000183105469 79.99800109863281 L -115.08000183105469 85 L -120.08000183105469 85 L -120.08000183105469 79.99800109863281 L -125.08000183105469 79.99800109863281 L -125.08100128173828 79.99800109863281 L -125.08100128173828 85 L -128 85 L -130.0800018310547 85 L -130.08099365234375 85 L -130.08099365234375 79.99800109863281 L -135.0800018310547 79.99800109863281 L -135.08099365234375 79.99800109863281 L -135.08099365234375 85 L -140.08099365234375 85 L -140.08099365234375 79.99800109863281 L -145.08099365234375 79.99800109863281 L -145.08099365234375 85 L -150.08099365234375 85 L -150.08099365234375 79.99800109863281 L -155.07699584960938 79.99800109863281 L -155.08099365234375 79.99800109863281 L -155.08099365234375 85 L -160.08099365234375 85 L -160.08099365234375 79.99800109863281 L -160.08200073242188 79.99800109863281 L -165.07699584960938 79.99800109863281 L -165.08200073242188 79.99800109863281 L -165.08200073242188 85 L -170.08200073242188 85 L -170.08200073242188 79.99800109863281 L -175.07699584960938 79.99800109863281 L -175.08200073242188 79.99800109863281 L -175.08200073242188 85 L -180.08200073242188 85 L -180.08200073242188 79.99800109863281 L -185.0800018310547 79.99800109863281 L -185.0800018310547 78.00299835205078 L -180.08200073242188 78.00299835205078 L -175.08200073242188 78.00299835205078 L -175.07699584960938 78.00299835205078 L -175.07699584960938 40.00299835205078 L -170.08200073242188 40.00299835205078 L -170.08200073242188 -0.0020000000949947916 L -175.07699584960938 -0.0020000000949947916 L -175.07699584960938 -42.00199890136719 L -175.08200073242188 -42.00199890136719 L -180.08200073242188 -42.00199890136719 L -185.0800018310547 -42.00199890136719 L -185.0800018310547 -43.99700164794922 L -180.08200073242188 -43.99700164794922 L -180.08200073242188 -49 L -175.08200073242188 -49 L -175.08200073242188 -43.99700164794922 L -175.07699584960938 -43.99700164794922 L -170.08200073242188 -43.99700164794922 L -170.08200073242188 -49 L -165.08200073242188 -49 L -165.08200073242188 -43.99700164794922 L -165.07699584960938 -43.99700164794922 L -160.08200073242188 -43.99700164794922 L -160.08099365234375 -43.99700164794922 L -160.08099365234375 -49 L -155.08099365234375 -49 L -155.08099365234375 -43.99700164794922 L -155.07699584960938 -43.99700164794922 L -150.08099365234375 -43.99700164794922 L -150.08099365234375 -49 L -145.08099365234375 -49 L -145.08099365234375 -43.99700164794922 L -140.08099365234375 -43.99700164794922 L -140.08099365234375 -49 L -135.08099365234375 -49 L -135.08099365234375 -43.99700164794922 L -135.0800018310547 -43.99700164794922 L -130.08099365234375 -43.99700164794922 L -130.08099365234375 -49 L -130.0800018310547 -49 L -125.08100128173828 -49 L -125.08100128173828 -43.99700164794922 L -125.08000183105469 -43.99700164794922 L -120.08000183105469 -43.99700164794922 L -120.08000183105469 -49 L -115.08000183105469 -49 L -115.08000183105469 -43.99700164794922 L -115.0790023803711 -43.99700164794922 L -110.08000183105469 -43.99700164794922 L -110.08000183105469 -49 L -110.0790023803711 -49 L -105.08000183105469 -49 L -105.08000183105469 -43.99700164794922 L -105.0790023803711 -43.99700164794922 L -100.08000183105469 -43.99700164794922 L -100.08000183105469 -49 L -100.0790023803711 -49 L -95.08000183105469 -49 L -95.08000183105469 -43.99700164794922 L -95.0790023803711 -43.99700164794922 L -90.08000183105469 -43.99700164794922 L -90.08000183105469 -49 L -90.0780029296875 -49 L -85.08000183105469 -49 L -85.08000183105469 85 M -215.00088500976562 -49 L -214.75518798828125 -44 L -214.50949096679688 -39 L -214.2637939453125 -34 L -214.0181121826172 -29 L -213.7724151611328 -24 L -213.63600158691406 -21.224000930786133 L -213.30615234375 -19 L -212.56459045410156 -14 L -211.82302856445312 -9 L -211.0814666748047 -4 L -210.48822021484375 1.1102230246251565e-16 L -210.33990478515625 1 L -209.5983428955078 6 L -208.85678100585938 11 L -208.38099670410156 14.208000183105469 L -207.93211364746094 16 L -206.67962646484375 21 L -205.42713928222656 26 L -204.17466735839844 31 L -202.92218017578125 36 L -201.66969299316406 41 L -200.41722106933594 46 L -199.677001953125 48.95500183105469 L -198.94528198242188 51 L -197.15626525878906 56 L -195.3672332763672 61 L -193.5782012939453 66 L -191.78916931152344 71 L -190.00013732910156 76 L -192.90232849121094 76 L -199.21649169921875 76 L -215.39199829101562 76 L -215.39199829101562 71 L -215.39199829101562 66 L -220.39199829101562 66 L -220.39199829101562 61.00299835205078 L -220.39199829101562 61 L -216.0019989013672 61 L -216.0019989013672 61.00299835205078 L -215.39199829101562 61.00299835205078 L -204.9969940185547 61.00299835205078 L -204.9969940185547 61 L -204.9969940185547 56 L -204.9969940185547 55.99800109863281 L -215.39199829101562 55.99800109863281 L -216.0019989013672 55.99800109863281 L -216.0019989013672 56 L -220.39199829101562 56 L -220.39199829101562 55.99800109863281 L -220.39199829101562 51.00299835205078 L -220.39199829101562 51 L -216.0019989013672 51 L -216.0019989013672 51.00299835205078 L -215.39199829101562 51.00299835205078 L -204.9969940185547 51.00299835205078 L -204.9969940185547 51 L -204.9969940185547 46 L -204.9969940185547 45.99800109863281 L -215.39199829101562 45.99800109863281 L -216.0019989013672 45.99800109863281 L -216.0019989013672 46 L -220.39199829101562 46 L -220.39199829101562 45.99800109863281 L -220.39199829101562 41 L -215.39199829101562 41 L -215.39199829101562 36 L -220.39199829101562 36 L -220.39199829101562 31 L -215.39199829101562 31 L -215.39199829101562 26 L -220.39199829101562 26 L -220.39199829101562 21 L -215.39199829101562 21 L -215.39199829101562 16 L -220.39199829101562 16 L -220.39199829101562 11 L -215.39199829101562 11 L -215.39199829101562 6 L -220.39199829101562 6 L -220.39199829101562 1 L -215.39199829101562 1 L -215.39199829101562 1.1102230246251565e-16 L -215.39199829101562 -4 L -220.39199829101562 -4 L -220.39199829101562 -9 L -215.39199829101562 -9 L -215.39199829101562 -14 L -220.39199829101562 -14 L -220.39199829101562 -19 L -215.39199829101562 -19 L -215.39199829101562 -24 L -220.39199829101562 -24 L -220.39199829101562 -29 L -215.39199829101562 -29 L -215.39199829101562 -34 L -220.39199829101562 -34 L -220.39199829101562 -39 L -215.39199829101562 -39 L -215.39199829101562 -44 L -220.39199829101562 -44 L -220.39199829101562 -49 L -215.39199829101562 -49 L -215.00088500976562 -49 M -84 128.9739990234375 L -84.08000183105469 129.0540008544922 L -85.08000183105469 130.0540008544922 L -86.0979995727539 131.07200622558594 L -87.53600311279297 132.50999450683594 L -88 132.04586791992188 L -88.97359466552734 131.07200622558594 L -91.07099914550781 128.9739990234375 L -93.16899871826172 131.07200622558594 L -98.09700012207031 136 L -100.7093734741211 133.3873748779297 L -103.0245361328125 131.07200622558594 L -104.24471282958984 129.85171508789062 L -105.16766357421875 128.9286651611328 L -107.31099700927734 131.07200622558594 L -108 131.76100158691406 L -108.6780014038086 132.43899536132812 L -112.21399688720703 128.9029998779297 L -108.70301055908203 125.39299774169922 L -108.6780014038086 125.36799621582031 L -108.65299224853516 125.39299774169922 L -108 125.39299774169922 L -94.65098571777344 125.39299774169922 L -88 125.39299774169922 L -87.58201599121094 125.39299774169922 L -87.48999786376953 125.39299774169922 L -87.53600311279297 125.43900299072266 L -85.08000183105469 127.89430236816406 L -84.08000183105469 128.89402770996094 L -84 128.9739990234375 M -159.0019989013672 112.5270004272461 L -161 112.5270004272461 L -164.0019989013672 112.5270004272461 L -164.0019989013672 107.5270004272461 L -169.0019989013672 107.5270004272461 L -169.0019989013672 112.5270004272461 L -174.0019989013672 112.5270004272461 L -174.0019989013672 107.5270004272461 L -175.41799926757812 107.5270004272461 L -176.42300415039062 107.5270004272461 L -179.0019989013672 107.5270004272461 L -179.0019989013672 112.5270004272461 L -184 112.5270004272461 L -184 87.52899932861328 L -179.0019989013672 87.52899932861328 L -176.42300415039062 87.52899932861328 L -175.41799926757812 87.52899932861328 L -174.0019989013672 87.52899932861328 L -169.0019989013672 87.52899932861328 L -164.0019989013672 87.52899932861328 L -161 87.52899932861328 L -159.0019989013672 87.52899932861328 L -154.00100708007812 87.52899932861328 L -149.00100708007812 87.52899932861328 L -144.00100708007812 87.52899932861328 L -139.00100708007812 87.52899932861328 L -134.00100708007812 87.52899932861328 L -129.00100708007812 87.52899932861328 L -128 87.52899932861328 L -124.0009994506836 87.52899932861328 L -119.0009994506836 87.52899932861328 L -114 87.52899932861328 L -109 87.52899932861328 L -104 87.52899932861328 L -99 87.52899932861328 L -94 87.52899932861328 L -89 87.52899932861328 L -88 87.52899932861328 L -85.08000183105469 87.52899932861328 L -84.08000183105469 87.52899932861328 L -84 87.52899932861328 L -73.9990005493164 87.52899932861328 L -63.999000549316406 87.52899932861328 L -58.999000549316406 87.52899932861328 L -55 87.52899932861328 L -53.999000549316406 87.52899932861328 L -48.999000549316406 87.52899932861328 L -47.922000885009766 87.52899932861328 L -46.91699981689453 87.52899932861328 L -44.00199890136719 87.52899932861328 L -44.00199890136719 107.5270004272461 L -46.91699981689453 107.5270004272461 L -47.922000885009766 107.5270004272461 L -48.999000549316406 107.5270004272461 L -48.999000549316406 112.5270004272461 L -48.999000549316406 112.53199768066406 L -44.00199890136719 112.53199768066406 L -44.00199890136719 112.87086486816406 L -48.999000549316406 112.62532806396484 L -51 112.5270004272461 L -53.999000549316406 112.5270004272461 L -53.999000549316406 107.5270004272461 L -55 107.5270004272461 L -58.999000549316406 107.5270004272461 L -58.999000549316406 112.5270004272461 L -63.999000549316406 112.5270004272461 L -63.999000549316406 107.5270004272461 L -68.9990005493164 107.5270004272461 L -68.9990005493164 112.5270004272461 L -73.9990005493164 112.5270004272461 L -73.9990005493164 107.5270004272461 L -79 107.5270004272461 L -79 112.5270004272461 L -84 112.5270004272461 L -84 107.5270004272461 L -84.08000183105469 107.5270004272461 L -85.08000183105469 107.5270004272461 L -88 107.5270004272461 L -89 107.5270004272461 L -89 112.5270004272461 L -94 112.5270004272461 L -94 107.5270004272461 L -99 107.5270004272461 L -99 112.5270004272461 L -104 112.5270004272461 L -104 107.5270004272461 L -109 107.5270004272461 L -109 112.5270004272461 L -114 112.5270004272461 L -114 107.5270004272461 L -119.0009994506836 107.5270004272461 L -119.0009994506836 112.5270004272461 L -124.0009994506836 112.5270004272461 L -124.0009994506836 107.5270004272461 L -128 107.5270004272461 L -129.00100708007812 107.5270004272461 L -129.00100708007812 112.5270004272461 L -131.07200622558594 112.5270004272461 L -134.00100708007812 112.5270004272461 L -134.00100708007812 107.5270004272461 L -139.00100708007812 107.5270004272461 L -139.00100708007812 112.5270004272461 L -144.00100708007812 112.5270004272461 L -144.00100708007812 107.5270004272461 L -149.00100708007812 107.5270004272461 L -149.00100708007812 112.5270004272461 L -154.00100708007812 112.5270004272461 L -154.00100708007812 107.5270004272461 L -159.0019989013672 107.5270004272461 L -159.0019989013672 112.5270004272461 M -255.61099243164062 51 L -255.61099243164062 51.00299835205078 L -255 51.00299835205078 L -244.6060028076172 51.00299835205078 L -244.6060028076172 51 L -244.6060028076172 46 L -244.6060028076172 45.99800109863281 L -255 45.99800109863281 L -255.61099243164062 45.99800109863281 L -255.61099243164062 46 L -260 46 L -260 45.99800109863281 L -260 41 L -255 41 L -255 36 L -260 36 L -260 31 L -255 31 L -255 26 L -260 26 L -260 21 L -255 21 L -255 16 L -260 16 L -260 11 L -255 11 L -255 6 L -260 6 L -260 1 L -255 1 L -255 1.1102230246251565e-16 L -255 -4 L -260 -4 L -260 -9 L -255 -9 L -255 -14 L -260 -14 L -260 -19 L -255 -19 L -255 -24 L -260 -24 L -260 -29 L -255 -29 L -255 -34 L -260 -34 L -260 -39 L -255 -39 L -255 -44 L -260 -44 L -260 -49 L -255 -49 L -254.60911560058594 -49 L -254.36355590820312 -44 L -254.1179962158203 -39 L -253.8724365234375 -34 L -253.62689208984375 -29 L -253.38133239746094 -24 L -253.2449951171875 -21.224000930786133 L -252.9150848388672 -19 L -252.1733856201172 -14 L -251.4316864013672 -9 L -250.6899871826172 -4 L -250.09661865234375 1.1102230246251565e-16 L -249.9482879638672 1 L -249.20657348632812 6 L -248.46487426757812 11 L -247.98899841308594 14.208000183105469 L -247.5401153564453 16 L -246.28762817382812 21 L -245.03514099121094 26 L -243.7826690673828 31 L -242.53018188476562 36 L -241.27769470214844 41 L -240.0252227783203 46 L -239.28500366210938 48.95500183105469 L -238.55328369140625 51 L -236.76425170898438 56 L -234.97523498535156 61 L -233.1862030029297 66 L -231.3971710205078 71 L -229.60813903808594 76 L -232.5103302001953 76 L -237.10549926757812 76 L -238.82273864746094 76 L -255 76 L -255 71 L -255 66 L -260 66 L -260 61.00299835205078 L -260 61 L -255.61099243164062 61 L -255.61099243164062 61.00299835205078 L -255 61.00299835205078 L -244.6060028076172 61.00299835205078 L -244.6060028076172 61 L -244.6060028076172 56 L -244.6060028076172 55.99800109863281 L -255 55.99800109863281 L -255.61099243164062 55.99800109863281 L -255.61099243164062 56 L -260 56 L -260 55.99800109863281 L -260 51.00299835205078 L -260 51 L -255.61099243164062 51 M -133 129 L -138 129 L -138 124 L -143 124 L -143 129 L -148 129 L -148 124 L -161 124 L -161 123.84803771972656 L -153.66700744628906 123.30999755859375 L -144.31300354003906 121.23999786376953 L -135.13900756835938 117.81300354003906 L -131.07200622558594 115.64176940917969 L -128 114.00173950195312 L -128 114 L -88 114 L -88 114.00173950195312 L -85.08000183105469 115.56062316894531 L -84.08000183105469 116.09449005126953 L -80.86100006103516 117.81300354003906 L -71.68699645996094 121.23999786376953 L -62.33300018310547 123.30999755859375 L -55 123.84803771972656 L -55 124 L -68 124 L -68 129 L -73 129 L -73 124 L -75 124 L -78 124 L -78 129 L -83 129 L -83 124 L -84.08000183105469 124 L -85.08000183105469 124 L -88 124 L -88.97541046142578 124 L -96.04359436035156 124 L -108 124 L -128 124 L -131.07200622558594 124 L -133 124 L -133 124.322998046875 L -133 129 M -130 134.3939971923828 L -128 132.3934326171875 L -126.46499633789062 130.85800170898438 L -122.92916870117188 134.39382934570312 L -115.90399932861328 127.36799621582031 L -113.2916488647461 129.9803466796875 L -109.75550079345703 133.51649475097656 L -108.8324966430664 134.4394989013672 L -108 133.60699462890625 L -105.46499633789062 131.07200622558594 L -105.3219985961914 130.9290008544922 L -105.17903900146484 131.07200622558594 L -101.78700256347656 134.46499633789062 L -105.2969970703125 137.97500610351562 L -105.3219985961914 138 L -105.34700775146484 137.97500610351562 L -108 137.97500610351562 L -114.21399688720703 137.97500610351562 L -119.3479995727539 137.97500610351562 L -121.28856658935547 137.97500610351562 L -126.41899871826172 137.97500610351562 L -126.51000213623047 137.97500610351562 L -126.4645004272461 137.92950439453125 L -123.82437896728516 135.28912353515625 L -126.46499633789062 137.9290008544922 L -128 136.3939971923828 L -130 134.3939971923828 M -222 51 L -222 56 L -227 56 L -227 61 L -222 61 L -222 66 L -227 66 L -227 71 L -222 71 L -222 76 L -227 76 L -227.39088439941406 76 L -227.63644409179688 71 L -227.8820037841797 66 L -228.1275634765625 61 L -228.37310791015625 56 L -228.61866760253906 51 L -228.7550048828125 48.2239990234375 L -229.0849151611328 46 L -229.8266143798828 41 L -230.5683135986328 36 L -231.3100128173828 31 L -232.0517120361328 26 L -232.79342651367188 21 L -233.53512573242188 16 L -234.01100158691406 12.791999816894531 L -234.4598846435547 11 L -235.71237182617188 6 L -236.96485900878906 1 L -237.21534729003906 1.1102230246251565e-16 L -238.2173309326172 -4 L -239.46981811523438 -9 L -240.72230529785156 -14 L -241.9742889404297 -18.99799919128418 L -241.9747772216797 -19 L -242.71499633789062 -21.954999923706055 L -243.44671630859375 -24 L -245.23574829101562 -29 L -247.02476501464844 -34 L -248.8137969970703 -39 L -250.6028289794922 -44 L -252.39186096191406 -49 L -249.4896697998047 -49 L -227 -49 L -227 -44 L -227 -39 L -222 -39 L -222 -34.00299835205078 L -222 -34 L -226.38999938964844 -34 L -226.38999938964844 -34.00299835205078 L -227 -34.00299835205078 L -237.39500427246094 -34.00299835205078 L -237.39500427246094 -34 L -237.39500427246094 -29 L -237.39500427246094 -28.99799919128418 L -227 -28.99799919128418 L -226.38999938964844 -28.99799919128418 L -226.38999938964844 -29 L -222 -29 L -222 -28.99799919128418 L -222 -24.003000259399414 L -222 -24 L -226.38999938964844 -24 L -226.38999938964844 -24.003000259399414 L -227 -24.003000259399414 L -237.39500427246094 -24.003000259399414 L -237.39500427246094 -24 L -237.39500427246094 -19 L -237.39500427246094 -18.99799919128418 L -227 -18.99799919128418 L -226.38999938964844 -18.99799919128418 L -226.38999938964844 -19 L -222 -19 L -222 -18.99799919128418 L -222 -14 L -227 -14 L -227 -9 L -222 -9 L -222 -4 L -227 -4 L -227 1.1102230246251565e-16 L -227 1 L -222 1 L -222 6 L -227 6 L -227 11 L -222 11 L -222 16 L -227 16 L -227 21 L -222 21 L -222 26 L -227 26 L -227 31 L -222 31 L -222 36 L -227 36 L -227 41 L -222 41 L -222 46 L -227 46 L -227 51 L -222 51 M 199.96798706054688 161.0229949951172 L 199.57200622558594 160.87100219726562 L 198.41600036621094 160.54299926757812 L 197.22900390625 160.31900024414062 L 196.0240020751953 160.19900512695312 L 194.81100463867188 160.18600463867188 L 193.60299682617188 160.27999877929688 L 192.41000366210938 160.47900390625 L 191.24600219726562 160.781005859375 L 190.1199951171875 161.18499755859375 L 189.04299926757812 161.68499755859375 L 188.02699279785156 162.2779998779297 L 187.53074645996094 162.63381958007812 L 187.0800018310547 162.95700073242188 L 186.21200561523438 163.71499633789062 L 186.0945281982422 163.83999633789062 L 185.43099975585938 164.54600524902344 L 185 165.10975646972656 L 184.74600219726562 165.44200134277344 L 184.16099548339844 166.3939971923828 L 184 166.7301483154297 L 183.68299865722656 167.39199829101562 L 183.31700134277344 168.427001953125 L 183.06700134277344 169.49000549316406 L 182.93299865722656 170.56900024414062 L 182.91900634765625 171.65499877929688 L 182.95523071289062 172.03199768066406 L 183.0229949951172 172.73699951171875 L 183.2449951171875 173.8040008544922 L 183.58399963378906 174.8470001220703 L 184 175.77883911132812 L 184.03399658203125 175.85499572753906 L 184.59300231933594 176.81900024414062 L 185 177.3784637451172 L 185.2550048828125 177.72900390625 L 186.01300048828125 178.57699584960938 L 186.86000061035156 179.35400390625 L 187.78799438476562 180.05299377441406 L 188.06678771972656 180.2239990234375 L 188.78900146484375 180.66700744628906 L 189.01678466796875 180.77938842773438 L 189.00547790527344 180.79978942871094 L 188.7886199951172 181.1909942626953 L 187.34584045410156 183.7938232421875 L 185 188.02581787109375 L 184 189.82986450195312 L 183.49342346191406 190.74374389648438 L 181.63821411132812 194.09059143066406 L 181.58409118652344 194.188232421875 L 164 181.14654541015625 L 163.00100708007812 180.40560913085938 L 153.7050018310547 173.51100158691406 L 143.00100708007812 167.095703125 L 142 166.4957733154297 L 125 156.3070526123047 L 122.98100280761719 155.0970001220703 L 122 154.6330108642578 L 121 154.1600341796875 L 101 144.7004852294922 L 100 144.22750854492188 L 90.60099792480469 139.78199768066406 L 80 135.9886932373047 L 79 135.63087463378906 L 59 128.47438049316406 L 58 128.11654663085938 L 56.875 127.71399688720703 L 48.86932373046875 125.70877838134766 L 47.92300033569336 125.47174835205078 L 47.92300033569336 125.37018585205078 L 47.92300033569336 124.51074981689453 L 47.92300033569336 120.56041717529297 L 47.92300033569336 119.59628295898438 L 47.92300033569336 112.5270004272461 L 47.92300033569336 111.99700164794922 L 47.92300033569336 87.52899932861328 L 47.92300033569336 87 L 50.99800109863281 87 L 52.00299835205078 87 L 58 87 L 59 87 L 79 87 L 80 87 L 100 87 L 101 87 L 121 87 L 122 87 L 142 87 L 143.00100708007812 87 L 163.00100708007812 87 L 164 87 L 184 87 L 185 87 L 233.40333557128906 87 L 234.55398559570312 87 L 240.9998016357422 87 L 227.14366149902344 111.99700164794922 L 215.2162322998047 133.51455688476562 L 202.5521697998047 156.3610076904297 L 200.68699645996094 159.72586059570312 L 200.43194580078125 160.18600463867188 L 199.96798706054688 161.0229949951172 M 199.99899291992188 -49 L 204.99899291992188 -49 L 204.99899291992188 -44.0359992980957 L 204.99899291992188 -43.99700164794922 L 205.0019989013672 -43.99700164794922 L 205.0030059814453 -43.99700164794922 L 210 -43.99700164794922 L 210 -49 L 215 -49 L 215 -43.99700164794922 L 220.00100708007812 -43.99700164794922 L 220.00100708007812 -49 L 225.00100708007812 -49 L 225.00100708007812 -43.99700164794922 L 229.9969940185547 -43.99700164794922 L 229.9980010986328 -43.99700164794922 L 230.0019989013672 -43.99700164794922 L 230.0019989013672 -44.0359992980957 L 230.0019989013672 -49 L 235.0019989013672 -49 L 235.0019989013672 -44.0359992980957 L 235.0019989013672 -43.99700164794922 L 235.0030059814453 -43.99700164794922 L 240.0030059814453 -43.99700164794922 L 240.0030059814453 -49 L 245 -49 L 245 79.99800109863281 L 240.0030059814453 79.99800109863281 L 235.0030059814453 79.99800109863281 L 235.0019989013672 79.99800109863281 L 230.0019989013672 79.99800109863281 L 229.9980010986328 79.99800109863281 L 229.9969940185547 79.99800109863281 L 225.00100708007812 79.99800109863281 L 220.00100708007812 79.99800109863281 L 215 79.99800109863281 L 210 79.99800109863281 L 205.0030059814453 79.99800109863281 L 205.0019989013672 79.99800109863281 L 204.99899291992188 79.99800109863281 L 199.99899291992188 79.99800109863281 L 199.9980010986328 79.99800109863281 L 199.9969940185547 79.99800109863281 L 194.9980010986328 79.99800109863281 L 189.9980010986328 79.99800109863281 L 185 79.99800109863281 L 185 -43.99700164794922 L 189.9980010986328 -43.99700164794922 L 189.9980010986328 -49 L 194.9980010986328 -49 L 194.9980010986328 -43.99700164794922 L 199.9969940185547 -43.99700164794922 L 199.9980010986328 -43.99700164794922 L 199.99899291992188 -43.99700164794922 L 199.99899291992188 -44.0359992980957 L 199.99899291992188 -49 M 142 79.99800109863281 L 139.44993591308594 79.99800109863281 L 138.3161163330078 79.99800109863281 L 137.0019989013672 79.99800109863281 L 131.9969940185547 79.99800109863281 L 127.00199890136719 79.99800109863281 L 125.8583755493164 79.99800109863281 L 124.72523498535156 79.99800109863281 L 122 79.99800109863281 L 122 -43.99700164794922 L 124.72523498535156 -43.99700164794922 L 125.8583755493164 -43.99700164794922 L 127.00199890136719 -43.99700164794922 L 127.00199890136719 -49 L 131.9969940185547 -49 L 131.9969940185547 -43.99700164794922 L 137.0019989013672 -43.99700164794922 L 137.0019989013672 -49 L 138.3161163330078 -49 L 139.44993591308594 -49 L 142 -49 L 142 79.99800109863281 M 143.00100708007812 -44.00199890136719 L 145.72592163085938 -44.00199890136719 L 146.85919189453125 -44.00199890136719 L 148 -44.00199890136719 L 148 -49 L 153.00100708007812 -49 L 153.00100708007812 -44.00199890136719 L 158.0019989013672 -44.00199890136719 L 158.0019989013672 -49 L 159.31663513183594 -49 L 160.44989013671875 -49 L 163.00100708007812 -49 L 163.00100708007812 80.00199890136719 L 160.44989013671875 80.00199890136719 L 159.31663513183594 80.00199890136719 L 158.0019989013672 80.00199890136719 L 153.00100708007812 80.00199890136719 L 148 80.00199890136719 L 146.85919189453125 80.00199890136719 L 145.72592163085938 80.00199890136719 L 143.00100708007812 80.00199890136719 L 143.00100708007812 -44.00199890136719 M -42.99700164794922 112.87110900878906 L -42.99700164794922 112.5270004272461 L -42.99700164794922 87.52899932861328 L -39.922000885009766 87.52899932861328 L -38.91699981689453 87.52899932861328 L -37.999000549316406 87.52899932861328 L -35 87.52899932861328 L -32.99800109863281 87.52899932861328 L -27.99799919128418 87.52899932861328 L -22.99799919128418 87.52899932861328 L -17.99799919128418 87.52899932861328 L -12.998000144958496 87.52899932861328 L -7.998000144958496 87.52899932861328 L -2.997999906539917 87.52899932861328 L -2 87.52899932861328 L 2.003000020980835 87.52899932861328 L 7.002999782562256 87.52899932861328 L 12.003000259399414 87.52899932861328 L 15.920000076293945 87.52899932861328 L 17 87.52899932861328 L 17.003000259399414 87.52899932861328 L 22.575321197509766 87.52899932861328 L 37 87.52899932861328 L 38 87.52899932861328 L 42.888519287109375 87.52899932861328 L 43.077999114990234 87.52899932861328 L 44.08300018310547 87.52899932861328 L 46.99800109863281 87.52899932861328 L 46.99800109863281 111.99700164794922 L 46.99800109863281 112.5270004272461 L 46.99800109863281 119.15877532958984 L 46.99800109863281 120.12291717529297 L 46.99800109863281 124.17976379394531 L 46.99800109863281 125.03923034667969 L 46.99800109863281 125.24005889892578 L 46.99800109863281 126.00023651123047 L 38 123.74620819091797 L 37 123.4957046508789 L 21.208999633789062 119.54000091552734 L 17 118.91575622558594 L 15.920000076293945 118.75557708740234 L 0 116.39444732666016 L -2 116.09782409667969 L -2.997999906539917 115.9498062133789 L -7.998000144958496 115.20824432373047 L -12.998000144958496 114.46668243408203 L -14.222999572753906 114.28500366210938 L -17.99799919128418 114.09950256347656 L -22.99799919128418 113.85381317138672 L -27.99799919128418 113.6081314086914 L -32.99800109863281 113.36244201660156 L -35 113.26406860351562 L -37.999000549316406 113.11669921875 L -42.99700164794922 112.87110900878906 M -15 146 L -20 146 L -20 141 L -25 141 L -25 146 L -30 146 L -30 141 L -35 141 L -55 141 L -68 141 L -73 141 L -75 141 L -78 141 L -80 141 L -80 146 L -83 146 L -84.08000183105469 146 L -85 146 L -85 141 L -85.08000183105469 141 L -88 141 L -90 141 L -90 146 L -95 146 L -95 141 L -108 141 L -108 140.84803771972656 L -100.66699981689453 140.30999755859375 L -95.03387451171875 139.06341552734375 L -91.31300354003906 138.24000549316406 L -88 137.00241088867188 L -85.08000183105469 135.91162109375 L -84.08000183105469 135.53807067871094 L -83 135.13462829589844 L -82.13899993896484 134.81300354003906 L -78 132.60333251953125 L -75.13160705566406 131.07200622558594 L -75 131.00173950195312 L -75 131 L -73 131 L -68 131 L -55 131 L -51 131 L -35 131 L -35 131.00173950195312 L -27.861000061035156 134.81300354003906 L -18.687000274658203 138.24000549316406 L -9.333000183105469 140.30999755859375 L -2 140.84803771972656 L -2 141 L -8 141 L -15 141 L -15 146 M -289.1716003417969 -40 L -290.6028137207031 -44 L -292.391845703125 -49 L -289.48968505859375 -49 L -285 -49 L -267 -49 L -267 -44 L -267 -39 L -262 -39 L -262 -34.00299835205078 L -262 -34 L -266.3900146484375 -34 L -266.3900146484375 -34.00299835205078 L -267 -34.00299835205078 L -277.3949890136719 -34.00299835205078 L -277.3949890136719 -34 L -277.3949890136719 -29 L -277.3949890136719 -28.99799919128418 L -267 -28.99799919128418 L -266.3900146484375 -28.99799919128418 L -266.3900146484375 -29 L -262 -29 L -262 -28.99799919128418 L -262 -24.003000259399414 L -262 -24 L -266.3900146484375 -24 L -266.3900146484375 -24.003000259399414 L -267 -24.003000259399414 L -277.3949890136719 -24.003000259399414 L -277.3949890136719 -24 L -277.3949890136719 -19 L -277.3949890136719 -18.99799919128418 L -267 -18.99799919128418 L -266.3900146484375 -18.99799919128418 L -266.3900146484375 -19 L -262 -19 L -262 -18.99799919128418 L -262 -14 L -267 -14 L -267 -9 L -262 -9 L -262 -4 L -267 -4 L -267 1.1102230246251565e-16 L -267 1 L -262 1 L -262 6 L -267 6 L -267 11 L -262 11 L -262 16 L -267 16 L -267 21 L -262 21 L -262 26 L -267 26 L -267 31 L -262 31 L -262 36 L -267 36 L -267 41 L -262 41 L -262 46 L -267 46 L -267 51 L -262 51 L -262 56 L -267 56 L -267 61 L -262 61 L -262 66 L -267 66 L -267 71 L -262 71 L -262 76 L -267 76 L -267.3908996582031 76 L -267.6364440917969 71 L -267.8819885253906 66 L -268.1275634765625 61 L -268.37310791015625 56 L -268.61865234375 51 L -268.7550048828125 48.2239990234375 L -269.08489990234375 46 L -269.82659912109375 41 L -270.5683288574219 36 L -271.3100280761719 31 L -272.0517272949219 26 L -272.36944580078125 23.858203887939453 L -272.7934265136719 21 L -273.5351257324219 16 L -274.010986328125 12.791999816894531 L -274.45989990234375 11 L -275.7123718261719 6 L -276.96484375 1 L -277.2153625488281 1.1102230246251565e-16 L -278.21734619140625 -4 L -279.4698181152344 -9 L -280.7222900390625 -14 L -281.9742736816406 -18.99799919128418 L -281.97479248046875 -19 L -282.7149963378906 -21.954999923706055 L -283.44671630859375 -24 L -285 -28.34114646911621 L -285.2357482910156 -29 L -285.5935363769531 -30 L -287.0247802734375 -34 L -287.382568359375 -35 L -288.8138122558594 -39 L -289.1716003417969 -40 M 58 80 L 55.27548599243164 80 L 54.24781036376953 80 L 53.00299835205078 80 L 47.99800109863281 80 L 43.00299835205078 80 L 41.9332389831543 80 L 40.90525436401367 80 L 38 80 L 38 -43.99599838256836 L 40.90525436401367 -43.99599838256836 L 41.9332389831543 -43.99599838256836 L 43.00299835205078 -43.99599838256836 L 43.00299835205078 -48.99800109863281 L 47.99800109863281 -48.99800109863281 L 47.99800109863281 -43.99599838256836 L 53.00299835205078 -43.99599838256836 L 53.00299835205078 -48.99800109863281 L 54.24781036376953 -48.99800109863281 L 55.27548599243164 -48.99800109863281 L 58 -48.99800109863281 L 58 80 M 59 -43.99700164794922 L 61.91400146484375 -43.99700164794922 L 62.96039962768555 -43.99700164794922 L 64.00299835205078 -43.99700164794922 L 64.00299835205078 -49 L 68.99800109863281 -49 L 68.99800109863281 -43.99700164794922 L 74.00299835205078 -43.99700164794922 L 74.00299835205078 -49 L 74.46077728271484 -49 L 75.50775909423828 -49 L 79 -49 L 79 79.99800109863281 L 75.50775909423828 79.99800109863281 L 74.46077728271484 79.99800109863281 L 74.00299835205078 79.99800109863281 L 68.99800109863281 79.99800109863281 L 64.00299835205078 79.99800109863281 L 62.96039962768555 79.99800109863281 L 61.91400146484375 79.99800109863281 L 59 79.99800109863281 L 59 -43.99700164794922 M 37 85 L 34.09360885620117 85 L 33.07689666748047 85 L 32.00299835205078 85 L 32.00299835205078 79.99800109863281 L 26.99799919128418 79.99800109863281 L 26.99799919128418 85 L 22.003000259399414 85 L 22.003000259399414 79.99800109863281 L 21.908126831054688 79.99800109863281 L 20.89109230041504 79.99800109863281 L 17 79.99800109863281 L 17 -43.99700164794922 L 20.89109230041504 -43.99700164794922 L 21.908126831054688 -43.99700164794922 L 22.003000259399414 -43.99700164794922 L 22.003000259399414 -49 L 26.99799919128418 -49 L 26.99799919128418 -43.99700164794922 L 32.00299835205078 -43.99700164794922 L 32.00299835205078 -49 L 33.07689666748047 -49 L 34.09360885620117 -49 L 37 -49 L 37 85 M 100 79.99800109863281 L 96.57847595214844 79.99800109863281 L 95.52603149414062 79.99800109863281 L 95.00299835205078 79.99800109863281 L 89.99800109863281 79.99800109863281 L 85.00299835205078 79.99800109863281 L 83.96041107177734 79.99800109863281 L 82.90833282470703 79.99800109863281 L 80 79.99800109863281 L 80 -43.99700164794922 L 82.90833282470703 -43.99700164794922 L 83.96041107177734 -43.99700164794922 L 85.00299835205078 -43.99700164794922 L 85.00299835205078 -49 L 89.99800109863281 -49 L 89.99800109863281 -43.99700164794922 L 95.00299835205078 -43.99700164794922 L 95.00299835205078 -49 L 95.52603149414062 -49 L 96.57847595214844 -49 L 100 -49 L 100 79.99800109863281 M 120.00199890136719 161.0030059814453 L 121 161.0030059814453 L 122 161.0030059814453 L 125 161.0030059814453 L 125 186 L 122 186 L 121 186 L 120.00199890136719 186 L 117.4229965209961 186 L 116.41699981689453 186 L 115.00199890136719 186 L 110.00199890136719 186 L 105.00199890136719 186 L 101 186 L 100.00199890136719 186 L 100 186 L 95.0009994506836 186 L 90.0009994506836 186 L 85.0009994506836 186 L 80.0009994506836 186 L 80 186 L 79 186 L 75.0009994506836 186 L 70.0009994506836 186 L 65.0009994506836 186 L 60.000999450683594 186 L 59 186 L 58 186 L 55 186 L 50 186 L 45 186 L 40 186 L 38 186 L 37 186 L 35 186 L 30 186 L 25 186 L 20 186 L 17 186 L 15.920000076293945 186 L 14.99899959564209 186 L 9.99899959564209 186 L 4.999000072479248 186 L 0 186 L -0.0010000000474974513 186 L -2 186 L -5.000999927520752 186 L -10.00100040435791 186 L -15 186 L -15.00100040435791 186 L -20 186 L -20.000999450683594 186 L -25 186 L -25.00200080871582 186 L -30 186 L -30.00200080871582 186 L -35 186 L -35.00199890136719 186 L -40.00199890136719 186 L -45.00199890136719 186 L -50.00199890136719 186 L -55 186 L -55.00199890136719 186 L -60.00299835205078 186 L -65.00299835205078 186 L -68 186 L -70.00299835205078 186 L -73 186 L -75 186 L -75.00299835205078 186 L -78 186 L -80 186 L -80.57662200927734 186 L -83 186 L -84.08000183105469 186 L -85 186 L -85.08000183105469 186 L -88 186 L -90 186 L -95 186 L -100.88571166992188 186 L -102.51496124267578 186 L -108 186 L -123.03748321533203 186 L -125.9319839477539 186 L -128 186 L -133 186 L -138 186 L -143 186 L -148 186 L -161 186 L -184 186 L -185.0800018310547 186 L -196.13270568847656 186 L -201.233154296875 186 L -222.9980010986328 186 L -223.8982696533203 186 L -227.99600219726562 186 L -227.99600219726562 181.00900268554688 L -232.9969940185547 181.00900268554688 L -232.9969940185547 186 L -237.9980010986328 186 L -237.9980010986328 181.00900268554688 L -242.99899291992188 181.00900268554688 L -242.99899291992188 186 L -243.0030059814453 186 L -248 186 L -248 181.00900268554688 L -253 181.00900268554688 L -253 186 L -258.0010070800781 186 L -258.0010070800781 181.00900268554688 L -263.00201416015625 181.00900268554688 L -263.00201416015625 186 L -267.99798583984375 186 L -268.00299072265625 186 L -268.00299072265625 181.00900268554688 L -273.00299072265625 181.00900268554688 L -273.0039978027344 181.00900268554688 L -273.0039978027344 186 L -278.0050048828125 186 L -278.0050048828125 181.00900268554688 L -283.00299072265625 181.00900268554688 L -283.00299072265625 186 L -298.0798034667969 186 L -284.2236633300781 161.0030059814453 L -244.42584228515625 89.2061767578125 L -240.57342529296875 82.2562484741211 L -238.7182159423828 78.9094009399414 L -238.66409301757812 78.81175994873047 L -220.64309692382812 92.177490234375 L -210.78500366210938 99.48899841308594 L -185.0800018310547 114.89576721191406 L -184 115.5430908203125 L -180.06100463867188 117.90399932861328 L -161 126.91883087158203 L -148 133.06712341308594 L -147.68099975585938 133.21800231933594 L -143 134.89297485351562 L -138 136.68209838867188 L -133 138.47122192382812 L -128 140.26034545898438 L -124.74103546142578 141.42648315429688 L -121.97929382324219 142.41470336914062 L -119.53009033203125 143.2910919189453 L -113.95500183105469 145.28599548339844 L -111.39604949951172 145.9269561767578 L -108 146.77757263183594 L -95 150.03375244140625 L -90 151.2861328125 L -88 151.78707885742188 L -85.08000183105469 152.51846313476562 L -85 152.5384979248047 L -84.08000183105469 152.76893615722656 L -83 153.03944396972656 L -80 153.79087829589844 L -79.20899963378906 153.98899841308594 L -78 154.16835021972656 L -75 154.6133575439453 L -73 154.91004943847656 L -68 155.65174865722656 L -55 157.58016967773438 L -50.00199890136719 158.3215789794922 L -45.00199890136719 159.0632781982422 L -43.777000427246094 159.2449951171875 L -35 159.67628479003906 L -30.00200080871582 159.921875 L -30 159.92196655273438 L -25.00200080871582 160.1675567626953 L -25 160.16766357421875 L -20.000999450683594 160.41329956054688 L -20 160.41334533691406 L -15.00100040435791 160.6589813232422 L -15 160.65904235839844 L -10.00100040435791 160.90467834472656 L -8 161.0030059814453 L -5.000999927520752 161.0030059814453 L -5.000999927520752 166.0030059814453 L -2 166.0030059814453 L -0.0010000000474974513 166.0030059814453 L -0.0010000000474974513 161.0030059814453 L 0 161.0030059814453 L 4.999000072479248 161.0030059814453 L 4.999000072479248 166.0030059814453 L 9.99899959564209 166.0030059814453 L 9.99899959564209 161.0030059814453 L 14.99899959564209 161.0030059814453 L 14.99899959564209 166.0030059814453 L 15.920000076293945 166.0030059814453 L 17 166.0030059814453 L 20 166.0030059814453 L 20 161.0030059814453 L 25 161.0030059814453 L 25 166.0030059814453 L 30 166.0030059814453 L 30 161.0030059814453 L 35 161.0030059814453 L 35 166.0030059814453 L 37 166.0030059814453 L 38 166.0030059814453 L 40 166.0030059814453 L 40 161.0030059814453 L 45 161.0030059814453 L 45 166.0030059814453 L 50 166.0030059814453 L 50 161.0030059814453 L 55 161.0030059814453 L 55 166.0030059814453 L 58 166.0030059814453 L 59 166.0030059814453 L 60.000999450683594 166.0030059814453 L 60.000999450683594 161.0030059814453 L 65.0009994506836 161.0030059814453 L 65.0009994506836 166.0030059814453 L 70.0009994506836 166.0030059814453 L 70.0009994506836 161.0030059814453 L 75.0009994506836 161.0030059814453 L 75.0009994506836 166.0030059814453 L 79 166.0030059814453 L 80 166.0030059814453 L 80.0009994506836 166.0030059814453 L 80.0009994506836 161.0030059814453 L 85.0009994506836 161.0030059814453 L 85.0009994506836 166.0030059814453 L 90.0009994506836 166.0030059814453 L 90.0009994506836 161.0030059814453 L 95.0009994506836 161.0030059814453 L 95.0009994506836 166.0030059814453 L 100 166.0030059814453 L 100.00199890136719 166.0030059814453 L 100.00199890136719 161.0030059814453 L 101 161.0030059814453 L 105.00199890136719 161.0030059814453 L 105.00199890136719 166.0030059814453 L 110.00199890136719 166.0030059814453 L 110.00199890136719 161.0030059814453 L 115.00199890136719 161.0030059814453 L 115.00199890136719 166.0030059814453 L 116.41699981689453 166.0030059814453 L 117.4229965209961 166.0030059814453 L 120.00199890136719 166.0030059814453 L 120.00199890136719 161.0030059814453 M -182 26 L -185.0800018310547 26 L -187 26 L -187 31 L -185.0800018310547 31 L -182 31 L -182 36 L -185.0800018310547 36 L -187 36 L -187 41 L -185.0800018310547 41 L -182 41 L -182 46 L -185.0800018310547 46 L -187 46 L -187 51 L -185.0800018310547 51 L -182 51 L -182 56 L -185.0800018310547 56 L -187 56 L -187 61 L -185.0800018310547 61 L -182 61 L -182 66 L -185.0800018310547 66 L -187 66 L -187 71 L -185.0800018310547 71 L -182 71 L -182 76 L -185.0800018310547 76 L -187 76 L -187.39088439941406 76 L -187.63644409179688 71 L -187.8820037841797 66 L -188.1275634765625 61 L -188.37310791015625 56 L -188.61866760253906 51 L -188.7550048828125 48.2239990234375 L -189.0849151611328 46 L -189.8266143798828 41 L -190.5683135986328 36 L -191.3100128173828 31 L -192.0517120361328 26 L -192.79342651367188 21 L -193.53512573242188 16 L -194.01100158691406 12.791999816894531 L -194.4598846435547 11 L -195.71237182617188 6 L -196.96485900878906 1 L -197.21534729003906 1.1102230246251565e-16 L -198.2173309326172 -4 L -199.46981811523438 -9 L -200.72230529785156 -14 L -201.9742889404297 -18.99799919128418 L -201.9747772216797 -19 L -202.71499633789062 -21.954999923706055 L -203.44671630859375 -24 L -205.23574829101562 -29 L -207.02476501464844 -34 L -208.8137969970703 -39 L -210.6028289794922 -44 L -212.39186096191406 -49 L -209.4896697998047 -49 L -187 -49 L -187 -44 L -187 -39 L -185.0800018310547 -39 L -182 -39 L -182 -34 L -185.0800018310547 -34 L -186.38999938964844 -34 L -186.38999938964844 -34.00299835205078 L -187 -34.00299835205078 L -197.39500427246094 -34.00299835205078 L -197.39500427246094 -34 L -197.39500427246094 -29 L -197.39500427246094 -28.99799919128418 L -187 -28.99799919128418 L -186.38999938964844 -28.99799919128418 L -186.38999938964844 -29 L -185.0800018310547 -29 L -182 -29 L -182 -24 L -185.0800018310547 -24 L -186.38999938964844 -24 L -186.38999938964844 -24.003000259399414 L -187 -24.003000259399414 L -197.39500427246094 -24.003000259399414 L -197.39500427246094 -24 L -197.39500427246094 -19 L -197.39500427246094 -18.99799919128418 L -187 -18.99799919128418 L -186.38999938964844 -18.99799919128418 L -186.38999938964844 -19 L -185.0800018310547 -19 L -182 -19 L -182 -14 L -185.0800018310547 -14 L -187 -14 L -187 -9 L -185.0800018310547 -9 L -182 -9 L -182 -4 L -185.0800018310547 -4 L -187 -4 L -187 1.1102230246251565e-16 L -187 1 L -185.0800018310547 1 L -182 1 L -182 6 L -185.0800018310547 6 L -187 6 L -187 11 L -185.0800018310547 11 L -182 11 L -182 16 L -185.0800018310547 16 L -187 16 L -187 21 L -185.0800018310547 21 L -182 21 L -182 26 M 179.0019989013672 -49 L 184 -49 L 184 79.99800109863281 L 179.0019989013672 79.99800109863281 L 173.9969940185547 79.99800109863281 L 169.0019989013672 79.99800109863281 L 167.85801696777344 79.99800109863281 L 166.72512817382812 79.99800109863281 L 164 79.99800109863281 L 164 -43.99700164794922 L 166.72512817382812 -43.99700164794922 L 167.85801696777344 -43.99700164794922 L 169.0019989013672 -43.99700164794922 L 169.0019989013672 -49 L 173.9969940185547 -49 L 173.9969940185547 -43.99700164794922 L 179.0019989013672 -43.99700164794922 L 179.0019989013672 -49 M 101 -43.99599838256836 L 103.83134460449219 -43.99599838256836 L 104.92636108398438 -43.99599838256836 L 106.00199890136719 -43.99599838256836 L 106.00199890136719 -48.99800109863281 L 110.99700164794922 -48.99800109863281 L 110.99700164794922 -43.99599838256836 L 115.8728256225586 -43.99599838256836 L 116.00199890136719 -43.99599838256836 L 116.00199890136719 -48.99800109863281 L 116.96808624267578 -48.99800109863281 L 121 -48.99800109863281 L 121 80 L 116.96808624267578 80 L 116.00199890136719 80 L 115.8728256225586 80 L 110.99700164794922 80 L 106.00199890136719 80 L 104.92636108398438 80 L 103.83134460449219 80 L 101 80 L 101 -43.99599838256836 M -192.99899291992188 120.28227233886719 L -193.1698455810547 120.19142150878906 L -194.00399780273438 119.74787139892578 L -194.77496337890625 119.33792114257812 L -199.1901092529297 116.99020385742188 L -201.5374755859375 121.40501403808594 L -197.1215362548828 123.75314331054688 L -194.77499389648438 119.33799743652344 L -194.00399780273438 119.74794006347656 L -193.16973876953125 120.19152069091797 L -192.99899291992188 120.28230285644531 L -192.06130981445312 120.78087615966797 L -192.99899291992188 120.28227233886719 M -206.00399780273438 113.36698913574219 L -208.02000427246094 112.29499816894531 L -209.98985290527344 116.00052642822266 L -210.36700439453125 116.70999908447266 L -208.39781188964844 117.75709533691406 L -206.00399780273438 119.02998352050781 L -205.95339965820312 119.056884765625 L -204.99899291992188 117.26188659667969 L -203.60604858398438 114.64208221435547 L -204.99899291992188 113.9013900756836 L -206.00399780273438 113.36698913574219 M -155.07699584960938 -20.00200080871582 L -155.08099365234375 -20.00200080871582 L -160.08099365234375 -20.00200080871582 L -160.08200073242188 -20.00200080871582 L -160.08200073242188 -14.996999740600586 L -160.08099365234375 -14.996999740600586 L -155.08099365234375 -14.996999740600586 L -155.07699584960938 -14.996999740600586 L -155.07699584960938 -20.00200080871582 M -22.99799919128418 112.53199768066406 L -22.99799919128418 112.5270004272461 L -22.99799919128418 107.5270004272461 L -27.99799919128418 107.5270004272461 L -27.99799919128418 112.5270004272461 L -27.99799919128418 112.53199768066406 L -26.04265594482422 112.53199768066406 L -22.99799919128418 112.53199768066406 M -51.22615432739258 160.9980010986328 L -55 160.9980010986328 L -55.00199890136719 160.9980010986328 L -55.00199890136719 161.0030059814453 L -55.00199890136719 166.0030059814453 L -55 166.0030059814453 L -50.00199890136719 166.0030059814453 L -50.00199890136719 161.0030059814453 L -50.00199890136719 160.9980010986328 L -51.22615432739258 160.9980010986328 M -32.99800109863281 107.5270004272461 L -35 107.5270004272461 L -37.999000549316406 107.5270004272461 L -37.999000549316406 112.5270004272461 L -37.999000549316406 112.53199768066406 L -35 112.53199768066406 L -32.99800109863281 112.53199768066406 L -32.99800109863281 112.5270004272461 L -32.99800109863281 107.5270004272461 M -73 160.9980010986328 L -75 160.9980010986328 L -75.00299835205078 160.9980010986328 L -75.00299835205078 161.0030059814453 L -75.00299835205078 166.0030059814453 L -75 166.0030059814453 L -73 166.0030059814453 L -70.00299835205078 166.0030059814453 L -70.00299835205078 161.0030059814453 L -70.00299835205078 160.9980010986328 L -70.04524230957031 160.9980010986328 L -73 160.9980010986328 M 12.041606903076172 112.53199768066406 L 15.920000076293945 112.53199768066406 L 17 112.53199768066406 L 17.003000259399414 112.53199768066406 L 17.003000259399414 112.5270004272461 L 17.003000259399414 107.5270004272461 L 17 107.5270004272461 L 15.920000076293945 107.5270004272461 L 12.003000259399414 107.5270004272461 L 12.003000259399414 112.5270004272461 L 12.003000259399414 112.53199768066406 L 12.041606903076172 112.53199768066406 M -155.07699584960938 44.99800109863281 L -155.08099365234375 44.99800109863281 L -160.08099365234375 44.99800109863281 L -160.08200073242188 44.99800109863281 L -160.08200073242188 50.00299835205078 L -160.08099365234375 50.00299835205078 L -155.08099365234375 50.00299835205078 L -155.07699584960938 50.00299835205078 L -155.07699584960938 44.99800109863281 M -31.959592819213867 160.9980010986328 L -35 160.9980010986328 L -35.00199890136719 160.9980010986328 L -35.00199890136719 161.0030059814453 L -35.00199890136719 166.0030059814453 L -35 166.0030059814453 L -30.00200080871582 166.0030059814453 L -30.00200080871582 161.0030059814453 L -30.00200080871582 160.9980010986328 L -31.959592819213867 160.9980010986328 M -165.07699584960938 -40.00199890136719 L -165.08200073242188 -40.00199890136719 L -165.08200073242188 -38.99700164794922 L -165.07699584960938 -38.99700164794922 L -161.07699584960938 -38.99700164794922 L -161.07699584960938 -40.00199890136719 L -165.07699584960938 -40.00199890136719 M -20.000999450683594 160.9980010986328 L -25 160.9980010986328 L -25.00200080871582 160.9980010986328 L -25.00200080871582 161.0030059814453 L -25.00200080871582 166.0030059814453 L -25 166.0030059814453 L -20.000999450683594 166.0030059814453 L -20.000999450683594 161.0030059814453 L -20.000999450683594 160.9980010986328 M 205.0019989013672 -34.0989990234375 L 204.99899291992188 -34.0989990234375 L 199.99899291992188 -34.0989990234375 L 199.9980010986328 -34.0989990234375 L 199.9980010986328 -29.097999572753906 L 199.99899291992188 -29.097999572753906 L 204.99899291992188 -29.097999572753906 L 205.0019989013672 -29.097999572753906 L 205.0030059814453 -29.097999572753906 L 205.0030059814453 -34.0989990234375 L 205.0019989013672 -34.0989990234375 M -10.00100040435791 160.9980010986328 L -15 160.9980010986328 L -15.00100040435791 160.9980010986328 L -15.00100040435791 161.0030059814453 L -15.00100040435791 166.0030059814453 L -15 166.0030059814453 L -10.00100040435791 166.0030059814453 L -10.00100040435791 161.0030059814453 L -10.00100040435791 160.9980010986328 M -165.07699584960938 44.99800109863281 L -165.08200073242188 44.99800109863281 L -170.08200073242188 44.99800109863281 L -170.08200073242188 50.00299835205078 L -165.08200073242188 50.00299835205078 L -165.07699584960938 50.00299835205078 L -165.07699584960938 44.99800109863281 M 37.90412902832031 115.82172393798828 L 38 115.27754211425781 L 38.06092071533203 114.9317398071289 L 38.48456954956055 112.5270004272461 L 38.57794189453125 111.99700164794922 L 38.64699935913086 111.6050033569336 L 38 111.49087524414062 L 37 111.31449127197266 L 33.723548889160156 110.73656463623047 L 33.408016204833984 112.5270004272461 L 33.217987060546875 113.60528564453125 L 32.855262756347656 115.66351318359375 L 37 116.39459228515625 L 37.77899932861328 116.53199768066406 L 37.90412902832031 115.82172393798828 M -160.08099365234375 40.00299835205078 L -160.08099365234375 -0.0020000000949947916 L -160.08200073242188 -0.0020000000949947916 L -165.07699584960938 -0.0020000000949947916 L -165.08200073242188 -0.0020000000949947916 L -165.08200073242188 40.00299835205078 L -165.07699584960938 40.00299835205078 L -160.08200073242188 40.00299835205078 L -160.08099365234375 40.00299835205078 M -111.79740905761719 159.51144409179688 L -111.656982421875 158.90321350097656 L -110.67253875732422 154.63934326171875 L -115.54299926757812 153.51499938964844 L -116.16300964355469 156.20245361328125 L -116.66699981689453 158.38699340820312 L -111.79740905761719 159.51144409179688 M -217.18907165527344 106.99002075195312 L -217.54676818847656 107.66262817382812 L -219.536865234375 111.40486907958984 L -215.1248779296875 113.75090026855469 L -213.9803009033203 111.5976791381836 L -212.77781677246094 109.33553314208984 L -217.18907165527344 106.99002075195312 M -178.82603454589844 133.1916961669922 L -176.77676391601562 129.33743286132812 L -181.18797302246094 126.99181365966797 L -182.6443634033203 129.73101806640625 L -183.53538513183594 131.4068603515625 L -179.12413024902344 133.7523651123047 L -178.82603454589844 133.1916961669922 M -141.3399658203125 150.9946746826172 L -139.83554077148438 146.36666870117188 L -143 145.3385772705078 L -144.58758544921875 144.82278442382812 L -145.57272338867188 147.85533142089844 L -146.13246154785156 149.5783233642578 L -143 150.59619140625 L -141.3813934326172 151.12213134765625 L -141.3399658203125 150.9946746826172 M -150.89224243164062 148.03167724609375 L -149.8128662109375 144.7105255126953 L -149.34683227539062 143.2765655517578 L -153.61663818359375 141.8893585205078 L -154.1009979248047 141.73199462890625 L -155.64599609375 146.48699951171875 L -150.89224243164062 148.03167724609375 M -65.00299835205078 161.0030059814453 L -65.00299835205078 166.0030059814453 L -60.00299835205078 166.0030059814453 L -60.00299835205078 161.0030059814453 L -60.00299835205078 160.9980010986328 L -65.00299835205078 160.9980010986328 L -65.00299835205078 161.0030059814453 M -58.99700164794922 103.5270004272461 L -58.999000549316406 103.5270004272461 L -63.00199890136719 103.5270004272461 L -63.00199890136719 104.53199768066406 L -58.999000549316406 104.53199768066406 L -58.99700164794922 104.53199768066406 L -58.99700164794922 103.5270004272461 M -82.08300018310547 182.81500244140625 L -80.0152816772461 182.81500244140625 L -80 182.81500244140625 L -78.0780029296875 182.81500244140625 L -78.0780029296875 181.80999755859375 L -79.8381576538086 181.80999755859375 L -80 181.80999755859375 L -82.08300018310547 181.80999755859375 L -82.08300018310547 182.81500244140625 M -63.082000732421875 -41.00199890136719 L -63.082000732421875 -40.00199890136719 L -59.082000732421875 -40.00199890136719 L -59.082000732421875 -41.00199890136719 L -63.082000732421875 -41.00199890136719 M -81.8727035522461 164.53131103515625 L -81.25051879882812 161.0030059814453 L -81.0042495727539 159.6063995361328 L -83 159.25450134277344 L -84.08000183105469 159.06407165527344 L -85 158.90185546875 L -85.08000183105469 158.88775634765625 L -85.92433166503906 158.73887634277344 L -86.32350158691406 161.0030059814453 L -86.79261779785156 163.66383361816406 L -85.08000183105469 163.96580505371094 L -85 163.9799041748047 L -84.08000183105469 164.14212036132812 L -83 164.33255004882812 L -81.8727035522461 164.53131103515625 M -63.082000732421875 76.00299835205078 L -63.082000732421875 77.00299835205078 L -59.082000732421875 77.00299835205078 L -59.082000732421875 76.00299835205078 L -63.082000732421875 76.00299835205078 M -7.998000144958496 112.5270004272461 L -7.998000144958496 112.53199768066406 L -2.997999906539917 112.53199768066406 L -2.997999906539917 112.5270004272461 L -2.997999906539917 107.5270004272461 L -7.998000144958496 107.5270004272461 L -7.998000144958496 112.5270004272461 M -74.0780029296875 -0.0020000000949947916 L -74.0780029296875 40.00299835205078 L -69.0790023803711 40.00299835205078 L -69.0780029296875 40.00299835205078 L -69.0780029296875 -0.0020000000949947916 L -69.0790023803711 -0.0020000000949947916 L -74.0780029296875 -0.0020000000949947916 M -39.08300018310547 181.80999755859375 L -39.08300018310547 182.81500244140625 L -35.077999114990234 182.81500244140625 L -35.077999114990234 181.80999755859375 L -39.08300018310547 181.80999755859375 M -64.0770034790039 40.00299835205078 L -59.07899856567383 40.00299835205078 L -59.07699966430664 40.00299835205078 L -59.07699966430664 -0.0020000000949947916 L -59.07899856567383 -0.0020000000949947916 L -64.0770034790039 -0.0020000000949947916 L -64.0770034790039 40.00299835205078 M -84.0780029296875 -0.0020000000949947916 L -84.0780029296875 40.00299835205078 L -79.0790023803711 40.00299835205078 L -79.0780029296875 40.00299835205078 L -79.0780029296875 -0.0020000000949947916 L -79.0790023803711 -0.0020000000949947916 L -84.0780029296875 -0.0020000000949947916 M -63.922000885009766 90.71499633789062 L -63.922000885009766 91.72000122070312 L -59.917999267578125 91.72000122070312 L -59.917999267578125 90.71499633789062 L -63.922000885009766 90.71499633789062 M -34.99800109863281 170.0030059814453 L -34.99800109863281 168.9980010986328 L -35 168.9980010986328 L -35.00199890136719 168.9980010986328 L -39.00299835205078 168.9980010986328 L -39.00299835205078 170.0030059814453 L -35.00199890136719 170.0030059814453 L -35 170.0030059814453 L -34.99800109863281 170.0030059814453 M -20.07699966430664 -40.00199890136719 L -20.07699966430664 -41.00199890136719 L -24.077999114990234 -41.00199890136719 L -24.077999114990234 -40.00199890136719 L -20.07699966430664 -40.00199890136719 M -20.07699966430664 77.00299835205078 L -20.07699966430664 76.00299835205078 L -24.077999114990234 76.00299835205078 L -24.077999114990234 77.00299835205078 L -20.07699966430664 77.00299835205078 M -18.91699981689453 91.72000122070312 L -18.91699981689453 90.71499633789062 L -22.922000885009766 90.71499633789062 L -22.922000885009766 91.72000122070312 L -18.91699981689453 91.72000122070312 M 12.92300033569336 72.99800109863281 L 11.918000221252441 72.99800109863281 L 11.918000221252441 77.00299835205078 L 12.92300033569336 77.00299835205078 L 12.92300033569336 72.99800109863281 M -18.996999740600586 104.53199768066406 L -18.996999740600586 103.5270004272461 L -22.99799919128418 103.5270004272461 L -23.00200080871582 103.5270004272461 L -23.00200080871582 104.53199768066406 L -22.99799919128418 104.53199768066406 L -18.996999740600586 104.53199768066406 M -190.0189971923828 122.2959976196289 L -190.28854370117188 122.80284118652344 L -192.36700439453125 126.71099853515625 L -187.95335388183594 129.0577850341797 L -186.468505859375 126.26507568359375 L -185.60586547851562 124.64263916015625 L -190.0189971923828 122.2959976196289 M -12.998000144958496 107.5270004272461 L -17.99799919128418 107.5270004272461 L -17.99799919128418 112.5270004272461 L -17.99799919128418 112.53199768066406 L -12.998000144958496 112.53199768066406 L -12.998000144958496 112.5270004272461 L -12.998000144958496 107.5270004272461 M -228.3679962158203 106.70899963378906 L -223.95477294921875 109.0556869506836 L -221.60781860351562 104.64053344726562 L -226.02099609375 102.29399871826172 L -228.3679962158203 106.70899963378906 M -202.08299255371094 182.81500244140625 L -199.54000854492188 182.81500244140625 L -198.0780029296875 182.81500244140625 L -198.0780029296875 181.80999755859375 L -199.00575256347656 181.80999755859375 L -202.08299255371094 181.80999755859375 L -202.08299255371094 182.81500244140625 M -45.00199890136719 161.0030059814453 L -45.00199890136719 166.0030059814453 L -40.00199890136719 166.0030059814453 L -40.00199890136719 161.0030059814453 L -40.00199890136719 160.9980010986328 L -45.00199890136719 160.9980010986328 L -45.00199890136719 161.0030059814453 M 0.9169999957084656 182.81500244140625 L 4.921999931335449 182.81500244140625 L 4.921999931335449 181.80999755859375 L 0.9169999957084656 181.80999755859375 L 0.9169999957084656 182.81500244140625 M -253.0030059814453 178.81399536132812 L -248.9980010986328 178.81399536132812 L -248.9980010986328 177.8090057373047 L -253.0030059814453 177.8090057373047 L -253.0030059814453 178.81399536132812 M 4.001999855041504 168.9980010986328 L 0 168.9980010986328 L -0.0010000000474974513 168.9980010986328 L -0.003000000026077032 168.9980010986328 L -0.003000000026077032 170.0030059814453 L -0.0010000000474974513 170.0030059814453 L 0 170.0030059814453 L 4.001999855041504 170.0030059814453 L 4.001999855041504 168.9980010986328 M 2.003000020980835 112.53199768066406 L 7.002999782562256 112.53199768066406 L 7.002999782562256 112.5270004272461 L 7.002999782562256 107.5270004272461 L 2.003000020980835 107.5270004272461 L 2.003000020980835 112.5270004272461 L 2.003000020980835 112.53199768066406 M -273.00299072265625 171.01100158691406 L -267.99798583984375 171.01100158691406 L -267.99798583984375 166.00900268554688 L -273.00299072265625 166.00900268554688 L -273.00299072265625 171.01100158691406 M -163.3438720703125 136.91595458984375 L -165.37815856933594 141.48410034179688 L -161 143.4334259033203 L -160.8133544921875 143.51654052734375 L -158.7799530029297 138.94813537597656 L -161 137.95960998535156 L -163.3438720703125 136.91595458984375 M 229.9980010986328 -29.097999572753906 L 230.0019989013672 -29.097999572753906 L 235.0019989013672 -29.097999572753906 L 235.0030059814453 -29.097999572753906 L 235.0030059814453 -34.0989990234375 L 235.0019989013672 -34.0989990234375 L 230.0019989013672 -34.0989990234375 L 229.9980010986328 -34.0989990234375 L 229.9980010986328 -29.097999572753906 M -47.922000885009766 93.5270004272461 L -47.922000885009766 97.53199768066406 L -46.91699981689453 97.53199768066406 L -46.91699981689453 93.5270004272461 L -47.922000885009766 93.5270004272461 M -174.41445922851562 137.19004821777344 L -174.51499938964844 137.41600036621094 L -173.82736206054688 137.72216796875 L -169.94944763183594 139.4487762451172 L -167.9155731201172 134.8802947998047 L -172.48199462890625 132.8470001220703 L -174.41445922851562 137.19004821777344 M 226.3560028076172 101.2030029296875 L 225.49000549316406 100.7030029296875 L 223.48899841308594 104.16799926757812 L 224.3560028076172 104.66799926757812 L 226.3560028076172 101.2030029296875 M -164.0019989013672 90.71499633789062 L -164.0019989013672 91.72000122070312 L -161 91.72000122070312 L -159.9969940185547 91.72000122070312 L -159.9969940185547 90.71499633789062 L -161 90.71499633789062 L -164.0019989013672 90.71499633789062 M -164.0019989013672 104.53199768066406 L -161 104.53199768066406 L -159.9969940185547 104.53199768066406 L -159.9969940185547 103.5270004272461 L -161 103.5270004272461 L -164.0019989013672 103.5270004272461 L -164.0019989013672 104.53199768066406 M -237.9980010986328 166.00900268554688 L -243.0030059814453 166.00900268554688 L -243.0030059814453 171.01100158691406 L -237.9980010986328 171.01100158691406 L -237.9980010986328 166.00900268554688 M -39.922000885009766 97.53199768066406 L -38.91699981689453 97.53199768066406 L -38.91699981689453 93.5270004272461 L -39.922000885009766 93.5270004272461 L -39.922000885009766 97.53199768066406 M -176.42300415039062 97.72000122070312 L -175.41799926757812 97.72000122070312 L -175.41799926757812 93.71499633789062 L -176.42300415039062 93.71499633789062 L -176.42300415039062 97.72000122070312 M 214.9029998779297 -39.99800109863281 L 214.9029998779297 -41.00299835205078 L 210.8979949951172 -41.00299835205078 L 210.8979949951172 -39.99800109863281 L 214.9029998779297 -39.99800109863281 M -155.0780029296875 182.81500244140625 L -155.0780029296875 181.80999755859375 L -159.08299255371094 181.80999755859375 L -159.08299255371094 182.81500244140625 L -155.0780029296875 182.81500244140625 M 194.48699951171875 154.22500610351562 L 192.48599243164062 157.68899536132812 L 192.5574188232422 157.7301788330078 L 193.35299682617188 158.18899536132812 L 195.35299682617188 154.72500610351562 L 194.55796813964844 154.26597595214844 L 194.48699951171875 154.22500610351562 M -133 153.78480529785156 L -131.87620544433594 154.12840270996094 L -130.41441345214844 149.34634399414062 L -133 148.55580139160156 L -135.08140563964844 147.91941833496094 L -135.19400024414062 147.88499450683594 L -136.65338134765625 152.658447265625 L -136.656005859375 152.66700744628906 L -136.62660217285156 152.67599487304688 L -133 153.78480529785156 M 139.44993591308594 77.00299835205078 L 139.44993591308594 72.99800109863281 L 138.3161163330078 72.99800109863281 L 138.3161163330078 77.00299835205078 L 139.44993591308594 77.00299835205078 M -98.99700164794922 103.5270004272461 L -99 103.5270004272461 L -103.00199890136719 103.5270004272461 L -103.00199890136719 104.53199768066406 L -99 104.53199768066406 L -98.99700164794922 104.53199768066406 L -98.99700164794922 103.5270004272461 M 125.8583755493164 72.99800109863281 L 124.72523498535156 72.99800109863281 L 124.72523498535156 77.00299835205078 L 125.8583755493164 77.00299835205078 L 125.8583755493164 72.99800109863281 M 116.96808624267578 77.00499725341797 L 116.96808624267578 73 L 116.00199890136719 73 L 115.8728256225586 73 L 115.8728256225586 77.00499725341797 L 116.00199890136719 77.00499725341797 L 116.96808624267578 77.00499725341797 M 117.4229965209961 175.80999755859375 L 116.41699981689453 175.80999755859375 L 116.41699981689453 179.81500244140625 L 117.4229965209961 179.81500244140625 L 117.4229965209961 175.80999755859375 M -103.00199890136719 91.72000122070312 L -99 91.72000122070312 L -98.99700164794922 91.72000122070312 L -98.99700164794922 90.71499633789062 L -99 90.71499633789062 L -103.00199890136719 90.71499633789062 L -103.00199890136719 91.72000122070312 M 96.57847595214844 72.99800109863281 L 95.52603149414062 72.99800109863281 L 95.52603149414062 77.00299835205078 L 96.57847595214844 77.00299835205078 L 96.57847595214844 72.99800109863281 M -127.09028625488281 155.5916748046875 L -122.31224822998047 157.0525360107422 L -121.14044189453125 153.21913146972656 L -120.85044860839844 152.27047729492188 L -124.67325592041016 151.10166931152344 L -125.62849426269531 150.8096160888672 L -127.09028625488281 155.5916748046875 M -115.0780029296875 181.80999755859375 L -119.08300018310547 181.80999755859375 L -119.08300018310547 182.81500244140625 L -115.0780029296875 182.81500244140625 L -115.0780029296875 181.80999755859375 M 75.50775909423828 77.00299835205078 L 75.50775909423828 72.99800109863281 L 74.46077728271484 72.99800109863281 L 74.46077728271484 77.00299835205078 L 75.50775909423828 77.00299835205078 M -95.7750015258789 157.0019989013672 L -95.8994140625 157.70790100097656 L -96.48014831542969 161.0030059814453 L -96.64299774169922 161.927001953125 L -95 162.21669006347656 L -91.72063446044922 162.794921875 L -91.40470886230469 161.0030059814453 L -91.21441650390625 159.9236602783203 L -90.85234832763672 157.86996459960938 L -95 157.13864135742188 L -95.7750015258789 157.0019989013672 M 104.9229965209961 182.81500244140625 L 104.9229965209961 181.80999755859375 L 101 181.80999755859375 L 100.91699981689453 181.80999755859375 L 100.91699981689453 182.81500244140625 L 101 182.81500244140625 L 104.9229965209961 182.81500244140625 M 54.24781036376953 77.00499725341797 L 55.27548599243164 77.00499725341797 L 55.27548599243164 73 L 54.24781036376953 73 L 54.24781036376953 77.00499725341797 M -106.92161560058594 160.63731384277344 L -105.33797454833984 161.0030059814453 L -102.05362701416016 161.7613983154297 L -101.87849426269531 161.0030059814453 L -100.92840576171875 156.8887481689453 L -105.79645538330078 155.7649688720703 L -106.92161560058594 160.63731384277344 M 104.92636108398438 73 L 103.83134460449219 73 L 103.83134460449219 77.00499725341797 L 104.92636108398438 77.00499725341797 L 104.92636108398438 73 M 50.99800109863281 109.00199890136719 L 52.00299835205078 109.00199890136719 L 52.00299835205078 104.99700164794922 L 50.99800109863281 104.99700164794922 L 50.99800109863281 109.00199890136719 M 41.9332389831543 73 L 40.90525436401367 73 L 40.90525436401367 77.00499725341797 L 41.9332389831543 77.00499725341797 L 41.9332389831543 73 M -115.0790023803711 40.00299835205078 L -110.08000183105469 40.00299835205078 L -110.0790023803711 40.00299835205078 L -110.0790023803711 -0.0020000000949947916 L -110.08000183105469 -0.0020000000949947916 L -115.0790023803711 -0.0020000000949947916 L -115.0790023803711 40.00299835205078 M -125.08000183105469 -0.0020000000949947916 L -125.08000183105469 40.00299835205078 L -120.08000183105469 40.00299835205078 L -120.08000183105469 -0.0020000000949947916 L -125.08000183105469 -0.0020000000949947916 M 105.00199890136719 168.9980010986328 L 101 168.9980010986328 L 100.99700164794922 168.9980010986328 L 100.99700164794922 170.0030059814453 L 101 170.0030059814453 L 105.00199890136719 170.0030059814453 L 105.00199890136719 168.9980010986328 M 52.00299835205078 92.99700164794922 L 50.99800109863281 92.99700164794922 L 50.99800109863281 97.00199890136719 L 52.00299835205078 97.00199890136719 L 52.00299835205078 92.99700164794922 M -135.0800018310547 40.00299835205078 L -130.08099365234375 40.00299835205078 L -130.0800018310547 40.00299835205078 L -130.0800018310547 -0.0020000000949947916 L -130.08099365234375 -0.0020000000949947916 L -135.0800018310547 -0.0020000000949947916 L -135.0800018310547 40.00299835205078 M 43.077999114990234 97.53199768066406 L 44.08300018310547 97.53199768066406 L 44.08300018310547 93.5270004272461 L 43.077999114990234 93.5270004272461 L 43.077999114990234 97.53199768066406 M 44.08300018310547 109.53199768066406 L 44.08300018310547 105.5270004272461 L 43.077999114990234 105.5270004272461 L 43.077999114990234 109.53199768066406 L 44.08300018310547 109.53199768066406 M -155.08099365234375 -10.001999855041504 L -160.08099365234375 -10.001999855041504 L -160.08200073242188 -10.001999855041504 L -160.08200073242188 -4.997000217437744 L -160.08099365234375 -4.997000217437744 L -155.08099365234375 -4.997000217437744 L -155.07699584960938 -4.997000217437744 L -155.07699584960938 -10.001999855041504 L -155.08099365234375 -10.001999855041504 M -100.0770034790039 75.99800109863281 L -100.0790023803711 75.99800109863281 L -100.08000183105469 75.99800109863281 L -104.08200073242188 75.99800109863281 L -104.08200073242188 77.00299835205078 L -100.08000183105469 77.00299835205078 L -100.0790023803711 77.00299835205078 L -100.0770034790039 77.00299835205078 L -100.0770034790039 75.99800109863281 M 82.90833282470703 72.99800109863281 L 82.90833282470703 77.00299835205078 L 83.96041107177734 77.00299835205078 L 83.96041107177734 72.99800109863281 L 82.90833282470703 72.99800109863281 M -100.0790023803711 40.00299835205078 L -100.0790023803711 -0.0020000000949947916 L -100.08000183105469 -0.0020000000949947916 L -105.0790023803711 -0.0020000000949947916 L -105.0790023803711 40.00299835205078 L -100.08000183105469 40.00299835205078 L -100.0790023803711 40.00299835205078 M 52.00299835205078 118.99700164794922 L 50.99800109863281 118.99700164794922 L 50.99800109863281 121.05068969726562 L 50.99800109863281 123.00199890136719 L 52.00299835205078 123.00199890136719 L 52.00299835205078 121.52603149414062 L 52.00299835205078 118.99700164794922 M 43.922000885009766 181.80999755859375 L 40 181.80999755859375 L 39.917999267578125 181.80999755859375 L 39.917999267578125 182.81500244140625 L 40 182.81500244140625 L 43.922000885009766 182.81500244140625 L 43.922000885009766 181.80999755859375 M -140.08099365234375 -0.0020000000949947916 L -145.08099365234375 -0.0020000000949947916 L -145.08099365234375 40.00299835205078 L -140.08099365234375 40.00299835205078 L -140.08099365234375 -0.0020000000949947916 M 61.91400146484375 77.00299835205078 L 62.96039962768555 77.00299835205078 L 62.96039962768555 72.99800109863281 L 61.91400146484375 72.99800109863281 L 61.91400146484375 77.00299835205078 M -155.07699584960938 -0.0020000000949947916 L -155.08099365234375 -0.0020000000949947916 L -155.08099365234375 40.00299835205078 L -155.07699584960938 40.00299835205078 L -150.08099365234375 40.00299835205078 L -150.08099365234375 -0.0020000000949947916 L -155.07699584960938 -0.0020000000949947916 M 43.077999114990234 119.5270004272461 L 43.077999114990234 122.77709197998047 L 43.077999114990234 123.53199768066406 L 44.08300018310547 123.53199768066406 L 44.08300018310547 123.13670349121094 L 44.08300018310547 119.5270004272461 L 43.077999114990234 119.5270004272461 M -155.07699584960938 54.99800109863281 L -155.08099365234375 54.99800109863281 L -160.08099365234375 54.99800109863281 L -160.08200073242188 54.99800109863281 L -160.08200073242188 60.00299835205078 L -160.08099365234375 60.00299835205078 L -155.08099365234375 60.00299835205078 L -155.07699584960938 60.00299835205078 L -155.07699584960938 54.99800109863281 M 40 170.0030059814453 L 44.00199890136719 170.0030059814453 L 44.00199890136719 168.9980010986328 L 40 168.9980010986328 L 39.99700164794922 168.9980010986328 L 39.99700164794922 170.0030059814453 L 40 170.0030059814453 M -165.08200073242188 -20.00200080871582 L -170.08200073242188 -20.00200080871582 L -170.08200073242188 -14.996999740600586 L -165.08200073242188 -14.996999740600586 L -165.07699584960938 -14.996999740600586 L -165.07699584960938 -20.00200080871582 L -165.08200073242188 -20.00200080871582 M 34.09360885620117 72.99800109863281 L 33.07689666748047 72.99800109863281 L 33.07689666748047 77.00299835205078 L 34.09360885620117 77.00299835205078 L 34.09360885620117 72.99800109863281 M 20.89109230041504 77.00299835205078 L 21.908126831054688 77.00299835205078 L 21.908126831054688 72.99800109863281 L 20.89109230041504 72.99800109863281 L 20.89109230041504 77.00299835205078 M -165.07699584960938 -10.001999855041504 L -165.08200073242188 -10.001999855041504 L -170.08200073242188 -10.001999855041504 L -170.08200073242188 -4.997000217437744 L -165.08200073242188 -4.997000217437744 L -165.07699584960938 -4.997000217437744 L -165.07699584960938 -10.001999855041504 M 20.077999114990234 91.72000122070312 L 21.836984634399414 91.72000122070312 L 24.08300018310547 91.72000122070312 L 24.08300018310547 90.71499633789062 L 22.0140380859375 90.71499633789062 L 20.077999114990234 90.71499633789062 L 20.077999114990234 91.72000122070312 M -165.07699584960938 54.99800109863281 L -165.08200073242188 54.99800109863281 L -170.08200073242188 54.99800109863281 L -170.08200073242188 60.00299835205078 L -165.08200073242188 60.00299835205078 L -165.07699584960938 60.00299835205078 L -165.07699584960938 54.99800109863281 M 27.926332473754883 114.79412078857422 L 28.325870513916016 112.5270004272461 L 28.794618606567383 109.8671646118164 L 23.87361717224121 108.9991683959961 L 23.251901626586914 112.5270004272461 L 23.00533103942871 113.92611694335938 L 27.926332473754883 114.79412078857422 M -165.07699584960938 75.99800109863281 L -165.08200073242188 75.99800109863281 L -165.08200073242188 77.00299835205078 L -165.07699584960938 77.00299835205078 L -161.07699584960938 77.00299835205078 L -161.07699584960938 75.99800109863281 L -165.07699584960938 75.99800109863281 M 177.3509979248047 180.7259979248047 L 176.48500061035156 180.2259979248047 L 175.50274658203125 181.92726135253906 L 174.48500061035156 183.69000244140625 L 175.3509979248047 184.19000244140625 L 176.20809936523438 182.70550537109375 L 177.3509979248047 180.7259979248047 M -104.08200073242188 -40.00199890136719 L -104.08200073242188 -38.99700164794922 L -100.08000183105469 -38.99700164794922 L -100.0790023803711 -38.99700164794922 L -100.0770034790039 -38.99700164794922 L -100.0770034790039 -40.00199890136719 L -100.0790023803711 -40.00199890136719 L -100.08000183105469 -40.00199890136719 L -104.08200073242188 -40.00199890136719 M 167.85801696777344 72.99800109863281 L 166.72512817382812 72.99800109863281 L 166.72512817382812 77.00299835205078 L 167.85801696777344 77.00299835205078 L 167.85801696777344 72.99800109863281 M 159.31663513183594 77.00299835205078 L 160.44989013671875 77.00299835205078 L 160.44989013671875 72.99800109863281 L 159.31663513183594 72.99800109863281 L 159.31663513183594 77.00299835205078 M 146.85919189453125 72.99800109863281 L 145.72592163085938 72.99800109863281 L 145.72592163085938 77.00299835205078 L 146.85919189453125 77.00299835205078 L 146.85919189453125 72.99800109863281 M -95.0790023803711 -0.0020000000949947916 L -95.0790023803711 40.00299835205078 L -90.08000183105469 40.00299835205078 L -90.0780029296875 40.00299835205078 L -90.0780029296875 -0.0020000000949947916 L -90.08000183105469 -0.0020000000949947916 L -95.0790023803711 -0.0020000000949947916 z" fill="none" stroke="rgb(255,0,0)" stroke-width="0.001mm" />
</svg>