<?xml version="1.0" standalone="no"?>
<!DOCTYPE svg PUBLIC "-//W3C//DTD SVG 1.1//EN"
  "http://www.w3.org/Graphics/SVG/1.1/DTD/svg11.dtd">
<svg width="587mm" height="246.188232421875mm" viewBox="-341 -51 587 246.188232421875" xmlns="http://www.w3.org/2000/svg" version="1.1">
	<title>svgOutput</title>
	<desc>made with tinkercad</desc>
<path d="M -182 -34 L -185.0800018310547 -34 L -186.38999938964844 -34 L -186.38999938964844 -34.00299835205078 L -187 -34.00299835205078 L -197.39500427246094 -34.00299835205078 L -197.39500427246094 -34 L -197.39500427246094 -29 L -197.39500427246094 -28.99799919128418 L -187 -28.99799919128418 L -186.38999938964844 -28.99799919128418 L -186.38999938964844 -29 L -185.0800018310547 -29 L -182 -29 L -182 -24 L -185.0800018310547 -24 L -186.38999938964844 -24 L -186.38999938964844 -24.003000259399414 L -187 -24.003000259399414 L -197.39500427246094 -24.003000259399414 L -197.39500427246094 -24 L -197.39500427246094 -19 L -197.39500427246094 -18.99799919128418 L -187 -18.99799919128418 L -186.38999938964844 -18.99799919128418 L -186.38999938964844 -19 L -185.0800018310547 -19 L -182 -19 L -182 -14 L -185.0800018310547 -14 L -187 -14 L -187 -9 L -185.0800018310547 -9 L -182 -9 L -182 -4 L -185.0800018310547 -4 L -187 -4 L -187 1.1102230246251565e-16 L -187 1 L -185.0800018310547 1 L -182 1 L -182 6 L -185.0800018310547 6 L -187 6 L -187 11 L -185.0800018310547 11 L -182 11 L -182 16 L -185.0800018310547 16 L -187 16 L -187 17 L -187 21 L -185.0800018310547 21 L -182 21 L -182 26 L -185.0800018310547 26 L -187 26 L -187 31 L -185.0800018310547 31 L -182 31 L -182 36 L -185.0800018310547 36 L -187 36 L -187 41 L -185.0800018310547 41 L -182 41 L -182 46 L -185.0800018310547 46 L -187 46 L -187 51 L -185.0800018310547 51 L -182 51 L -182 56 L -185.0800018310547 56 L -187 56 L -187 61 L -185.0800018310547 61 L -182 61 L -182 66 L -185.0800018310547 66 L -187 66 L -187 70.00199890136719 L -187 71 L -185.0800018310547 71 L -182 71 L -182 76 L -185.0800018310547 76 L -187 76 L -187.39088439941406 76 L -187.63644409179688 71 L -187.68545532226562 70.00199890136719 L -187.8820037841797 66 L -188.1275634765625 61 L -188.37310791015625 56 L -188.61866760253906 51 L -188.7550048828125 48.2239990234375 L -189.0849151611328 46 L -189.8266143798828 41 L -190.5683135986328 36 L -191.3100128173828 31 L -192.0517120361328 26 L -192.79342651367188 21 L -193.38677978515625 17 L -193.53512573242188 16 L -194.01100158691406 12.791999816894531 L -194.4598846435547 11 L -195.71237182617188 6 L -196.96485900878906 1 L -197.21534729003906 1.1102230246251565e-16 L -198.2173309326172 -4 L -199.46981811523438 -9 L -200.72230529785156 -14 L -201.9742889404297 -18.99799919128418 L -201.9747772216797 -19 L -202.71499633789062 -21.954999923706055 L -203.44671630859375 -24 L -205.23574829101562 -29 L -207.02476501464844 -34 L -208.8137969970703 -39 L -210.6028289794922 -44 L -212.39186096191406 -49 L -209.4896697998047 -49 L -187 -49 L -187 -44 L -187 -39 L -185.0800018310547 -39 L -182 -39 L -182 -34 M -260 6 L -260 1 L -255 1 L -255 1.1102230246251565e-16 L -255 -4 L -260 -4 L -260 -9 L -255 -9 L -255 -14 L -260 -14 L -260 -19 L -255 -19 L -255 -24 L -260 -24 L -260 -29 L -255 -29 L -255 -34 L -260 -34 L -260 -39 L -255 -39 L -255 -44 L -260 -44 L -260 -49 L -255 -49 L -254.60911560058594 -49 L -254.36355590820312 -44 L -254.1179962158203 -39 L -253.8724365234375 -34 L -253.62689208984375 -29 L -253.38133239746094 -24 L -253.2449951171875 -21.224000930786133 L -252.9150848388672 -19 L -252.1733856201172 -14 L -251.4316864013672 -9 L -250.6899871826172 -4 L -250.09661865234375 1.1102230246251565e-16 L -249.9482879638672 1 L -249.20657348632812 6 L -248.46487426757812 11 L -247.98899841308594 14.208000183105469 L -247.5401153564453 16 L -247.28961181640625 17 L -246.28762817382812 21 L -245.03514099121094 26 L -243.7826690673828 31 L -242.53018188476562 36 L -241.27769470214844 41 L -240.0252227783203 46 L -239.28500366210938 48.95500183105469 L -238.55328369140625 51 L -236.76425170898438 56 L -234.97523498535156 61 L -233.43490600585938 65.304931640625 L -233.1862030029297 66 L -231.75425720214844 70.00199890136719 L -231.3971710205078 71 L -229.60813903808594 76 L -232.5103302001953 76 L -238.82273864746094 76 L -239.36325073242188 76 L -255 76 L -255 71 L -255 66 L -260 66 L -260 61.00299835205078 L -260 61 L -255.61099243164062 61 L -255.61099243164062 61.00299835205078 L -255 61.00299835205078 L -244.6060028076172 61.00299835205078 L -244.6060028076172 61 L -244.6060028076172 56 L -244.6060028076172 55.99800109863281 L -255 55.99800109863281 L -255.61099243164062 55.99800109863281 L -255.61099243164062 56 L -260 56 L -260 55.99800109863281 L -260 51.00299835205078 L -260 51 L -255.61099243164062 51 L -255.61099243164062 51.00299835205078 L -255 51.00299835205078 L -244.6060028076172 51.00299835205078 L -244.6060028076172 51 L -244.6060028076172 46 L -244.6060028076172 45.99800109863281 L -255 45.99800109863281 L -255.61099243164062 45.99800109863281 L -255.61099243164062 46 L -260 46 L -260 45.99800109863281 L -260 41 L -255 41 L -255 36 L -260 36 L -260 31 L -255 31 L -255 26 L -260 26 L -260 21 L -255 21 L -255 17 L -255 16 L -260 16 L -260 11 L -255 11 L -255 6 L -260 6 M -300 6 L -300 5 L -300 1 L -295 1 L -295 1.1102230246251565e-16 L -295 -4 L -300 -4 L -300 -5 L -300 -9 L -295 -9 L -295 -10 L -295 -14 L -300 -14 L -300 -15 L -300 -19 L -295 -19 L -295 -20 L -295 -24 L -300 -24 L -300 -25 L -300 -29 L -295 -29 L -295 -30 L -295 -34 L -300 -34 L -300 -35 L -300 -39 L -295 -39 L -295 -40 L -295 -44 L -300 -44 L -300 -49 L -295 -49 L -294.6091003417969 -49 L -294.3635559082031 -44 L -294.1671142578125 -40 L -294.1180114746094 -39 L -293.92156982421875 -35 L -293.8724365234375 -34 L -293.6759948730469 -30 L -293.62689208984375 -29 L -293.4304504394531 -25 L -293.38134765625 -24 L -293.2449951171875 -21.224000930786133 L -293.0634460449219 -20 L -292.91510009765625 -19 L -292.32171630859375 -15 L -292.17340087890625 -14 L -291.58001708984375 -10 L -291.4316711425781 -9 L -290.83831787109375 -5 L -290.6899719238281 -4 L -290.09661865234375 1.1102230246251565e-16 L -289.9482727050781 1 L -289.35491943359375 5 L -289.2065734863281 6 L -288.61322021484375 10 L -288.4648742675781 11 L -287.989013671875 14.208000183105469 L -287.7906188964844 15 L -287.54010009765625 16 L -287.28961181640625 17 L -286.5381164550781 20 L -286.2876281738281 21 L -285.28564453125 25 L -285.03515625 26 L -285 26.140304565429688 L -283.78265380859375 31 L -282.5301818847656 36 L -281.4584655761719 40.278343200683594 L -281.2777099609375 41 L -280.02520751953125 46 L -279.2850036621094 48.95500183105469 L -278.55328369140625 51 L -276.7642517089844 56 L -274.9752197265625 61 L -273.1861877441406 66 L -271.3971862792969 71 L -269.608154296875 76 L -272.51031494140625 76 L -278.82275390625 76 L -295 76 L -295 71 L -295 66 L -295.6961669921875 66 L -300 66 L -300 65 L -300 61.00299835205078 L -300 61 L -295.6109924316406 61 L -295.6109924316406 61.00299835205078 L -295 61.00299835205078 L -292.9302062988281 61.00299835205078 L -284.6059875488281 61.00299835205078 L -284.6059875488281 61 L -284.6059875488281 56 L -284.6059875488281 55.99800109863281 L -285 55.99800109863281 L -295 55.99800109863281 L -295.6109924316406 55.99800109863281 L -295.6109924316406 56 L -300 56 L -300 55.99800109863281 L -300 55 L -300 51.00299835205078 L -300 51 L -295.6109924316406 51 L -295.6109924316406 51.00299835205078 L -295 51.00299835205078 L -285 51.00299835205078 L -284.6059875488281 51.00299835205078 L -284.6059875488281 51 L -284.6059875488281 46 L -284.6059875488281 45.99800109863281 L -284.6244812011719 45.99800109863281 L -285 45.99800109863281 L -295 45.99800109863281 L -295.6109924316406 45.99800109863281 L -295.6109924316406 46 L -300 46 L -300 45.99800109863281 L -300 45 L -300 41 L -295 41 L -295 40 L -295 36 L -300 36 L -300 35 L -300 31 L -295 31 L -295 30 L -295 26 L -300 26 L -300 25 L -300 21 L -295 21 L -295 20 L -295 17 L -295 16 L -300 16 L -300 15 L -300 11 L -295 11 L -295 10 L -295 6 L -300 6 M -220.39199829101562 -4 L -220.39199829101562 -9 L -215.39199829101562 -9 L -215.39199829101562 -14 L -220.39199829101562 -14 L -220.39199829101562 -19 L -215.39199829101562 -19 L -215.39199829101562 -24 L -220.39199829101562 -24 L -220.39199829101562 -29 L -215.39199829101562 -29 L -215.39199829101562 -34 L -220.39199829101562 -34 L -220.39199829101562 -39 L -215.39199829101562 -39 L -215.39199829101562 -44 L -220.39199829101562 -44 L -220.39199829101562 -49 L -215.39199829101562 -49 L -215.00088500976562 -49 L -214.75518798828125 -44 L -214.50949096679688 -39 L -214.2637939453125 -34 L -214.0181121826172 -29 L -213.7724151611328 -24 L -213.63600158691406 -21.224000930786133 L -213.30615234375 -19 L -212.56459045410156 -14 L -211.82302856445312 -9 L -211.0814666748047 -4 L -210.48822021484375 1.1102230246251565e-16 L -210.33990478515625 1 L -209.5983428955078 6 L -208.85678100585938 11 L -208.38099670410156 14.208000183105469 L -207.93211364746094 16 L -207.68161010742188 17 L -207.36337280273438 18.270431518554688 L -206.67962646484375 21 L -205.42713928222656 26 L -204.17466735839844 31 L -202.92218017578125 36 L -201.66969299316406 41 L -200.41722106933594 46 L -199.677001953125 48.95500183105469 L -198.94528198242188 51 L -197.15626525878906 56 L -195.3672332763672 61 L -193.5782012939453 66 L -192.14625549316406 70.00199890136719 L -191.78916931152344 71 L -190.00013732910156 76 L -192.90232849121094 76 L -199.21649169921875 76 L -215.39199829101562 76 L -215.39199829101562 71 L -215.39199829101562 70.00199890136719 L -215.39199829101562 66 L -220.39199829101562 66 L -220.39199829101562 61.00299835205078 L -220.39199829101562 61 L -216.0019989013672 61 L -216.0019989013672 61.00299835205078 L -215.39199829101562 61.00299835205078 L -204.9969940185547 61.00299835205078 L -204.9969940185547 61 L -204.9969940185547 56 L -204.9969940185547 55.99800109863281 L -215.39199829101562 55.99800109863281 L -216.0019989013672 55.99800109863281 L -216.0019989013672 56 L -220.39199829101562 56 L -220.39199829101562 55.99800109863281 L -220.39199829101562 51.00299835205078 L -220.39199829101562 51 L -216.0019989013672 51 L -216.0019989013672 51.00299835205078 L -215.39199829101562 51.00299835205078 L -204.9969940185547 51.00299835205078 L -204.9969940185547 51 L -204.9969940185547 46 L -204.9969940185547 45.99800109863281 L -215.39199829101562 45.99800109863281 L -216.0019989013672 45.99800109863281 L -216.0019989013672 46 L -220.39199829101562 46 L -220.39199829101562 45.99800109863281 L -220.39199829101562 41.774803161621094 L -220.39199829101562 41 L -219.9625244140625 41 L -215.39199829101562 41 L -215.39199829101562 36 L -217.1909942626953 36 L -220.39199829101562 36 L -220.39199829101562 31 L -215.39199829101562 31 L -215.39199829101562 26 L -220.39199829101562 26 L -220.39199829101562 21 L -215.39199829101562 21 L -215.39199829101562 17 L -215.39199829101562 16 L -220.39199829101562 16 L -220.39199829101562 11 L -215.39199829101562 11 L -215.39199829101562 6 L -220.39199829101562 6 L -220.39199829101562 1 L -215.39199829101562 1 L -215.39199829101562 1.1102230246251565e-16 L -215.39199829101562 -4 L -220.39199829101562 -4 M -262 1 L -262 6 L -267 6 L -267 11 L -262 11 L -262 16 L -267 16 L -267 17 L -267 21 L -262 21 L -262 26 L -267 26 L -267 31 L -262 31 L -262 36 L -267 36 L -267 41 L -262 41 L -262 46 L -267 46 L -267 51 L -262 51 L -262 56 L -267 56 L -267 61 L -262 61 L -262 66 L -267 66 L -267 71 L -262 71 L -262 76 L -267 76 L -267.3908996582031 76 L -267.6364440917969 71 L -267.8819885253906 66 L -268.1275634765625 61 L -268.37310791015625 56 L -268.61865234375 51 L -268.7550048828125 48.2239990234375 L -269.08489990234375 46 L -269.82659912109375 41 L -270.5683288574219 36 L -271.3100280761719 31 L -272.0517272949219 26 L -272.36944580078125 23.858203887939453 L -272.7934265136719 21 L -273.38677978515625 17 L -273.5351257324219 16 L -274.010986328125 12.791999816894531 L -274.45989990234375 11 L -275.7123718261719 6 L -276.96484375 1 L -277.2153625488281 1.1102230246251565e-16 L -278.21734619140625 -4 L -279.4698181152344 -9 L -280.7222900390625 -14 L -281.9742736816406 -18.99799919128418 L -281.97479248046875 -19 L -282.7149963378906 -21.954999923706055 L -283.44671630859375 -24 L -285 -28.34114646911621 L -285.2357482910156 -29 L -285.5935363769531 -30 L -287.0247802734375 -34 L -287.382568359375 -35 L -288.8138122558594 -39 L -289.1716003417969 -40 L -290.6028137207031 -44 L -292.391845703125 -49 L -289.48968505859375 -49 L -285 -49 L -267 -49 L -267 -44 L -267 -39 L -262 -39 L -262 -34.00299835205078 L -262 -34 L -266.3900146484375 -34 L -266.3900146484375 -34.00299835205078 L -267 -34.00299835205078 L -277.3949890136719 -34.00299835205078 L -277.3949890136719 -34 L -277.3949890136719 -29 L -277.3949890136719 -28.99799919128418 L -267 -28.99799919128418 L -266.3900146484375 -28.99799919128418 L -266.3900146484375 -29 L -262 -29 L -262 -28.99799919128418 L -262 -24.003000259399414 L -262 -24 L -266.3900146484375 -24 L -266.3900146484375 -24.003000259399414 L -267 -24.003000259399414 L -277.3949890136719 -24.003000259399414 L -277.3949890136719 -24 L -277.3949890136719 -19 L -277.3949890136719 -18.99799919128418 L -267 -18.99799919128418 L -266.3900146484375 -18.99799919128418 L -266.3900146484375 -19 L -262 -19 L -262 -18.99799919128418 L -262 -14 L -267 -14 L -267 -9 L -262 -9 L -262 -4 L -267 -4 L -267 1.1102230246251565e-16 L -267 1 L -262 1 M -302 10 L -302 11 L -302 15 L -307 15 L -307 16 L -307 17 L -307 20 L -302 20 L -302 21 L -302 25 L -307 25 L -307 26 L -307 30 L -302 30 L -302 31 L -302 35 L -307 35 L -307 36 L -307 40 L -302 40 L -302 41 L -302 45 L -307 45 L -307 46 L -307 50 L -302 50 L -302 51 L -302 55 L -307 55 L -307 56 L -307 60 L -302 60 L -302 61 L -302 65 L -307 65 L -307 66 L -307 70 L -302 70 L -302 71 L -302 75 L -307 75 L -307.3908996582031 75 L -307.58734130859375 71 L -307.6364440917969 70 L -307.8328857421875 66 L -307.8819885253906 65 L -308.07843017578125 61 L -308.1275634765625 60 L -308.3240051269531 56 L -308.37310791015625 55 L -308.5695495605469 51 L -308.61865234375 50 L -308.7550048828125 47.2239990234375 L -308.9365539550781 46 L -309.08489990234375 45 L -309.67828369140625 41 L -309.82659912109375 40 L -309.9209899902344 39.363704681396484 L -310.5683288574219 35 L -311.3100280761719 30 L -312.0517272949219 25 L -312.7934265136719 20 L -313.5351257324219 15 L -314.010986328125 11.791999816894531 L -314.45989990234375 10 L -315.7123718261719 5 L -316.96484375 1.1102230246251565e-16 L -318.21734619140625 -5 L -319.4698181152344 -10 L -320.7222900390625 -15 L -321.9742736816406 -19.99799919128418 L -321.97479248046875 -20 L -322.7149963378906 -22.954999923706055 L -323.44671630859375 -25 L -325.2357482910156 -30 L -327.0247802734375 -35 L -328.8138122558594 -40 L -330.6028137207031 -45 L -332.391845703125 -50 L -329.48968505859375 -50 L -309.9209899902344 -50 L -307 -50 L -307 -49 L -307 -44 L -307 -40 L -302 -40 L -302 -39 L -302 -35.00299835205078 L -302 -35 L -306.3900146484375 -35 L -306.3900146484375 -35.00299835205078 L -307 -35.00299835205078 L -309.9209899902344 -35.00299835205078 L -317.3949890136719 -35.00299835205078 L -317.3949890136719 -35 L -317.3949890136719 -30 L -317.3949890136719 -29.99799919128418 L -309.9209899902344 -29.99799919128418 L -307 -29.99799919128418 L -306.3900146484375 -29.99799919128418 L -306.3900146484375 -30 L -302 -30 L -302 -29.99799919128418 L -302 -29 L -302 -25.003000259399414 L -302 -25 L -306.3900146484375 -25 L -306.3900146484375 -25.003000259399414 L -307 -25.003000259399414 L -309.9209899902344 -25.003000259399414 L -317.3949890136719 -25.003000259399414 L -317.3949890136719 -25 L -317.3949890136719 -20 L -317.3949890136719 -19.99799919128418 L -309.9209899902344 -19.99799919128418 L -307 -19.99799919128418 L -306.3900146484375 -19.99799919128418 L -306.3900146484375 -20 L -302 -20 L -302 -19.99799919128418 L -302 -19 L -302 -15 L -307 -15 L -307 -14 L -307 -10 L -302 -10 L -302 -9 L -302 -5 L -307 -5 L -307 -4 L -307 1.1102230246251565e-16 L -302 1.1102230246251565e-16 L -302 1 L -302 5 L -307 5 L -307 6 L -307 10 L -302 10 M -222 1 L -222 6 L -227 6 L -227 11 L -222 11 L -222 16 L -227 16 L -227 17 L -227 21 L -222 21 L -222 26 L -227 26 L -227 31 L -222 31 L -222 36 L -227 36 L -227 41 L -222 41 L -222 44.675724029541016 L -222 46 L -222.7340545654297 46 L -227 46 L -227 51 L -225.50558471679688 51 L -222 51 L -222 56 L -227 56 L -227 61 L -222 61 L -222 66 L -227 66 L -227 70.00199890136719 L -227 71 L -222 71 L -222 76 L -227 76 L -227.39088439941406 76 L -227.63644409179688 71 L -227.68545532226562 70.00199890136719 L -227.8820037841797 66 L -228.1275634765625 61 L -228.36529541015625 56.15908432006836 L -228.37310791015625 56 L -228.61866760253906 51 L -228.7550048828125 48.2239990234375 L -229.0849151611328 46 L -229.8266143798828 41 L -230.5683135986328 36 L -231.3100128173828 31 L -232.0517120361328 26 L -232.79342651367188 21 L -233.38677978515625 17 L -233.53512573242188 16 L -234.01100158691406 12.791999816894531 L -234.4598846435547 11 L -235.71237182617188 6 L -236.96485900878906 1 L -237.21534729003906 1.1102230246251565e-16 L -238.2173309326172 -4 L -239.46981811523438 -9 L -240.72230529785156 -14 L -241.9742889404297 -18.99799919128418 L -241.9747772216797 -19 L -242.71499633789062 -21.954999923706055 L -243.44671630859375 -24 L -245.23574829101562 -29 L -247.02476501464844 -34 L -248.8137969970703 -39 L -250.6028289794922 -44 L -252.39186096191406 -49 L -249.4896697998047 -49 L -227 -49 L -227 -44 L -227 -39 L -222 -39 L -222 -34.00299835205078 L -222 -34 L -226.38999938964844 -34 L -226.38999938964844 -34.00299835205078 L -227 -34.00299835205078 L -237.39500427246094 -34.00299835205078 L -237.39500427246094 -34 L -237.39500427246094 -29 L -237.39500427246094 -28.99799919128418 L -227 -28.99799919128418 L -226.38999938964844 -28.99799919128418 L -226.38999938964844 -29 L -222 -29 L -222 -28.99799919128418 L -222 -24.003000259399414 L -222 -24 L -226.38999938964844 -24 L -226.38999938964844 -24.003000259399414 L -227 -24.003000259399414 L -237.39500427246094 -24.003000259399414 L -237.39500427246094 -24 L -237.39500427246094 -19 L -237.39500427246094 -18.99799919128418 L -227 -18.99799919128418 L -226.38999938964844 -18.99799919128418 L -226.38999938964844 -19 L -222 -19 L -222 -18.99799919128418 L -222 -14 L -227 -14 L -227 -9 L -222 -9 L -222 -4 L -227 -4 L -227 1.1102230246251565e-16 L -227 1 L -222 1 M -309.608154296875 75 L -309.9209899902344 75 L -312.51031494140625 75 L -318.82275390625 75 L -335 75 L -335 65 L -340 65 L -340 60.00299835205078 L -340 60 L -335.6109924316406 60 L -335.6109924316406 60.00299835205078 L -335 60.00299835205078 L -324.6059875488281 60.00299835205078 L -324.6059875488281 60 L -324.6059875488281 55 L -324.6059875488281 54.99800109863281 L -335 54.99800109863281 L -335.6109924316406 54.99800109863281 L -335.6109924316406 55 L -340 55 L -340 54.99800109863281 L -340 50.00299835205078 L -340 50 L -335.6109924316406 50 L -335.6109924316406 50.00299835205078 L -335 50.00299835205078 L -324.6059875488281 50.00299835205078 L -324.6059875488281 50 L -324.6059875488281 45 L -324.6059875488281 44.99800109863281 L -335 44.99800109863281 L -335.6109924316406 44.99800109863281 L -335.6109924316406 45 L -340 45 L -340 44.99800109863281 L -340 40 L -335 40 L -335 35 L -340 35 L -340 30 L -335 30 L -335 25 L -340 25 L -340 20 L -335 20 L -335 15 L -340 15 L -340 10 L -335 10 L -335 5 L -340 5 L -340 1.1102230246251565e-16 L -335 1.1102230246251565e-16 L -335 -5 L -340 -5 L -340 -10 L -335 -10 L -335 -15 L -340 -15 L -340 -20 L -335 -20 L -335 -25 L -340 -25 L -340 -30 L -335 -30 L -335 -35 L -340 -35 L -340 -40 L -335 -40 L -335 -45 L -340 -45 L -340 -50 L -335 -50 L -334.6091003417969 -50 L -334.3635559082031 -45 L -334.1180114746094 -40 L -333.8724365234375 -35 L -333.62689208984375 -30 L -333.38134765625 -25 L -333.2449951171875 -22.224000930786133 L -332.91510009765625 -20 L -332.17340087890625 -15 L -331.4316711425781 -10 L -330.6899719238281 -5 L -329.9482727050781 1.1102230246251565e-16 L -329.2065734863281 5 L -328.4648742675781 10 L -327.989013671875 13.208000183105469 L -327.54010009765625 15 L -326.2876281738281 20 L -325.03515625 25 L -323.78265380859375 30 L -322.5301818847656 35 L -321.2777099609375 40 L -320.02520751953125 45 L -319.2850036621094 47.95500183105469 L -318.55328369140625 50 L -316.7642517089844 55 L -314.9752197265625 60 L -313.1861877441406 65 L -309.9209899902344 74.12562561035156 L -309.608154296875 75 M 47.92300033569336 87.52899932861328 L 47.92300033569336 87 L 50.99800109863281 87 L 52.00299835205078 87 L 58 87 L 59 87 L 79 87 L 80 87 L 100 87 L 101 87 L 121 87 L 121.08000183105469 87 L 122 87 L 142 87 L 143.00100708007812 87 L 163.00100708007812 87 L 164 87 L 184 87 L 185 87 L 233.40333557128906 87 L 234.55398559570312 87 L 240.9998016357422 87 L 227.14366149902344 111.99700164794922 L 215.2162322998047 133.51455688476562 L 202.5521697998047 156.3610076904297 L 200.68699645996094 159.72586059570312 L 200.43194580078125 160.18600463867188 L 199.96798706054688 161.0229949951172 L 199.57200622558594 160.87100219726562 L 198.41600036621094 160.54299926757812 L 197.22900390625 160.31900024414062 L 196.0240020751953 160.19900512695312 L 194.81100463867188 160.18600463867188 L 193.60299682617188 160.27999877929688 L 192.41000366210938 160.47900390625 L 191.24600219726562 160.781005859375 L 190.1199951171875 161.18499755859375 L 189.04299926757812 161.68499755859375 L 188.02699279785156 162.2779998779297 L 187.53074645996094 162.63381958007812 L 187.0800018310547 162.95700073242188 L 186.21200561523438 163.71499633789062 L 186.0945281982422 163.83999633789062 L 185.43099975585938 164.54600524902344 L 185 165.10975646972656 L 184.74600219726562 165.44200134277344 L 184.16099548339844 166.3939971923828 L 184 166.7301483154297 L 183.68299865722656 167.39199829101562 L 183.31700134277344 168.427001953125 L 183.06700134277344 169.49000549316406 L 182.93299865722656 170.56900024414062 L 182.91900634765625 171.65499877929688 L 182.95523071289062 172.03199768066406 L 183.0229949951172 172.73699951171875 L 183.2449951171875 173.8040008544922 L 183.58399963378906 174.8470001220703 L 184 175.77883911132812 L 184.03399658203125 175.85499572753906 L 184.59300231933594 176.81900024414062 L 185 177.3784637451172 L 185.2550048828125 177.72900390625 L 186.01300048828125 178.57699584960938 L 186.86000061035156 179.35400390625 L 187.78799438476562 180.05299377441406 L 188.06678771972656 180.2239990234375 L 188.78900146484375 180.66700744628906 L 189.01678466796875 180.77938842773438 L 189.00547790527344 180.79978942871094 L 188.7886199951172 181.1909942626953 L 187.34584045410156 183.7938232421875 L 185 188.02581787109375 L 184 189.82986450195312 L 183.49342346191406 190.74374389648438 L 181.63821411132812 194.09059143066406 L 181.58409118652344 194.188232421875 L 164 181.14654541015625 L 163.00100708007812 180.40560913085938 L 153.7050018310547 173.51100158691406 L 143.00100708007812 167.095703125 L 142 166.4957733154297 L 122.98100280761719 155.0970001220703 L 122 154.6330108642578 L 121.08000183105469 154.1978759765625 L 121 154.1600341796875 L 101 144.7004852294922 L 100 144.22750854492188 L 90.60099792480469 139.78199768066406 L 80 135.9886932373047 L 79 135.63087463378906 L 59 128.47438049316406 L 58 128.11654663085938 L 56.875 127.71399688720703 L 48.86932373046875 125.70877838134766 L 47.92300033569336 125.47174835205078 L 47.92300033569336 125.37018585205078 L 47.92300033569336 124.51074981689453 L 47.92300033569336 120.56041717529297 L 47.92300033569336 119.59628295898438 L 47.92300033569336 112.5270004272461 L 47.92300033569336 111.99700164794922 L 47.92300033569336 87.52899932861328 M -45 111.83200073242188 L -45 112.17086791992188 L -49.99700164794922 111.92532348632812 L -51.99800109863281 111.8270034790039 L -52.999000549316406 111.8270034790039 L -54.99700164794922 111.8270034790039 L -54.99700164794922 106.8270034790039 L -55 106.8270034790039 L -59.99700164794922 106.8270034790039 L -59.99700164794922 111.8270034790039 L -64.99700164794922 111.8270034790039 L -64.99700164794922 106.8270034790039 L -69.99700164794922 106.8270034790039 L -69.99700164794922 111.8270034790039 L -74.99700164794922 111.8270034790039 L -74.99700164794922 106.8270034790039 L -79.99800109863281 106.8270034790039 L -79.99800109863281 111.8270034790039 L -84.99800109863281 111.8270034790039 L -84.99800109863281 106.8270034790039 L -85.08000183105469 106.8270034790039 L -88 106.8270034790039 L -89.99800109863281 106.8270034790039 L -89.99800109863281 111.8270034790039 L -94.99800109863281 111.8270034790039 L -94.99800109863281 106.8270034790039 L -99.99800109863281 106.8270034790039 L -99.99800109863281 111.8270034790039 L -104.99800109863281 111.8270034790039 L -104.99800109863281 106.8270034790039 L -109.99800109863281 106.8270034790039 L -109.99800109863281 111.8270034790039 L -114.99800109863281 111.8270034790039 L -114.99800109863281 106.8270034790039 L -117.41600036621094 106.8270034790039 L -118.4209976196289 106.8270034790039 L -119.9990005493164 106.8270034790039 L -119.9990005493164 111.8270034790039 L -124.9990005493164 111.8270034790039 L -124.9990005493164 106.8270034790039 L -128 106.8270034790039 L -129.99899291992188 106.8270034790039 L -129.99899291992188 111.8270034790039 L -131.07200622558594 111.8270034790039 L -134.99899291992188 111.8270034790039 L -134.99899291992188 106.8270034790039 L -139.99899291992188 106.8270034790039 L -139.99899291992188 111.8270034790039 L -144.99899291992188 111.8270034790039 L -144.99899291992188 106.8270034790039 L -149.99899291992188 106.8270034790039 L -149.99899291992188 111.8270034790039 L -154.99899291992188 111.8270034790039 L -154.99899291992188 106.8270034790039 L -160 106.8270034790039 L -160 111.8270034790039 L -161 111.8270034790039 L -165 111.8270034790039 L -165 106.8270034790039 L -170 106.8270034790039 L -170 111.8270034790039 L -175 111.8270034790039 L -175 106.8270034790039 L -180 106.8270034790039 L -180 111.8270034790039 L -184.9980010986328 111.8270034790039 L -184.9980010986328 86.8290023803711 L -180 86.8290023803711 L -175 86.8290023803711 L -170 86.8290023803711 L -165 86.8290023803711 L -161 86.8290023803711 L -160 86.8290023803711 L -154.99899291992188 86.8290023803711 L -128 86.8290023803711 L -124.9990005493164 86.8290023803711 L -119.9990005493164 86.8290023803711 L -118.4209976196289 86.8290023803711 L -117.41600036621094 86.8290023803711 L -114.99800109863281 86.8290023803711 L -109.99800109863281 86.8290023803711 L -104.99800109863281 86.8290023803711 L -99.99800109863281 86.8290023803711 L -94.99800109863281 86.8290023803711 L -89.99800109863281 86.8290023803711 L -88 86.8290023803711 L -85.08000183105469 86.8290023803711 L -84 86.8290023803711 L -64.99700164794922 86.8290023803711 L -59.99700164794922 86.8290023803711 L -55 86.8290023803711 L -49.99700164794922 86.8290023803711 L -45 86.8290023803711 L -45 87.52899932861328 L -45 106.8270034790039 L -47.915000915527344 106.8270034790039 L -48.91999816894531 106.8270034790039 L -49.99700164794922 106.8270034790039 L -49.99700164794922 111.8270034790039 L -49.99700164794922 111.83200073242188 L -45 111.83200073242188 M -53.999000549316406 86 L -55 86 L -58.999000549316406 86 L -58.999000549316406 80.99800109863281 L -63.99700164794922 80.99800109863281 L -63.999000549316406 80.99800109863281 L -63.999000549316406 86 L -68.9990005493164 86 L -68.9990005493164 80.99800109863281 L -73.9990005493164 80.99800109863281 L -73.9990005493164 86 L -78.9990005493164 86 L -78.9990005493164 80.99800109863281 L -84 80.99800109863281 L -84 70.00199890136719 L -84 17 L -84 -42.99700164794922 L -83.99800109863281 -42.99700164794922 L -78.9990005493164 -42.99700164794922 L -78.9990005493164 -48 L -78.99800109863281 -48 L -73.9990005493164 -48 L -73.9990005493164 -42.99700164794922 L -73.99800109863281 -42.99700164794922 L -68.9990005493164 -42.99700164794922 L -68.9990005493164 -48 L -68.99800109863281 -48 L -63.999000549316406 -48 L -63.999000549316406 -42.99700164794922 L -63.99700164794922 -42.99700164794922 L -58.999000549316406 -42.99700164794922 L -58.999000549316406 -48 L -58.99700164794922 -48 L -53.999000549316406 -48 L -53.999000549316406 -42.99700164794922 L -48.999000549316406 -42.99700164794922 L -48.999000549316406 -48 L -43.999000549316406 -48 L -43.999000549316406 -42.99700164794922 L -38.99800109863281 -42.99700164794922 L -38.99800109863281 -48 L -33.99800109863281 -48 L -33.99800109863281 -42.99700164794922 L -28.99799919128418 -42.99700164794922 L -28.99799919128418 -48 L -23.99799919128418 -48 L -23.99799919128418 -42.99700164794922 L -18.99799919128418 -42.99700164794922 L -18.99799919128418 -48 L -13.998000144958496 -48 L -13.998000144958496 -42.99700164794922 L -8.998000144958496 -42.99700164794922 L -8.998000144958496 -48 L -3.996999979019165 -48 L -3.996999979019165 -42.99700164794922 L 1.003000020980835 -42.99700164794922 L 1.003000020980835 -48 L 6.002999782562256 -48 L 6.002999782562256 -42.99700164794922 L 11.003000259399414 -42.99700164794922 L 11.003000259399414 -48 L 16 -48 L 16 17 L 16 70.00199890136719 L 16 86 L 13.003000259399414 86 L 11.998000144958496 86 L 11.07800006866455 86 L 11.003000259399414 86 L 11.003000259399414 80.99800109863281 L 6.002999782562256 80.99800109863281 L 6.002999782562256 86 L 1.003000020980835 86 L 1.003000020980835 80.99800109863281 L -2 80.99800109863281 L -3.996999979019165 80.99800109863281 L -3.996999979019165 86 L -8.998000144958496 86 L -8.998000144958496 80.99800109863281 L -11.920999526977539 80.99800109863281 L -13.998000144958496 80.99800109863281 L -13.998000144958496 86 L -18.99799919128418 86 L -18.99799919128418 80.99800109863281 L -23.99799919128418 80.99800109863281 L -23.99799919128418 86 L -28.99799919128418 86 L -28.99799919128418 80.99800109863281 L -33.99800109863281 80.99800109863281 L -33.99800109863281 86 L -35 86 L -38.99800109863281 86 L -38.99800109863281 80.99800109863281 L -43.999000549316406 80.99800109863281 L -43.999000549316406 86 L -48.999000549316406 86 L -48.999000549316406 80.99800109863281 L -53.999000549316406 80.99800109863281 L -53.999000549316406 86 M -42.99700164794922 112.87110900878906 L -42.99700164794922 112.5270004272461 L -42.99700164794922 87.52899932861328 L -39.99700164794922 87.52899932861328 L -39.922000885009766 87.52899932861328 L -38.91699981689453 87.52899932861328 L -37.999000549316406 87.52899932861328 L -35 87.52899932861328 L -32.99800109863281 87.52899932861328 L -27.99799919128418 87.52899932861328 L -22.99799919128418 87.52899932861328 L -17.99799919128418 87.52899932861328 L -12.998000144958496 87.52899932861328 L -11.920999526977539 87.52899932861328 L -7.998000144958496 87.52899932861328 L -2.997999906539917 87.52899932861328 L -2 87.52899932861328 L 2.003000020980835 87.52899932861328 L 7.002999782562256 87.52899932861328 L 12.003000259399414 87.52899932861328 L 16 87.52899932861328 L 17 87.52899932861328 L 17.003000259399414 87.52899932861328 L 22.575321197509766 87.52899932861328 L 37 87.52899932861328 L 38 87.52899932861328 L 42.888519287109375 87.52899932861328 L 43.077999114990234 87.52899932861328 L 44.08300018310547 87.52899932861328 L 46.99800109863281 87.52899932861328 L 46.99800109863281 111.99700164794922 L 46.99800109863281 112.5270004272461 L 46.99800109863281 119.15877532958984 L 46.99800109863281 120.12291717529297 L 46.99800109863281 124.17976379394531 L 46.99800109863281 125.03923034667969 L 46.99800109863281 125.24005889892578 L 46.99800109863281 126.00023651123047 L 38 123.74620819091797 L 37 123.4957046508789 L 21.208999633789062 119.54000091552734 L 17 118.91575622558594 L 0 116.39444732666016 L -2 116.09782409667969 L -2.997999906539917 115.9498062133789 L -7.998000144958496 115.20824432373047 L -11.920999526977539 114.62641143798828 L -12.998000144958496 114.46668243408203 L -14.222999572753906 114.28500366210938 L -17.99799919128418 114.09950256347656 L -22.99799919128418 113.85381317138672 L -27.99799919128418 113.6081314086914 L -32.99800109863281 113.36244201660156 L -35 113.26406860351562 L -37.999000549316406 113.11669921875 L -42.99700164794922 112.87110900878906 M -25 146 L -30 146 L -30 141 L -35 141 L -55 141 L -68 141 L -73 141 L -75 141 L -78 141 L -80 141 L -80 146 L -83 146 L -85 146 L -85 141 L -85.08000183105469 141 L -88 141 L -90 141 L -90 146 L -95 146 L -95 141 L -108 141 L -108 140.84803771972656 L -100.66699981689453 140.30999755859375 L -95.03387451171875 139.06341552734375 L -91.31300354003906 138.24000549316406 L -88 137.00241088867188 L -85.08000183105469 135.91162109375 L -83 135.13462829589844 L -82.13899993896484 134.81300354003906 L -78 132.60333251953125 L -75.13160705566406 131.07200622558594 L -75 131.00173950195312 L -75 131 L -73 131 L -68 131 L -55 131 L -50 131 L -35 131 L -35 131.00173950195312 L -27.861000061035156 134.81300354003906 L -18.687000274658203 138.24000549316406 L -11.920999526977539 139.73728942871094 L -9.333000183105469 140.30999755859375 L -2 140.84803771972656 L -2 141 L -11.920999526977539 141 L -15 141 L -15 146 L -20 146 L -20 141 L -25 141 L -25 146 M -185.0800018310547 -43.99700164794922 L -180.08200073242188 -43.99700164794922 L -180.08200073242188 -49 L -175.08200073242188 -49 L -175.08200073242188 -43.99700164794922 L -175.07699584960938 -43.99700164794922 L -170.08200073242188 -43.99700164794922 L -170.08200073242188 -49 L -165.08200073242188 -49 L -165.08200073242188 -43.99700164794922 L -165.07699584960938 -43.99700164794922 L -160.08200073242188 -43.99700164794922 L -160.08099365234375 -43.99700164794922 L -160.08099365234375 -49 L -155.08099365234375 -49 L -155.08099365234375 -43.99700164794922 L -155.07699584960938 -43.99700164794922 L -150.08099365234375 -43.99700164794922 L -150.08099365234375 -49 L -145.08099365234375 -49 L -145.08099365234375 -43.99700164794922 L -140.08099365234375 -43.99700164794922 L -140.08099365234375 -49 L -135.08099365234375 -49 L -135.08099365234375 -43.99700164794922 L -135.0800018310547 -43.99700164794922 L -130.08099365234375 -43.99700164794922 L -130.08099365234375 -49 L -130.0800018310547 -49 L -125.08100128173828 -49 L -125.08100128173828 -43.99700164794922 L -125.08000183105469 -43.99700164794922 L -120.08000183105469 -43.99700164794922 L -120.08000183105469 -49 L -115.08000183105469 -49 L -115.08000183105469 -43.99700164794922 L -115.0790023803711 -43.99700164794922 L -110.08000183105469 -43.99700164794922 L -110.08000183105469 -49 L -110.0790023803711 -49 L -105.08000183105469 -49 L -105.08000183105469 -43.99700164794922 L -105.0790023803711 -43.99700164794922 L -100.08000183105469 -43.99700164794922 L -100.08000183105469 -49 L -100.0790023803711 -49 L -95.08000183105469 -49 L -95.08000183105469 -43.99700164794922 L -95.0790023803711 -43.99700164794922 L -90.08000183105469 -43.99700164794922 L -90.08000183105469 -49 L -90.0780029296875 -49 L -85.08000183105469 -49 L -85.08000183105469 17 L -85.08000183105469 70.00199890136719 L -85.08000183105469 85 L -88 85 L -90.08000183105469 85 L -90.08000183105469 79.99800109863281 L -95.08000183105469 79.99800109863281 L -95.08000183105469 85 L -100.0790023803711 85 L -100.08000183105469 85 L -100.08000183105469 79.99800109863281 L -105.0790023803711 79.99800109863281 L -105.08000183105469 79.99800109863281 L -105.08000183105469 85 L -110.08000183105469 85 L -110.08000183105469 79.99800109863281 L -115.08000183105469 79.99800109863281 L -115.08000183105469 85 L -120.08000183105469 85 L -120.08000183105469 79.99800109863281 L -125.08100128173828 79.99800109863281 L -125.08100128173828 85 L -128 85 L -130.08099365234375 85 L -130.08099365234375 79.99800109863281 L -135.08099365234375 79.99800109863281 L -135.08099365234375 85 L -140.08099365234375 85 L -140.08099365234375 79.99800109863281 L -145.08099365234375 79.99800109863281 L -145.08099365234375 85 L -150.08099365234375 85 L -150.08099365234375 79.99800109863281 L -155.08099365234375 79.99800109863281 L -155.08099365234375 85 L -160.08099365234375 85 L -160.08099365234375 79.99800109863281 L -160.08200073242188 79.99800109863281 L -165.07699584960938 79.99800109863281 L -165.08200073242188 79.99800109863281 L -165.08200073242188 85 L -170.08200073242188 85 L -170.08200073242188 79.99800109863281 L -175.07699584960938 79.99800109863281 L -175.08200073242188 79.99800109863281 L -175.08200073242188 85 L -180.08200073242188 85 L -180.08200073242188 79.99800109863281 L -185.0800018310547 79.99800109863281 L -185.0800018310547 78.00299835205078 L -180.08200073242188 78.00299835205078 L -175.08200073242188 78.00299835205078 L -175.07699584960938 78.00299835205078 L -175.07699584960938 70.00199890136719 L -175.07699584960938 40.00299835205078 L -170.08200073242188 40.00299835205078 L -170.08200073242188 17 L -170.08200073242188 -0.0020000000949947916 L -175.07699584960938 -0.0020000000949947916 L -175.07699584960938 -42.00199890136719 L -175.08200073242188 -42.00199890136719 L -180.08200073242188 -42.00199890136719 L -185.0800018310547 -42.00199890136719 L -185.0800018310547 -43.99700164794922 M -271.9230041503906 189 L -271.9230041503906 184.00900268554688 L -276.9230041503906 184.00900268554688 L -276.92401123046875 184.00900268554688 L -276.92401123046875 189 L -281.92498779296875 189 L -281.92498779296875 184.00900268554688 L -286.9230041503906 184.00900268554688 L -286.9230041503906 185.40061950683594 L -286.9230041503906 189 L -289.00115966796875 189 L -290.1408996582031 189 L -291.99102783203125 189 L -292.090576171875 189 L -293.1457214355469 189 L -293.24517822265625 189 L -301.9998779296875 189 L -288.1438903808594 164.0030059814453 L -254.52862548828125 103.35919189453125 L -248.34617614746094 92.20571899414062 L -244.49380493164062 85.25582122802734 L -242.6389923095703 81.90963745117188 L -242.5848388671875 81.81192779541016 L -224.5631866455078 95.17767333984375 L -214.7050018310547 102.48899841308594 L -189.76315307617188 117.4388427734375 L -185.0800018310547 120.2458724975586 L -184.9980010986328 120.2950210571289 L -183.98199462890625 120.90399932861328 L -171.97129821777344 126.58424377441406 L -161 131.77291870117188 L -154.13818359375 135.01808166503906 L -151.6009979248047 136.21800231933594 L -148 137.50653076171875 L -143 139.295654296875 L -138 141.08477783203125 L -136.03500366210938 141.78790283203125 L -133 142.8739013671875 L -128 144.66302490234375 L -127.9841537475586 144.668701171875 L -122.77253723144531 146.53353881835938 L -117.875 148.28599548339844 L -115.51750946044922 148.87649536132812 L -108 150.7594451904297 L -95 154.01560974121094 L -90 155.2679901123047 L -88 155.76893615722656 L -85.08000183105469 156.5003204345703 L -85 156.52035522460938 L -83.12899780273438 156.98899841308594 L -83 157.0081329345703 L -80 157.45315551757812 L -78.9229965209961 157.6129150390625 L -78 157.7498321533203 L -75 158.19485473632812 L -73.9229965209961 158.35462951660156 L -73 158.49154663085938 L -68.9229965209961 159.09632873535156 L -68 159.23324584960938 L -63.92300033569336 159.83802795410156 L -58.92300033569336 160.57972717285156 L -55 161.1616668701172 L -53.922000885009766 161.3215789794922 L -48.922000885009766 162.0632781982422 L -47.696998596191406 162.2449951171875 L -43.922000885009766 162.4304962158203 L -38.922000885009766 162.6761932373047 L -35 162.86891174316406 L -33.922000885009766 162.92189025878906 L -30 163.11460876464844 L -28.922000885009766 163.16758728027344 L -25 163.3603057861328 L -23.922000885009766 163.4132843017578 L -20 163.6060028076172 L -18.922000885009766 163.6589813232422 L -15 163.85169982910156 L -13.920999526977539 163.90472412109375 L -11.920999526977539 164.0030059814453 L -8.920999526977539 164.0030059814453 L -8.920999526977539 169.0030059814453 L -3.9210000038146973 169.0030059814453 L -3.9210000038146973 164.0030059814453 L -2 164.0030059814453 L 0 164.0030059814453 L 1.0789999961853027 164.0030059814453 L 1.0789999961853027 169.0030059814453 L 6.078999996185303 169.0030059814453 L 6.078999996185303 164.0030059814453 L 11.079000473022461 164.0030059814453 L 11.079000473022461 169.0030059814453 L 16.07900047302246 169.0030059814453 L 16.07900047302246 164.0030059814453 L 17 164.0030059814453 L 21.07900047302246 164.0030059814453 L 21.07900047302246 169.0030059814453 L 26.079999923706055 169.0030059814453 L 26.079999923706055 164.0030059814453 L 31.079999923706055 164.0030059814453 L 31.079999923706055 169.0030059814453 L 36.08000183105469 169.0030059814453 L 36.08000183105469 164.0030059814453 L 37 164.0030059814453 L 38 164.0030059814453 L 41.08000183105469 164.0030059814453 L 41.08000183105469 169.0030059814453 L 46.08000183105469 169.0030059814453 L 46.08000183105469 164.0030059814453 L 51.08000183105469 164.0030059814453 L 51.08000183105469 169.0030059814453 L 53.49700164794922 169.0030059814453 L 54.50199890136719 169.0030059814453 L 56.08000183105469 169.0030059814453 L 56.08000183105469 164.0030059814453 L 58 164.0030059814453 L 59 164.0030059814453 L 61.08000183105469 164.0030059814453 L 61.08000183105469 169.0030059814453 L 66.08100128173828 169.0030059814453 L 66.08100128173828 164.0030059814453 L 71.08100128173828 164.0030059814453 L 71.08100128173828 169.0030059814453 L 76.08100128173828 169.0030059814453 L 76.08100128173828 164.0030059814453 L 79 164.0030059814453 L 80 164.0030059814453 L 81.08100128173828 164.0030059814453 L 81.08100128173828 169.0030059814453 L 86.08100128173828 169.0030059814453 L 86.08100128173828 164.0030059814453 L 91.08100128173828 164.0030059814453 L 91.08100128173828 169.0030059814453 L 96.08100128173828 169.0030059814453 L 96.08100128173828 164.0030059814453 L 100 164.0030059814453 L 101 164.0030059814453 L 101.08200073242188 164.0030059814453 L 101.08200073242188 169.0030059814453 L 106.08200073242188 169.0030059814453 L 106.08200073242188 164.0030059814453 L 111.08200073242188 164.0030059814453 L 111.08200073242188 169.0030059814453 L 112.49700164794922 169.0030059814453 L 113.50199890136719 169.0030059814453 L 116.08200073242188 169.0030059814453 L 116.08200073242188 164.0030059814453 L 121 164.0030059814453 L 121.08000183105469 164.0030059814453 L 121.08000183105469 189 L 116.08200073242188 189 L 113.50199890136719 189 L 112.49700164794922 189 L 111.08200073242188 189 L 106.08200073242188 189 L 101.08200073242188 189 L 96.08100128173828 189 L 91.08100128173828 189 L 86.08100128173828 189 L 81.08100128173828 189 L 76.08100128173828 189 L 71.08100128173828 189 L 66.08100128173828 189 L 61.08000183105469 189 L 56.08000183105469 189 L 54.50199890136719 189 L 53.49700164794922 189 L 51.08000183105469 189 L 46.08000183105469 189 L 41.08000183105469 189 L 36.08000183105469 189 L 31.079999923706055 189 L 26.079999923706055 189 L 21.07900047302246 189 L 16.07900047302246 189 L 11.079000473022461 189 L 6.078999996185303 189 L 1.0789999961853027 189 L -3.9210000038146973 189 L -8.920999526977539 189 L -13.920999526977539 189 L -18.922000885009766 189 L -23.922000885009766 189 L -28.922000885009766 189 L -33.922000885009766 189 L -38.922000885009766 189 L -43.922000885009766 189 L -48.922000885009766 189 L -53.922000885009766 189 L -58.92300033569336 189 L -63.92300033569336 189 L -68.9229965209961 189 L -73.9229965209961 189 L -78.9229965209961 189 L -84.49662017822266 189 L -104.80570983886719 189 L -106.43021392822266 189 L -126.96415710449219 189 L -129.85198974609375 189 L -150.7668914794922 189 L -151.3719940185547 189 L -172.40460205078125 189 L -178.17478942871094 189 L -200.0643310546875 189 L -205.1654510498047 189 L -226.91799926757812 189 L -227.80484008789062 189 L -231.91600036621094 189 L -231.91600036621094 184.00900268554688 L -236.91700744628906 184.00900268554688 L -236.91700744628906 189 L -241.91799926757812 189 L -241.91799926757812 184.00900268554688 L -246.91900634765625 184.00900268554688 L -246.91900634765625 189 L -246.92300415039062 189 L -251.9199981689453 189 L -251.9199981689453 184.00900268554688 L -256.9209899902344 184.00900268554688 L -256.9209899902344 189 L -261.9219970703125 189 L -261.9219970703125 184.00900268554688 L -266.9219970703125 184.00900268554688 L -266.9219970703125 189 L -271.9179992675781 189 L -271.9230041503906 189 M -209.9250030517578 116.366455078125 L -211.94000244140625 115.29499816894531 L -213.91036987304688 118.99994659423828 L -214.28799438476562 119.70999908447266 L -212.31698608398438 120.75801086425781 L -209.9250030517578 122.02985382080078 L -209.87356567382812 122.05719757080078 L -208.9199981689453 120.26376342773438 L -207.5260467529297 117.64208221435547 L -208.9199981689453 116.9008560180664 L -209.9250030517578 116.366455078125 M -198.69500732421875 122.33799743652344 L -197.9239959716797 122.74794006347656 L -197.09637451171875 123.18798828125 L -196.91900634765625 123.28230285644531 L -195.9813232421875 123.78087615966797 L -196.91900634765625 123.28227233886719 L -197.09649658203125 123.1878890991211 L -197.9239959716797 122.74787139892578 L -198.69496154785156 122.33792114257812 L -203.110107421875 119.99020385742188 L -205.45758056640625 124.40522003173828 L -201.04237365722656 126.7528305053711 L -198.69500732421875 122.33799743652344 M 143.00100708007812 -44.00199890136719 L 145.72592163085938 -44.00199890136719 L 146.85919189453125 -44.00199890136719 L 148 -44.00199890136719 L 148 -49 L 153.00100708007812 -49 L 153.00100708007812 -44.00199890136719 L 158.0019989013672 -44.00199890136719 L 158.0019989013672 -49 L 159.31663513183594 -49 L 160.44989013671875 -49 L 163.00100708007812 -49 L 163.00100708007812 80.00199890136719 L 160.44989013671875 80.00199890136719 L 159.31663513183594 80.00199890136719 L 158.0019989013672 80.00199890136719 L 153.00100708007812 80.00199890136719 L 148 80.00199890136719 L 146.85919189453125 80.00199890136719 L 145.72592163085938 80.00199890136719 L 143.00100708007812 80.00199890136719 L 143.00100708007812 -44.00199890136719 M -84 128.9739990234375 L -85.08000183105469 130.0540008544922 L -86.0979995727539 131.07200622558594 L -87.53600311279297 132.50999450683594 L -88 132.04586791992188 L -88.97359466552734 131.07200622558594 L -91.07099914550781 128.9739990234375 L -93.16899871826172 131.07200622558594 L -98.09700012207031 136 L -100.7093734741211 133.3873748779297 L -103.0245361328125 131.07200622558594 L -104.24471282958984 129.85171508789062 L -105.16766357421875 128.9286651611328 L -107.31099700927734 131.07200622558594 L -108 131.76100158691406 L -108.6780014038086 132.43899536132812 L -112.21399688720703 128.9029998779297 L -108.70301055908203 125.39299774169922 L -108.6780014038086 125.36799621582031 L -108.65299224853516 125.39299774169922 L -108 125.39299774169922 L -94.65098571777344 125.39299774169922 L -88 125.39299774169922 L -87.58201599121094 125.39299774169922 L -87.48999786376953 125.39299774169922 L -87.53600311279297 125.43900299072266 L -85.08000183105469 127.89430236816406 L -84 128.9739990234375 M 95.00299835205078 -49 L 100 -49 L 100 17 L 100 70.00199890136719 L 100 79.99800109863281 L 96.57847595214844 79.99800109863281 L 95.52603149414062 79.99800109863281 L 95.00299835205078 79.99800109863281 L 89.99800109863281 79.99800109863281 L 85.00299835205078 79.99800109863281 L 83.96041107177734 79.99800109863281 L 82.90833282470703 79.99800109863281 L 80 79.99800109863281 L 80 70.00199890136719 L 80 17 L 80 -43.99700164794922 L 85.00299835205078 -43.99700164794922 L 85.00299835205078 -49 L 89.99800109863281 -49 L 89.99800109863281 -43.99700164794922 L 95.00299835205078 -43.99700164794922 L 95.00299835205078 -49 M 116.00199890136719 -48.99800109863281 L 121 -48.99800109863281 L 121 17 L 121 70.00199890136719 L 121 80 L 116.96808624267578 80 L 116.00199890136719 80 L 115.8728256225586 80 L 110.99700164794922 80 L 106.00199890136719 80 L 104.92636108398438 80 L 103.83134460449219 80 L 101 80 L 101 70.00199890136719 L 101 17 L 101 -43.99599838256836 L 106.00199890136719 -43.99599838256836 L 106.00199890136719 -48.99800109863281 L 110.99700164794922 -48.99800109863281 L 110.99700164794922 -43.99599838256836 L 116.00199890136719 -43.99599838256836 L 116.00199890136719 -48.99800109863281 M 74.00299835205078 -49 L 79 -49 L 79 17 L 79 70.00199890136719 L 79 79.99800109863281 L 75.50775909423828 79.99800109863281 L 74.46077728271484 79.99800109863281 L 74.00299835205078 79.99800109863281 L 68.99800109863281 79.99800109863281 L 64.00299835205078 79.99800109863281 L 62.96039962768555 79.99800109863281 L 61.91400146484375 79.99800109863281 L 59 79.99800109863281 L 59 70.00199890136719 L 59 17 L 59 -43.99700164794922 L 64.00299835205078 -43.99700164794922 L 64.00299835205078 -49 L 68.99800109863281 -49 L 68.99800109863281 -43.99700164794922 L 74.00299835205078 -43.99700164794922 L 74.00299835205078 -49 M 164 -43.99700164794922 L 166.72512817382812 -43.99700164794922 L 167.85801696777344 -43.99700164794922 L 169.0019989013672 -43.99700164794922 L 169.0019989013672 -49 L 173.9969940185547 -49 L 173.9969940185547 -43.99700164794922 L 179.0019989013672 -43.99700164794922 L 179.0019989013672 -49 L 184 -49 L 184 79.99800109863281 L 179.0019989013672 79.99800109863281 L 173.9969940185547 79.99800109863281 L 169.0019989013672 79.99800109863281 L 167.85801696777344 79.99800109863281 L 166.72512817382812 79.99800109863281 L 164 79.99800109863281 L 164 -43.99700164794922 M -78 129 L -83 129 L -83 124 L -85.08000183105469 124 L -88 124 L -88.97541046142578 124 L -96.04359436035156 124 L -108 124 L -128 124 L -131.07200622558594 124 L -133 124 L -133 124.322998046875 L -133 129 L -138 129 L -138 124 L -143 124 L -143 129 L -148 129 L -148 124 L -161 124 L -161 123.84803771972656 L -153.66700744628906 123.30999755859375 L -144.31300354003906 121.23999786376953 L -135.13900756835938 117.81300354003906 L -131.07200622558594 115.64176940917969 L -128 114.00173950195312 L -128 114 L -88 114 L -88 114.00173950195312 L -85.08000183105469 115.56062316894531 L -80.86100006103516 117.81300354003906 L -71.68699645996094 121.23999786376953 L -62.33300018310547 123.30999755859375 L -55 123.84803771972656 L -55 124 L -68 124 L -68 129 L -73 129 L -73 124 L -75 124 L -78 124 L -78 129 M 245 79.99800109863281 L 240.0030059814453 79.99800109863281 L 235.0030059814453 79.99800109863281 L 235.0019989013672 79.99800109863281 L 230.0019989013672 79.99800109863281 L 229.9980010986328 79.99800109863281 L 229.9969940185547 79.99800109863281 L 225.00100708007812 79.99800109863281 L 220.00100708007812 79.99800109863281 L 215 79.99800109863281 L 210 79.99800109863281 L 205.0030059814453 79.99800109863281 L 205.0019989013672 79.99800109863281 L 204.99899291992188 79.99800109863281 L 199.99899291992188 79.99800109863281 L 199.9980010986328 79.99800109863281 L 199.9969940185547 79.99800109863281 L 194.9980010986328 79.99800109863281 L 189.9980010986328 79.99800109863281 L 185 79.99800109863281 L 185 -43.99700164794922 L 189.9980010986328 -43.99700164794922 L 189.9980010986328 -49 L 194.9980010986328 -49 L 194.9980010986328 -43.99700164794922 L 199.9969940185547 -43.99700164794922 L 199.9980010986328 -43.99700164794922 L 199.99899291992188 -43.99700164794922 L 199.99899291992188 -44.0359992980957 L 199.99899291992188 -49 L 204.99899291992188 -49 L 204.99899291992188 -44.0359992980957 L 204.99899291992188 -43.99700164794922 L 205.0019989013672 -43.99700164794922 L 205.0030059814453 -43.99700164794922 L 210 -43.99700164794922 L 210 -49 L 215 -49 L 215 -43.99700164794922 L 220.00100708007812 -43.99700164794922 L 220.00100708007812 -49 L 225.00100708007812 -49 L 225.00100708007812 -43.99700164794922 L 229.9969940185547 -43.99700164794922 L 229.9980010986328 -43.99700164794922 L 230.0019989013672 -43.99700164794922 L 230.0019989013672 -44.0359992980957 L 230.0019989013672 -49 L 235.0019989013672 -49 L 235.0019989013672 -44.0359992980957 L 235.0019989013672 -43.99700164794922 L 235.0030059814453 -43.99700164794922 L 240.0030059814453 -43.99700164794922 L 240.0030059814453 -49 L 245 -49 L 245 79.99800109863281 M 122 -43.99700164794922 L 124.72523498535156 -43.99700164794922 L 125.8583755493164 -43.99700164794922 L 127.00199890136719 -43.99700164794922 L 127.00199890136719 -49 L 131.9969940185547 -49 L 131.9969940185547 -43.99700164794922 L 137.0019989013672 -43.99700164794922 L 137.0019989013672 -49 L 138.3161163330078 -49 L 139.44993591308594 -49 L 142 -49 L 142 79.99800109863281 L 139.44993591308594 79.99800109863281 L 138.3161163330078 79.99800109863281 L 137.0019989013672 79.99800109863281 L 131.9969940185547 79.99800109863281 L 127.00199890136719 79.99800109863281 L 125.8583755493164 79.99800109863281 L 124.72523498535156 79.99800109863281 L 122 79.99800109863281 L 122 -43.99700164794922 M 32.00299835205078 -49 L 37 -49 L 37 17 L 37 70.00199890136719 L 37 85 L 34.09360885620117 85 L 33.07689666748047 85 L 32.00299835205078 85 L 32.00299835205078 79.99800109863281 L 26.99799919128418 79.99800109863281 L 26.99799919128418 85 L 22.003000259399414 85 L 22.003000259399414 79.99800109863281 L 21.908126831054688 79.99800109863281 L 20.89109230041504 79.99800109863281 L 17 79.99800109863281 L 17 70.00199890136719 L 17 17 L 17 -43.99700164794922 L 22.003000259399414 -43.99700164794922 L 22.003000259399414 -49 L 26.99799919128418 -49 L 26.99799919128418 -43.99700164794922 L 32.00299835205078 -43.99700164794922 L 32.00299835205078 -49 M -130 134.3939971923828 L -128 132.3934326171875 L -126.46499633789062 130.85800170898438 L -122.92916870117188 134.39382934570312 L -115.90399932861328 127.36799621582031 L -113.2916488647461 129.9803466796875 L -109.75550079345703 133.51649475097656 L -108.8324966430664 134.4394989013672 L -108 133.60699462890625 L -105.46499633789062 131.07200622558594 L -105.3219985961914 130.9290008544922 L -105.17903900146484 131.07200622558594 L -101.78700256347656 134.46499633789062 L -105.2969970703125 137.97500610351562 L -105.3219985961914 138 L -105.34700775146484 137.97500610351562 L -108 137.97500610351562 L -114.21399688720703 137.97500610351562 L -119.3479995727539 137.97500610351562 L -121.28856658935547 137.97500610351562 L -126.41899871826172 137.97500610351562 L -126.51000213623047 137.97500610351562 L -126.4645004272461 137.92950439453125 L -123.82437896728516 135.28912353515625 L -126.46499633789062 137.9290008544922 L -128 136.3939971923828 L -130 134.3939971923828 M 53.00299835205078 -48.99800109863281 L 58 -48.99800109863281 L 58 17 L 58 70.00199890136719 L 58 80 L 55.27548599243164 80 L 54.24781036376953 80 L 53.00299835205078 80 L 47.99800109863281 80 L 43.00299835205078 80 L 41.9332389831543 80 L 40.90525436401367 80 L 38 80 L 38 70.00199890136719 L 38 17 L 38 -43.99599838256836 L 43.00299835205078 -43.99599838256836 L 43.00299835205078 -48.99800109863281 L 47.99800109863281 -48.99800109863281 L 47.99800109863281 -43.99599838256836 L 53.00299835205078 -43.99599838256836 L 53.00299835205078 -48.99800109863281 M 17 112.53199768066406 L 17.003000259399414 112.53199768066406 L 17.003000259399414 112.5270004272461 L 17.003000259399414 107.5270004272461 L 17 107.5270004272461 L 12.003000259399414 107.5270004272461 L 12.003000259399414 112.5270004272461 L 12.003000259399414 112.53199768066406 L 12.041606903076172 112.53199768066406 L 17 112.53199768066406 M 38.64699935913086 111.6050033569336 L 38 111.49087524414062 L 37 111.31449127197266 L 33.723548889160156 110.73656463623047 L 33.408016204833984 112.5270004272461 L 33.217987060546875 113.60528564453125 L 32.855262756347656 115.66351318359375 L 37 116.39459228515625 L 37.77899932861328 116.53199768066406 L 37.90412902832031 115.82172393798828 L 38 115.27754211425781 L 38.06092071533203 114.9317398071289 L 38.48456954956055 112.5270004272461 L 38.57794189453125 111.99700164794922 L 38.64699935913086 111.6050033569336 M -38.922000885009766 163.9980010986328 L -38.922000885009766 164.0030059814453 L -38.922000885009766 169.0030059814453 L -33.922000885009766 169.0030059814453 L -33.922000885009766 164.0030059814453 L -33.922000885009766 163.9980010986328 L -35.87959289550781 163.9980010986328 L -38.922000885009766 163.9980010986328 M 11.998000144958496 78.00299835205078 L 13.003000259399414 78.00299835205078 L 13.003000259399414 73.99800109863281 L 12.083000183105469 73.99800109863281 L 12.083000183105469 72.99700164794922 L 11.998000144958496 72.99700164794922 L 11.07800006866455 72.99700164794922 L 11.07800006866455 77.00199890136719 L 11.998000144958496 77.00199890136719 L 11.998000144958496 78.00299835205078 M 205.0019989013672 -34.0989990234375 L 204.99899291992188 -34.0989990234375 L 199.99899291992188 -34.0989990234375 L 199.9980010986328 -34.0989990234375 L 199.9980010986328 -29.097999572753906 L 199.99899291992188 -29.097999572753906 L 204.99899291992188 -29.097999572753906 L 205.0019989013672 -29.097999572753906 L 205.0030059814453 -29.097999572753906 L 205.0030059814453 -34.0989990234375 L 205.0019989013672 -34.0989990234375 M -155.07699584960938 -20.00200080871582 L -155.08099365234375 -20.00200080871582 L -160.08099365234375 -20.00200080871582 L -160.08200073242188 -20.00200080871582 L -160.08200073242188 -14.996999740600586 L -160.08099365234375 -14.996999740600586 L -155.08099365234375 -14.996999740600586 L -155.07699584960938 -14.996999740600586 L -155.07699584960938 -20.00200080871582 M -165.07699584960938 -40.00199890136719 L -165.08200073242188 -40.00199890136719 L -165.08200073242188 -38.99700164794922 L -165.07699584960938 -38.99700164794922 L -161.07699584960938 -38.99700164794922 L -161.07699584960938 -40.00199890136719 L -165.07699584960938 -40.00199890136719 M -58.92300033569336 163.9980010986328 L -58.92300033569336 164.0030059814453 L -58.92300033569336 169.0030059814453 L -53.922000885009766 169.0030059814453 L -53.922000885009766 164.0030059814453 L -53.922000885009766 163.9980010986328 L -55.14615249633789 163.9980010986328 L -58.92300033569336 163.9980010986328 M -78.9229965209961 163.9980010986328 L -78.9229965209961 164.0030059814453 L -78.9229965209961 169.0030059814453 L -73.9229965209961 169.0030059814453 L -73.9229965209961 164.0030059814453 L -73.9229965209961 163.9980010986328 L -73.96524810791016 163.9980010986328 L -78.9229965209961 163.9980010986328 M -145.25950622558594 153.9932098388672 L -143.75643920898438 149.36636352539062 L -148.50758361816406 147.82278442382812 L -149.4927978515625 150.8535919189453 L -150.05335998535156 152.57803344726562 L -145.3013916015625 154.12213134765625 L -145.25950622558594 153.9932098388672 M -182.74710083007812 136.19371032714844 L -180.6968231201172 132.33753967285156 L -185.1080780029297 129.9920196533203 L -186.56581115722656 132.73255920410156 L -187.45628356933594 134.40664672851562 L -183.04429626464844 136.75267028808594 L -182.74710083007812 136.19371032714844 M -221.10984802246094 109.98960876464844 L -221.46730041503906 110.66204071044922 L -223.4568634033203 114.40486907958984 L -219.0448760986328 116.75090026855469 L -217.90029907226562 114.5976791381836 L -216.69781494140625 112.33553314208984 L -221.10984802246094 109.98960876464844 M -165 90.01499938964844 L -165 91.0199966430664 L -161 91.0199966430664 L -160.9949951171875 91.0199966430664 L -160.9949951171875 90.01499938964844 L -161 90.01499938964844 L -165 90.01499938964844 M -165 103.83200073242188 L -161 103.83200073242188 L -160.9949951171875 103.83200073242188 L -160.9949951171875 102.8270034790039 L -161 102.8270034790039 L -165 102.8270034790039 L -165 103.83200073242188 M -59.99700164794922 102.8270034790039 L -64 102.8270034790039 L -64 103.83200073242188 L -59.99700164794922 103.83200073242188 L -59.994998931884766 103.83200073242188 L -59.994998931884766 102.8270034790039 L -59.99700164794922 102.8270034790039 M -99.99500274658203 102.8270034790039 L -99.99800109863281 102.8270034790039 L -104 102.8270034790039 L -104 103.83200073242188 L -99.99800109863281 103.83200073242188 L -99.99500274658203 103.83200073242188 L -99.99500274658203 102.8270034790039 M -64.9209976196289 90.01499938964844 L -64.9209976196289 91.0199966430664 L -60.91600036621094 91.0199966430664 L -60.91600036621094 90.01499938964844 L -64.9209976196289 90.01499938964844 M -59.00199890136719 78.00299835205078 L -59.00199890136719 77.00299835205078 L -63.00199890136719 77.00299835205078 L -63.00199890136719 78.00299835205078 L -59.00199890136719 78.00299835205078 M -17.99799919128418 112.53199768066406 L -12.998000144958496 112.53199768066406 L -12.998000144958496 112.5270004272461 L -12.998000144958496 107.5270004272461 L -17.99799919128418 107.5270004272461 L -17.99799919128418 112.5270004272461 L -17.99799919128418 112.53199768066406 M -165.07699584960938 44.99800109863281 L -165.08200073242188 44.99800109863281 L -170.08200073242188 44.99800109863281 L -170.08200073242188 50.00299835205078 L -165.08200073242188 50.00299835205078 L -165.07699584960938 50.00299835205078 L -165.07699584960938 44.99800109863281 M -32.99800109863281 112.53199768066406 L -32.99800109863281 112.5270004272461 L -32.99800109863281 107.5270004272461 L -35 107.5270004272461 L -37.999000549316406 107.5270004272461 L -37.999000549316406 112.5270004272461 L -37.999000549316406 112.53199768066406 L -35 112.53199768066406 L -32.99800109863281 112.53199768066406 M -97.41600036621094 95.01499938964844 L -98.4209976196289 95.01499938964844 L -98.4209976196289 99.0199966430664 L -97.41600036621094 99.0199966430664 L -97.41600036621094 95.01499938964844 M -99.99800109863281 90.01499938964844 L -104 90.01499938964844 L -104 91.0199966430664 L -99.99800109863281 91.0199966430664 L -99.99500274658203 91.0199966430664 L -99.99500274658203 90.01499938964844 L -99.99800109863281 90.01499938964844 M -19.996999740600586 77.00299835205078 L -23.99799919128418 77.00299835205078 L -23.99799919128418 78.00299835205078 L -19.996999740600586 78.00299835205078 L -19.996999740600586 77.00299835205078 M -118.4209976196289 95.01499938964844 L -118.4209976196289 99.0199966430664 L -117.41600036621094 99.0199966430664 L -117.41600036621094 95.01499938964844 L -118.4209976196289 95.01499938964844 M -165.08200073242188 75.99800109863281 L -165.08200073242188 77.00299835205078 L -165.07699584960938 77.00299835205078 L -161.07699584960938 77.00299835205078 L -161.07699584960938 75.99800109863281 L -165.07699584960938 75.99800109863281 L -165.08200073242188 75.99800109863281 M -22.922000885009766 90.71499633789062 L -22.922000885009766 91.72000122070312 L -18.91699981689453 91.72000122070312 L -18.91699981689453 90.71499633789062 L -22.922000885009766 90.71499633789062 M -18.996999740600586 104.53199768066406 L -18.996999740600586 103.5270004272461 L -22.99799919128418 103.5270004272461 L -23.00200080871582 103.5270004272461 L -23.00200080871582 104.53199768066406 L -22.99799919128418 104.53199768066406 L -18.996999740600586 104.53199768066406 M -100.08000183105469 75.99800109863281 L -104.08200073242188 75.99800109863281 L -104.08200073242188 77.00299835205078 L -100.08000183105469 77.00299835205078 L -100.0790023803711 77.00299835205078 L -100.0770034790039 77.00299835205078 L -100.0770034790039 75.99800109863281 L -100.0790023803711 75.99800109863281 L -100.08000183105469 75.99800109863281 M -2.997999906539917 112.53199768066406 L -2.997999906539917 112.5270004272461 L -2.997999906539917 107.5270004272461 L -7.998000144958496 107.5270004272461 L -7.998000144958496 112.5270004272461 L -7.998000144958496 112.53199768066406 L -2.997999906539917 112.53199768066406 M -13.920999526977539 163.9980010986328 L -18.922000885009766 163.9980010986328 L -18.922000885009766 164.0030059814453 L -18.922000885009766 169.0030059814453 L -13.920999526977539 169.0030059814453 L -13.920999526977539 164.0030059814453 L -13.920999526977539 163.9980010986328 M 115.8728256225586 77.00499725341797 L 116.00199890136719 77.00499725341797 L 116.96808624267578 77.00499725341797 L 116.96808624267578 73 L 116.00199890136719 73 L 115.8728256225586 73 L 115.8728256225586 77.00499725341797 M -23.922000885009766 163.9980010986328 L -28.922000885009766 163.9980010986328 L -28.922000885009766 164.0030059814453 L -28.922000885009766 169.0030059814453 L -23.922000885009766 169.0030059814453 L -23.922000885009766 164.0030059814453 L -23.922000885009766 163.9980010986328 M 95.52603149414062 77.00299835205078 L 96.57847595214844 77.00299835205078 L 96.57847595214844 72.99800109863281 L 95.52603149414062 72.99800109863281 L 95.52603149414062 77.00299835205078 M 103.83134460449219 73 L 103.83134460449219 77.00499725341797 L 104.92636108398438 77.00499725341797 L 104.92636108398438 73 L 103.83134460449219 73 M -43.922000885009766 164.0030059814453 L -43.922000885009766 163.9980010986328 L -48.922000885009766 163.9980010986328 L -48.922000885009766 164.0030059814453 L -48.922000885009766 169.0030059814453 L -43.922000885009766 169.0030059814453 L -43.922000885009766 164.0030059814453 M -22.99799919128418 107.5270004272461 L -27.99799919128418 107.5270004272461 L -27.99799919128418 112.5270004272461 L -27.99799919128418 112.53199768066406 L -26.04265594482422 112.53199768066406 L -22.99799919128418 112.53199768066406 L -22.99799919128418 112.5270004272461 L -22.99799919128418 107.5270004272461 M -63.92300033569336 164.0030059814453 L -63.92300033569336 163.9980010986328 L -68.9229965209961 163.9980010986328 L -68.9229965209961 164.0030059814453 L -68.9229965209961 169.0030059814453 L -63.92300033569336 169.0030059814453 L -63.92300033569336 164.0030059814453 M -39.922000885009766 97.53199768066406 L -38.91699981689453 97.53199768066406 L -38.91699981689453 93.5270004272461 L -39.922000885009766 93.5270004272461 L -39.922000885009766 97.53199768066406 M -89.84432983398438 161.73887634277344 L -90.2435073852539 164.0030059814453 L -90.71261596679688 166.66383361816406 L -85.7927017211914 167.53131103515625 L -85.17052459716797 164.0030059814453 L -84.92424774169922 162.6063995361328 L -89.84432983398438 161.73887634277344 M 55.27548599243164 73 L 54.24781036376953 73 L 54.24781036376953 77.00499725341797 L 55.27548599243164 77.00499725341797 L 55.27548599243164 73 M -94.77234649658203 160.86996459960938 L -99.69499969482422 160.0019989013672 L -99.81929016113281 160.70721435546875 L -100.40015411376953 164.0030059814453 L -100.56300354003906 164.927001953125 L -95.64063262939453 165.794921875 L -95.32471466064453 164.0030059814453 L -95.13428497314453 162.9228973388672 L -94.77234649658203 160.86996459960938 M -48.91999816894531 92.8270034790039 L -48.91999816894531 96.83200073242188 L -47.915000915527344 96.83200073242188 L -47.915000915527344 92.8270034790039 L -48.91999816894531 92.8270034790039 M 50.99800109863281 109.00199890136719 L 52.00299835205078 109.00199890136719 L 52.00299835205078 104.99700164794922 L 50.99800109863281 104.99700164794922 L 50.99800109863281 109.00199890136719 M -124.77045440673828 155.27047729492188 L -128.59896850585938 154.0999298095703 L -129.54849243164062 153.8096160888672 L -131.01028442382812 158.5916748046875 L -126.23316192626953 160.05226135253906 L -125.0610580444336 156.2205047607422 L -124.77045440673828 155.27047729492188 M 83.96041107177734 72.99800109863281 L 82.90833282470703 72.99800109863281 L 82.90833282470703 77.00299835205078 L 83.96041107177734 77.00299835205078 L 83.96041107177734 72.99800109863281 M 74.46077728271484 77.00299835205078 L 75.50775909423828 77.00299835205078 L 75.50775909423828 72.99800109863281 L 74.46077728271484 72.99800109863281 L 74.46077728271484 77.00299835205078 M -109.71648406982422 158.76507568359375 L -110.84163665771484 163.63743591308594 L -109.25839233398438 164.0030059814453 L -105.97364044189453 164.76144409179688 L -105.79849243164062 164.0030059814453 L -104.84844207763672 159.888916015625 L -109.71648406982422 158.76507568359375 M 43.077999114990234 97.53199768066406 L 44.08300018310547 97.53199768066406 L 44.08300018310547 93.5270004272461 L 43.077999114990234 93.5270004272461 L 43.077999114990234 97.53199768066406 M -114.5925521850586 157.63938903808594 L -119.46299743652344 156.51499938964844 L -120.08386993408203 159.2037811279297 L -120.58799743652344 161.38699340820312 L -115.71744537353516 162.51161193847656 L -115.57737731933594 161.90492248535156 L -114.5925521850586 157.63938903808594 M 62.96039962768555 72.99800109863281 L 61.91400146484375 72.99800109863281 L 61.91400146484375 77.00299835205078 L 62.96039962768555 77.00299835205078 L 62.96039962768555 72.99800109863281 M 40.90525436401367 77.00499725341797 L 41.9332389831543 77.00499725341797 L 41.9332389831543 73 L 40.90525436401367 73 L 40.90525436401367 77.00499725341797 M -153.73301696777344 147.70884704589844 L -153.26773071289062 146.27627563476562 L -157.53311157226562 144.8905029296875 L -158.02099609375 144.73199462890625 L -159.5659942626953 149.48699951171875 L -154.81224060058594 151.03167724609375 L -153.73301696777344 147.70884704589844 M 43.077999114990234 119.5270004272461 L 43.077999114990234 122.77709197998047 L 43.077999114990234 123.53199768066406 L 44.08300018310547 123.53199768066406 L 44.08300018310547 123.13670349121094 L 44.08300018310547 119.5270004272461 L 43.077999114990234 119.5270004272461 M 50.99800109863281 121.05068969726562 L 50.99800109863281 123.00199890136719 L 52.00299835205078 123.00199890136719 L 52.00299835205078 121.52603149414062 L 52.00299835205078 118.99700164794922 L 50.99800109863281 118.99700164794922 L 50.99800109863281 121.05068969726562 M -140.5760040283203 155.66700744628906 L -140.54660034179688 155.67599487304688 L -135.79620361328125 157.12840270996094 L -134.33441162109375 152.34634399414062 L -139.0014190673828 150.91941833496094 L -139.11399841308594 150.88499450683594 L -140.57337951660156 155.658447265625 L -140.5760040283203 155.66700744628906 M -190.39015197753906 129.26629638671875 L -189.5268096923828 127.64253234863281 L -193.94000244140625 125.2959976196289 L -194.21006774902344 125.80404663085938 L -196.28700256347656 129.71099853515625 L -191.8741912841797 132.05746459960938 L -190.39015197753906 129.26629638671875 M 20.89109230041504 72.99800109863281 L 20.89109230041504 77.00299835205078 L 21.908126831054688 77.00299835205078 L 21.908126831054688 72.99800109863281 L 20.89109230041504 72.99800109863281 M -171.8355712890625 137.8802947998047 L -176.40199279785156 135.8470001220703 L -178.3361358642578 140.19166564941406 L -178.43600463867188 140.41600036621094 L -177.75326538085938 140.71995544433594 L -173.8695831298828 142.4490509033203 L -171.8355712890625 137.8802947998047 M 52.00299835205078 92.99700164794922 L 50.99800109863281 92.99700164794922 L 50.99800109863281 97.00199890136719 L 52.00299835205078 97.00199890136719 L 52.00299835205078 92.99700164794922 M 43.077999114990234 109.53199768066406 L 44.08300018310547 109.53199768066406 L 44.08300018310547 105.5270004272461 L 43.077999114990234 105.5270004272461 L 43.077999114990234 109.53199768066406 M -167.26470947265625 139.9155731201172 L -169.29823303222656 144.48428344726562 L -164.73422241210938 146.51626586914062 L -162.699951171875 141.94813537597656 L -167.26470947265625 139.9155731201172 M 33.07689666748047 77.00299835205078 L 34.09360885620117 77.00299835205078 L 34.09360885620117 72.99800109863281 L 33.07689666748047 72.99800109863281 L 33.07689666748047 77.00299835205078 M -227.87477111816406 112.0556869506836 L -225.52781677246094 107.64053344726562 L -229.9409942626953 105.29399871826172 L -232.28799438476562 109.70899963378906 L -227.87477111816406 112.0556869506836 M 20.077999114990234 90.71499633789062 L 20.077999114990234 91.72000122070312 L 21.836984634399414 91.72000122070312 L 24.08300018310547 91.72000122070312 L 24.08300018310547 90.71499633789062 L 22.0140380859375 90.71499633789062 L 20.077999114990234 90.71499633789062 M -237.48500061035156 99.77400207519531 L -235.48500061035156 96.30999755859375 L -236.3509979248047 95.80899810791016 L -238.3509979248047 99.27400207519531 L -237.48500061035156 99.77400207519531 M -165.07699584960938 60.00299835205078 L -165.07699584960938 54.99800109863281 L -165.08200073242188 54.99800109863281 L -170.08200073242188 54.99800109863281 L -170.08200073242188 60.00299835205078 L -165.08200073242188 60.00299835205078 L -165.07699584960938 60.00299835205078 M 23.251901626586914 112.5270004272461 L 23.00533103942871 113.92611694335938 L 27.926332473754883 114.79412078857422 L 28.325870513916016 112.5270004272461 L 28.794618606567383 109.8671646118164 L 23.87361717224121 108.9991683959961 L 23.251901626586914 112.5270004272461 M -100.0790023803711 17 L -100.0790023803711 -0.0020000000949947916 L -100.08000183105469 -0.0020000000949947916 L -105.0790023803711 -0.0020000000949947916 L -105.0790023803711 17 L -105.0790023803711 40.00299835205078 L -100.08000183105469 40.00299835205078 L -100.0790023803711 40.00299835205078 L -100.0790023803711 17 M -253.48699951171875 122.31099700927734 L -254.35299682617188 121.81099700927734 L -256.3529968261719 125.2750015258789 L -255.48699951171875 125.7750015258789 L -253.48699951171875 122.31099700927734 M 7.002999782562256 107.5270004272461 L 2.003000020980835 107.5270004272461 L 2.003000020980835 112.5270004272461 L 2.003000020980835 112.53199768066406 L 7.002999782562256 112.53199768066406 L 7.002999782562256 112.5270004272461 L 7.002999782562256 107.5270004272461 M 54.50199890136719 180.81500244140625 L 54.50199890136719 176.80999755859375 L 53.49700164794922 176.80999755859375 L 53.49700164794922 180.81500244140625 L 54.50199890136719 180.81500244140625 M -95.0790023803711 -0.0020000000949947916 L -95.0790023803711 17 L -95.0790023803711 40.00299835205078 L -90.08000183105469 40.00299835205078 L -90.0780029296875 40.00299835205078 L -90.0780029296875 17 L -90.0780029296875 -0.0020000000949947916 L -90.08000183105469 -0.0020000000949947916 L -95.0790023803711 -0.0020000000949947916 M -100.08000183105469 -38.99700164794922 L -100.0790023803711 -38.99700164794922 L -100.0770034790039 -38.99700164794922 L -100.0770034790039 -40.00199890136719 L -100.0790023803711 -40.00199890136719 L -100.08000183105469 -40.00199890136719 L -104.08200073242188 -40.00199890136719 L -104.08200073242188 -38.99700164794922 L -100.08000183105469 -38.99700164794922 M 112.49700164794922 182.81500244140625 L 113.50199890136719 182.81500244140625 L 113.50199890136719 178.80999755859375 L 112.49700164794922 178.80999755859375 L 112.49700164794922 182.81500244140625 M 97.0770034790039 171.9980010986328 L 97.0770034790039 173.0030059814453 L 101.08200073242188 173.0030059814453 L 101.08200073242188 171.9980010986328 L 97.0770034790039 171.9980010986328 M 101.00199890136719 185.81500244140625 L 101.00199890136719 184.80999755859375 L 96.99700164794922 184.80999755859375 L 96.99700164794922 185.81500244140625 L 101.00199890136719 185.81500244140625 M -110.0790023803711 17 L -110.0790023803711 -0.0020000000949947916 L -110.08000183105469 -0.0020000000949947916 L -115.0790023803711 -0.0020000000949947916 L -115.0790023803711 17 L -115.0790023803711 40.00299835205078 L -110.08000183105469 40.00299835205078 L -110.0790023803711 40.00299835205078 L -110.0790023803711 17 M 36.07699966430664 173.0030059814453 L 36.08000183105469 173.0030059814453 L 40.082000732421875 173.0030059814453 L 40.082000732421875 171.9980010986328 L 36.08000183105469 171.9980010986328 L 36.07699966430664 171.9980010986328 L 36.07699966430664 173.0030059814453 M -130.0800018310547 -0.0020000000949947916 L -130.08099365234375 -0.0020000000949947916 L -135.0800018310547 -0.0020000000949947916 L -135.0800018310547 17 L -135.0800018310547 40.00299835205078 L -130.08099365234375 40.00299835205078 L -130.0800018310547 40.00299835205078 L -130.0800018310547 17 L -130.0800018310547 -0.0020000000949947916 M -140.08099365234375 17 L -140.08099365234375 -0.0020000000949947916 L -145.08099365234375 -0.0020000000949947916 L -145.08099365234375 17 L -145.08099365234375 40.00299835205078 L -140.08099365234375 40.00299835205078 L -140.08099365234375 17 M -120.08000183105469 17 L -120.08000183105469 -0.0020000000949947916 L -125.08000183105469 -0.0020000000949947916 L -125.08000183105469 17 L -125.08000183105469 40.00299835205078 L -120.08000183105469 40.00299835205078 L -120.08000183105469 17 M 35.99700164794922 185.81500244140625 L 36.08000183105469 185.81500244140625 L 40.00199890136719 185.81500244140625 L 40.00199890136719 184.80999755859375 L 36.08000183105469 184.80999755859375 L 35.99700164794922 184.80999755859375 L 35.99700164794922 185.81500244140625 M -170.08200073242188 -14.996999740600586 L -165.08200073242188 -14.996999740600586 L -165.07699584960938 -14.996999740600586 L -165.07699584960938 -20.00200080871582 L -165.08200073242188 -20.00200080871582 L -170.08200073242188 -20.00200080871582 L -170.08200073242188 -14.996999740600586 M 33.49700164794922 176.80999755859375 L 33.49700164794922 180.81500244140625 L 34.50199890136719 180.81500244140625 L 34.50199890136719 176.80999755859375 L 33.49700164794922 176.80999755859375 M -160.08099365234375 17 L -160.08099365234375 -0.0020000000949947916 L -160.08200073242188 -0.0020000000949947916 L -165.07699584960938 -0.0020000000949947916 L -165.08200073242188 -0.0020000000949947916 L -165.08200073242188 17 L -165.08200073242188 40.00299835205078 L -165.07699584960938 40.00299835205078 L -160.08200073242188 40.00299835205078 L -160.08099365234375 40.00299835205078 L -160.08099365234375 17 M -150.08099365234375 17 L -150.08099365234375 -0.0020000000949947916 L -155.07699584960938 -0.0020000000949947916 L -155.08099365234375 -0.0020000000949947916 L -155.08099365234375 17 L -155.08099365234375 40.00299835205078 L -155.07699584960938 40.00299835205078 L -150.08099365234375 40.00299835205078 L -150.08099365234375 17 M -3.9230000972747803 173.0030059814453 L -3.9210000038146973 173.0030059814453 L 0.0820000022649765 173.0030059814453 L 0.0820000022649765 171.9980010986328 L -3.9210000038146973 171.9980010986328 L -3.9230000972747803 171.9980010986328 L -3.9230000972747803 173.0030059814453 M -160.08200073242188 -4.997000217437744 L -160.08099365234375 -4.997000217437744 L -155.08099365234375 -4.997000217437744 L -155.07699584960938 -4.997000217437744 L -155.07699584960938 -10.001999855041504 L -155.08099365234375 -10.001999855041504 L -160.08099365234375 -10.001999855041504 L -160.08200073242188 -10.001999855041504 L -160.08200073242188 -4.997000217437744 M 1.0019999742507935 185.81500244140625 L 1.0019999742507935 184.80999755859375 L -3.003000020980835 184.80999755859375 L -3.003000020980835 185.81500244140625 L 1.0019999742507935 185.81500244140625 M -165.08200073242188 -10.001999855041504 L -170.08200073242188 -10.001999855041504 L -170.08200073242188 -4.997000217437744 L -165.08200073242188 -4.997000217437744 L -165.07699584960938 -4.997000217437744 L -165.07699584960938 -10.001999855041504 L -165.08200073242188 -10.001999855041504 M -58.99700164794922 17 L -58.99700164794922 0.9980000257492067 L -58.999000549316406 0.9980000257492067 L -63.99700164794922 0.9980000257492067 L -63.99700164794922 17 L -63.99700164794922 41.00299835205078 L -58.999000549316406 41.00299835205078 L -58.99700164794922 41.00299835205078 L -58.99700164794922 17 M -38.917999267578125 171.9980010986328 L -38.922000885009766 171.9980010986328 L -42.92300033569336 171.9980010986328 L -42.92300033569336 173.0030059814453 L -38.922000885009766 173.0030059814453 L -38.917999267578125 173.0030059814453 L -38.917999267578125 171.9980010986328 M -68.99800109863281 0.9980000257492067 L -68.9990005493164 0.9980000257492067 L -73.99800109863281 0.9980000257492067 L -73.99800109863281 17 L -73.99800109863281 41.00299835205078 L -68.9990005493164 41.00299835205078 L -68.99800109863281 41.00299835205078 L -68.99800109863281 17 L -68.99800109863281 0.9980000257492067 M -38.99800109863281 185.81500244140625 L -38.99800109863281 184.80999755859375 L -43.00299835205078 184.80999755859375 L -43.00299835205078 185.81500244140625 L -38.99800109863281 185.81500244140625 M -59.00199890136719 -39.00199890136719 L -59.00199890136719 -40.00199890136719 L -63.00199890136719 -40.00199890136719 L -63.00199890136719 -39.00199890136719 L -59.00199890136719 -39.00199890136719 M -206.0030059814453 184.80999755859375 L -206.0030059814453 185.81500244140625 L -203.47158813476562 185.81500244140625 L -201.9980010986328 185.81500244140625 L -201.9980010986328 184.80999755859375 L -202.93711853027344 184.80999755859375 L -206.0030059814453 184.80999755859375 M -78.99800109863281 0.9980000257492067 L -78.9990005493164 0.9980000257492067 L -83.99800109863281 0.9980000257492067 L -83.99800109863281 17 L -83.99800109863281 41.00299835205078 L -78.9990005493164 41.00299835205078 L -78.99800109863281 41.00299835205078 L -78.99800109863281 17 L -78.99800109863281 0.9980000257492067 M -23.99799919128418 -39.00199890136719 L -19.996999740600586 -39.00199890136719 L -19.996999740600586 -40.00199890136719 L -23.99799919128418 -40.00199890136719 L -23.99799919128418 -39.00199890136719 M -158.9980010986328 185.81500244140625 L -158.9980010986328 184.80999755859375 L -163.0030059814453 184.80999755859375 L -163.0030059814453 185.81500244140625 L -158.9980010986328 185.81500244140625 M 235.0030059814453 -34.0989990234375 L 235.0019989013672 -34.0989990234375 L 230.0019989013672 -34.0989990234375 L 229.9980010986328 -34.0989990234375 L 229.9980010986328 -29.097999572753906 L 230.0019989013672 -29.097999572753906 L 235.0019989013672 -29.097999572753906 L 235.0030059814453 -29.097999572753906 L 235.0030059814453 -34.0989990234375 M -123.00299835205078 184.80999755859375 L -123.00299835205078 185.81500244140625 L -118.99800109863281 185.81500244140625 L -118.99800109863281 184.80999755859375 L -123.00299835205078 184.80999755859375 M -86.00299835205078 184.80999755859375 L -86.00299835205078 185.81500244140625 L -83.9352798461914 185.81500244140625 L -81.99800109863281 185.81500244140625 L -81.99800109863281 184.80999755859375 L -83.7581558227539 184.80999755859375 L -86.00299835205078 184.80999755859375 M 210.8979949951172 -39.99800109863281 L 214.9029998779297 -39.99800109863281 L 214.9029998779297 -41.00299835205078 L 210.8979949951172 -41.00299835205078 L 210.8979949951172 -39.99800109863281 M 226.3560028076172 101.2030029296875 L 225.49000549316406 100.7030029296875 L 223.48899841308594 104.16799926757812 L 224.3560028076172 104.66799926757812 L 226.3560028076172 101.2030029296875 M -256.9230041503906 181.81399536132812 L -252.91799926757812 181.81399536132812 L -252.91799926757812 180.8090057373047 L -256.9230041503906 180.8090057373047 L -256.9230041503906 181.81399536132812 M 194.48699951171875 154.22500610351562 L 192.48599243164062 157.68899536132812 L 192.5574188232422 157.7301788330078 L 193.35299682617188 158.18899536132812 L 195.35299682617188 154.72500610351562 L 194.55796813964844 154.26597595214844 L 194.48699951171875 154.22500610351562 M -246.92300415039062 174.01100158691406 L -241.91799926757812 174.01100158691406 L -241.91799926757812 169.00900268554688 L -246.92300415039062 169.00900268554688 L -246.92300415039062 174.01100158691406 M -271.9179992675781 169.00900268554688 L -276.9230041503906 169.00900268554688 L -276.9230041503906 174.01100158691406 L -271.9179992675781 174.01100158691406 L -271.9179992675781 169.00900268554688 M 138.3161163330078 77.00299835205078 L 139.44993591308594 77.00299835205078 L 139.44993591308594 72.99800109863281 L 138.3161163330078 72.99800109863281 L 138.3161163330078 77.00299835205078 M -284.489990234375 175.83200073242188 L -285.2796936035156 175.3760528564453 L -285.3559875488281 175.33200073242188 L -286.9230041503906 178.0468292236328 L -287.3559875488281 178.7969970703125 L -287.2801513671875 178.84080505371094 L -286.9230041503906 179.0469970703125 L -286.489990234375 179.2969970703125 L -284.489990234375 175.83200073242188 M 125.8583755493164 72.99800109863281 L 124.72523498535156 72.99800109863281 L 124.72523498535156 77.00299835205078 L 125.8583755493164 77.00299835205078 L 125.8583755493164 72.99800109863281 M 166.72512817382812 77.00299835205078 L 167.85801696777344 77.00299835205078 L 167.85801696777344 72.99800109863281 L 166.72512817382812 72.99800109863281 L 166.72512817382812 77.00299835205078 M -155.07699584960938 44.99800109863281 L -155.08099365234375 44.99800109863281 L -160.08099365234375 44.99800109863281 L -160.08200073242188 44.99800109863281 L -160.08200073242188 50.00299835205078 L -160.08099365234375 50.00299835205078 L -155.08099365234375 50.00299835205078 L -155.07699584960938 50.00299835205078 L -155.07699584960938 44.99800109863281 M 146.85919189453125 72.99800109863281 L 145.72592163085938 72.99800109863281 L 145.72592163085938 77.00299835205078 L 146.85919189453125 77.00299835205078 L 146.85919189453125 72.99800109863281 M 177.3509979248047 180.7259979248047 L 176.48500061035156 180.2259979248047 L 175.50274658203125 181.92726135253906 L 174.48500061035156 183.69000244140625 L 175.3509979248047 184.19000244140625 L 176.20809936523438 182.70550537109375 L 177.3509979248047 180.7259979248047 M -155.07699584960938 60.00299835205078 L -155.07699584960938 54.99800109863281 L -155.08099365234375 54.99800109863281 L -160.08099365234375 54.99800109863281 L -160.08200073242188 54.99800109863281 L -160.08200073242188 60.00299835205078 L -160.08099365234375 60.00299835205078 L -155.08099365234375 60.00299835205078 L -155.07699584960938 60.00299835205078 M 160.44989013671875 72.99800109863281 L 159.31663513183594 72.99800109863281 L 159.31663513183594 77.00299835205078 L 160.44989013671875 77.00299835205078 L 160.44989013671875 72.99800109863281 z" fill="none" stroke="rgb(255,0,0)" stroke-width="0.001mm" />
</svg>