<?xml version="1.0" standalone="no"?>
<!DOCTYPE svg PUBLIC "-//W3C//DTD SVG 1.1//EN"
  "http://www.w3.org/Graphics/SVG/1.1/DTD/svg11.dtd">
<svg width="22mm" height="130.9980010986328mm" viewBox="270 58.00199890136719 22 130.9980010986328" xmlns="http://www.w3.org/2000/svg" version="1.1">
	<title>svgOutput</title>
	<desc>made with tinkercad</desc>
<path d="M 291 188 L 288.2754821777344 188 L 287.247802734375 188 L 286.00299072265625 188 L 280.99798583984375 188 L 276.00299072265625 188 L 274.9332275390625 188 L 273.9052429199219 188 L 271 188 L 271 64.00499725341797 L 273.9052429199219 64.00499725341797 L 274.9332275390625 64.00499725341797 L 276.00299072265625 64.00499725341797 L 276.00299072265625 59.00199890136719 L 280.99798583984375 59.00199890136719 L 280.99798583984375 64.00499725341797 L 286.00299072265625 64.00499725341797 L 286.00299072265625 59.00199890136719 L 287.247802734375 59.00199890136719 L 288.2754821777344 59.00199890136719 L 291 59.00199890136719 L 291 188 M 273.9052429199219 181 L 273.9052429199219 185.0050048828125 L 274.9332275390625 185.0050048828125 L 274.9332275390625 181 L 273.9052429199219 181 M 288.2754821777344 181 L 287.247802734375 181 L 287.247802734375 185.0050048828125 L 288.2754821777344 185.0050048828125 L 288.2754821777344 181 z" fill="none" stroke="rgb(255,0,0)" stroke-width="0.001mm" />
</svg>