<?xml version="1.0" standalone="no"?>
<!DOCTYPE svg PUBLIC "-//W3C//DTD SVG 1.1//EN"
  "http://www.w3.org/Graphics/SVG/1.1/DTD/svg11.dtd">
<svg width="587mm" height="246.188232421875mm" viewBox="-329 -25 587 246.188232421875" xmlns="http://www.w3.org/2000/svg" version="1.1">
	<title>svgOutput</title>
	<desc>made with tinkercad</desc>
<path d="M -295.3908996582031 101 L -295.6364440917969 96 L -295.8819885253906 91 L -296.1275634765625 86 L -296.37310791015625 81 L -296.61865234375 76 L -296.7550048828125 73.2239990234375 L -297.08489990234375 71 L -297.82659912109375 66 L -298.5683288574219 61 L -299.3100280761719 56 L -300.0517272949219 51 L -300.7934265136719 46 L -301.5351257324219 41 L -302.010986328125 37.79199981689453 L -302.45989990234375 36 L -303.7123718261719 31 L -304.96484375 26 L -306.21734619140625 21 L -307.4698181152344 16 L -308.7222900390625 11 L -309.97479248046875 6 L -310.7149963378906 3.0450000762939453 L -311.44671630859375 1 L -311.80450439453125 1.1102230246251565e-16 L -313.2350158691406 -3.997999906539917 L -313.2357482910156 -4 L -315.0247802734375 -9 L -315.0258483886719 -9.003000259399414 L -316.8138122558594 -14 L -318.6028137207031 -19 L -320.391845703125 -24 L -295 -24 L -295 -23 L -295 -18 L -295 -14 L -290 -14 L -290 -13 L -290 -9.003000259399414 L -290 -9 L -294.3900146484375 -9 L -294.3900146484375 -9.003000259399414 L -295 -9.003000259399414 L -305.3949890136719 -9.003000259399414 L -305.3949890136719 -9 L -305.3949890136719 -4 L -305.3949890136719 -3.997999906539917 L -295 -3.997999906539917 L -294.3900146484375 -3.997999906539917 L -294.3900146484375 -4 L -290 -4 L -290 -3.997999906539917 L -290 -3 L -290 0.9969999790191652 L -290 1 L -294.3900146484375 1 L -294.3900146484375 0.9969999790191652 L -295 0.9969999790191652 L -300.3021545410156 0.9969999790191652 L -305.3949890136719 0.9969999790191652 L -305.3949890136719 1 L -305.3949890136719 6 L -305.3949890136719 6.002999782562256 L -300.0563049316406 6.002999782562256 L -295 6.002999782562256 L -294.3900146484375 6.002999782562256 L -294.3900146484375 6 L -290 6 L -290 6.002999782562256 L -290 7 L -290 11 L -295 11 L -295 12 L -295 16 L -290 16 L -290 17 L -290 21 L -295 21 L -295 22 L -295 26 L -290 26 L -290 27 L -290 31 L -295 31 L -295 32 L -295 36 L -290 36 L -290 37 L -290 41 L -295 41 L -295 42 L -295 46 L -290 46 L -290 47 L -290 51 L -295 51 L -295 52 L -295 56 L -290 56 L -290 57 L -290 61 L -295 61 L -295 62 L -295 66 L -290 66 L -290 67 L -290 71 L -295 71 L -295 72 L -295 76 L -290 76 L -290 77 L -290 81 L -295 81 L -295 82 L -295 86 L -290 86 L -290 87 L -290 91 L -295 91 L -295 92 L -295 96 L -290 96 L -290 101 L -295 101 L -295.3908996582031 101 M -288 72 L -288 71 L -288 67 L -286.9200134277344 67 L -283 67 L -283 62 L -286.9200134277344 62 L -288 62 L -288 61 L -288 57 L -286.9200134277344 57 L -283 57 L -283 52 L -286.9200134277344 52 L -288 52 L -288 51 L -288 47 L -286.9200134277344 47 L -283 47 L -283 43.48318862915039 L -283 43 L -283 42 L -286.9200134277344 42 L -288 42 L -288 41 L -288 37 L -286.9200134277344 37 L -283 37 L -283 32 L -286.9200134277344 32 L -288 32 L -288 31 L -288 27 L -286.9200134277344 27 L -283 27 L -283 22 L -286.9200134277344 22 L -288 22 L -288 21 L -288 17 L -286.9200134277344 17 L -283 17 L -283 12 L -286.9200134277344 12 L -288 12 L -288 11 L -288 7 L -286.9200134277344 7 L -283 7 L -283 2 L -286.9200134277344 2 L -288 2 L -288 1 L -288 -3 L -286.9200134277344 -3 L -283 -3 L -283 -8 L -286.9200134277344 -8 L -288 -8 L -288 -9 L -288 -13 L -286.9200134277344 -13 L -283 -13 L -283 -18 L -286.9200134277344 -18 L -288 -18 L -288 -23 L -286.9200134277344 -23 L -283 -23 L -282.6091003417969 -23 L -282.3635559082031 -18 L -282.1180114746094 -13 L -281.8724365234375 -8 L -281.62689208984375 -3 L -281.47955322265625 1.1102230246251565e-16 L -281.38134765625 2 L -281.2449951171875 4.776000022888184 L -280.91510009765625 7 L -280.17340087890625 12 L -279.4316711425781 17 L -278.6899719238281 22 L -277.9482727050781 27 L -277.2065734863281 32 L -276.4648742675781 37 L -275.989013671875 40.20800018310547 L -275.54010009765625 42 L -275.28961181640625 43 L -274.2876281738281 47 L -273.03515625 52 L -273 52.14030456542969 L -272.3139343261719 54.87916564941406 L -271.78265380859375 57 L -270.5301818847656 62 L -269.54547119140625 65.93101501464844 L -269.2777099609375 67 L -268.02520751953125 72 L -267.2850036621094 74.95500183105469 L -266.55328369140625 77 L -264.7642517089844 82 L -262.9752197265625 87 L -261.1861877441406 92 L -259.3971862792969 97 L -257.608154296875 102 L -260.51031494140625 102 L -266.82275390625 102 L -276.47021484375 102 L -283 102 L -283 97 L -283 92 L -286.9200134277344 92 L -288 92 L -288 91 L -288 87 L -286.9200134277344 87 L -283.6109924316406 87 L -283.6109924316406 87.00299835205078 L -283 87.00299835205078 L -277.20672607421875 87.00299835205078 L -272.6059875488281 87.00299835205078 L -272.6059875488281 87 L -272.6059875488281 82 L -272.6059875488281 81.99800109863281 L -277.4525451660156 81.99800109863281 L -283 81.99800109863281 L -283.6109924316406 81.99800109863281 L -283.6109924316406 82 L -286.9200134277344 82 L -288 82 L -288 81 L -288 77 L -286.9200134277344 77 L -283.6109924316406 77 L -283.6109924316406 77.00299835205078 L -283 77.00299835205078 L -277.6978454589844 77.00299835205078 L -272.6059875488281 77.00299835205078 L -272.6059875488281 77 L -272.6059875488281 72 L -272.6059875488281 71.99800109863281 L -277.94366455078125 71.99800109863281 L -283 71.99800109863281 L -283.6109924316406 71.99800109863281 L -283.6109924316406 72 L -286.9200134277344 72 L -288 72 M -73.08000183105469 111 L -78.0780029296875 111 L -78.08000183105469 111 L -78.08000183105469 105.99800109863281 L -83.0790023803711 105.99800109863281 L -83.08000183105469 105.99800109863281 L -83.08000183105469 111 L -88.0790023803711 111 L -88.08000183105469 111 L -88.08000183105469 105.99800109863281 L -93.0790023803711 105.99800109863281 L -93.08000183105469 105.99800109863281 L -93.08000183105469 111 L -98.0790023803711 111 L -98.08000183105469 111 L -98.08000183105469 105.99800109863281 L -103.0790023803711 105.99800109863281 L -103.08000183105469 105.99800109863281 L -103.08000183105469 111 L -108.08000183105469 111 L -108.08000183105469 105.99800109863281 L -113.08000183105469 105.99800109863281 L -113.08100128173828 105.99800109863281 L -113.08100128173828 111 L -118.08000183105469 111 L -118.08100128173828 111 L -118.08100128173828 105.99800109863281 L -123.08000183105469 105.99800109863281 L -123.08100128173828 105.99800109863281 L -123.08100128173828 111 L -128.08099365234375 111 L -128.08099365234375 105.99800109863281 L -133.08099365234375 105.99800109863281 L -133.08099365234375 111 L -138.08099365234375 111 L -138.08099365234375 105.99800109863281 L -143.07699584960938 105.99800109863281 L -143.08099365234375 105.99800109863281 L -143.08099365234375 111 L -148.08099365234375 111 L -148.08099365234375 105.99800109863281 L -148.08200073242188 105.99800109863281 L -153.07699584960938 105.99800109863281 L -153.08200073242188 105.99800109863281 L -153.08200073242188 111 L -158.08200073242188 111 L -158.08200073242188 105.99800109863281 L -163.07699584960938 105.99800109863281 L -163.08200073242188 105.99800109863281 L -163.08200073242188 111 L -168.08200073242188 111 L -168.08200073242188 105.99800109863281 L -173.0800018310547 105.99800109863281 L -173.0800018310547 104.00299835205078 L -168.08200073242188 104.00299835205078 L -163.08200073242188 104.00299835205078 L -163.07699584960938 104.00299835205078 L -163.07699584960938 66.00299835205078 L -158.08200073242188 66.00299835205078 L -158.08200073242188 25.99799919128418 L -163.07699584960938 25.99799919128418 L -163.07699584960938 -16.00200080871582 L -163.08200073242188 -16.00200080871582 L -168.08200073242188 -16.00200080871582 L -173.0800018310547 -16.00200080871582 L -173.0800018310547 -17.996999740600586 L -168.08200073242188 -17.996999740600586 L -168.08200073242188 -23 L -163.08200073242188 -23 L -163.08200073242188 -17.996999740600586 L -163.07699584960938 -17.996999740600586 L -158.08200073242188 -17.996999740600586 L -158.08200073242188 -23 L -153.08200073242188 -23 L -153.08200073242188 -17.996999740600586 L -153.07699584960938 -17.996999740600586 L -148.08200073242188 -17.996999740600586 L -148.08099365234375 -17.996999740600586 L -148.08099365234375 -23 L -143.08099365234375 -23 L -143.08099365234375 -17.996999740600586 L -143.07699584960938 -17.996999740600586 L -138.08099365234375 -17.996999740600586 L -138.08099365234375 -23 L -133.08099365234375 -23 L -133.08099365234375 -17.996999740600586 L -128.08099365234375 -17.996999740600586 L -128.08099365234375 -23 L -123.08100128173828 -23 L -123.08100128173828 -17.996999740600586 L -123.08000183105469 -17.996999740600586 L -118.08100128173828 -17.996999740600586 L -118.08100128173828 -23 L -118.08000183105469 -23 L -113.08100128173828 -23 L -113.08100128173828 -17.996999740600586 L -113.08000183105469 -17.996999740600586 L -108.08000183105469 -17.996999740600586 L -108.08000183105469 -23 L -103.08000183105469 -23 L -103.08000183105469 -17.996999740600586 L -103.0790023803711 -17.996999740600586 L -98.08000183105469 -17.996999740600586 L -98.08000183105469 -23 L -98.0790023803711 -23 L -93.08000183105469 -23 L -93.08000183105469 -17.996999740600586 L -93.0790023803711 -17.996999740600586 L -88.08000183105469 -17.996999740600586 L -88.08000183105469 -23 L -88.0790023803711 -23 L -83.08000183105469 -23 L -83.08000183105469 -17.996999740600586 L -83.0790023803711 -17.996999740600586 L -78.08000183105469 -17.996999740600586 L -78.08000183105469 -23 L -78.0780029296875 -23 L -73.08000183105469 -23 L -73.08000183105469 111 M -238.92100524902344 215 L -238.92100524902344 210.00900268554688 L -243.9219970703125 210.00900268554688 L -243.9219970703125 215 L -248.91799926757812 215 L -248.92300415039062 215 L -248.92300415039062 210.00900268554688 L -253.92300415039062 210.00900268554688 L -253.9239959716797 210.00900268554688 L -253.9239959716797 215 L -258.92498779296875 215 L -258.92498779296875 210.00900268554688 L -263.9230041503906 210.00900268554688 L -263.9230041503906 215 L -269.0933837890625 215 L -270.24517822265625 215 L -278.9997863769531 215 L -265.1436767578125 190.0030059814453 L -231.52835083007812 129.35964965820312 L -225.34584045410156 118.2061767578125 L -221.49342346191406 111.2562484741211 L -219.63821411132812 107.9094009399414 L -219.58409118652344 107.81175994873047 L -191.7050018310547 128.48899841308594 L -173.0800018310547 139.65223693847656 L -170.0800018310547 141.45034790039062 L -167.26788330078125 143.13583374023438 L -160.9810028076172 146.9040069580078 L -149 152.57037353515625 L -136 158.7186737060547 L -131 161.08340454101562 L -128.6009979248047 162.21800231933594 L -126 163.14869689941406 L -121 164.9378204345703 L -116 166.72694396972656 L -113.0847396850586 167.7700958251953 L -109.25269317626953 169.14129638671875 L -107.87373352050781 169.63473510742188 L -98.24168395996094 173.08131408691406 L -96 173.88345336914062 L -94.875 174.28599548339844 L -83 177.26039123535156 L -78 178.51275634765625 L -76 179.0137176513672 L -73.08000183105469 179.74510192871094 L -73 179.76513671875 L -72.08000183105469 179.99557495117188 L -71 180.26608276367188 L -68 181.01751708984375 L -66 181.51846313476562 L -63 182.26988220214844 L -61 182.77084350585938 L -60.12900161743164 182.98899841308594 L -56 183.60150146484375 L -43 185.52992248535156 L -35.922000885009766 186.5798797607422 L -30.922000885009766 187.3215789794922 L -25.922000885009766 188.0632781982422 L -24.69700050354004 188.2449951171875 L -23 188.32838439941406 L -18 188.57408142089844 L -15.92199993133545 188.67617797851562 L -13 188.81976318359375 L -10.92199993133545 188.921875 L -8 189.06544494628906 L -5.921999931335449 189.1675567626953 L -3 189.31114196777344 L -0.9210000038146973 189.41329956054688 L 0 189.45855712890625 L 4.078999996185303 189.6589813232422 L 9.079000473022461 189.90467834472656 L 10 189.94993591308594 L 11.079999923706055 190.0030059814453 L 14.079000473022461 190.0030059814453 L 14.079000473022461 195.0030059814453 L 19.07900047302246 195.0030059814453 L 19.07900047302246 190.0030059814453 L 24.07900047302246 190.0030059814453 L 24.07900047302246 195.0030059814453 L 27.920000076293945 195.0030059814453 L 29.07900047302246 195.0030059814453 L 29.07900047302246 190.0030059814453 L 34.07899856567383 190.0030059814453 L 34.07899856567383 195.0030059814453 L 39.08000183105469 195.0030059814453 L 39.08000183105469 190.0030059814453 L 44.08000183105469 190.0030059814453 L 44.08000183105469 195.0030059814453 L 49.08000183105469 195.0030059814453 L 49.08000183105469 190.0030059814453 L 54.08000183105469 190.0030059814453 L 54.08000183105469 195.0030059814453 L 59.08000183105469 195.0030059814453 L 59.08000183105469 190.0030059814453 L 64.08000183105469 190.0030059814453 L 64.08000183105469 195.0030059814453 L 69.08000183105469 195.0030059814453 L 69.08000183105469 190.0030059814453 L 74.08000183105469 190.0030059814453 L 74.08000183105469 195.0030059814453 L 79.08100128173828 195.0030059814453 L 79.08100128173828 190.0030059814453 L 84.08100128173828 190.0030059814453 L 84.08100128173828 195.0030059814453 L 89.08100128173828 195.0030059814453 L 89.08100128173828 190.0030059814453 L 94.08100128173828 190.0030059814453 L 94.08100128173828 195.0030059814453 L 99.08100128173828 195.0030059814453 L 99.08100128173828 190.0030059814453 L 104.08100128173828 190.0030059814453 L 104.08100128173828 195.0030059814453 L 109.08100128173828 195.0030059814453 L 109.08100128173828 190.0030059814453 L 114.08100128173828 190.0030059814453 L 114.08100128173828 195.0030059814453 L 119.08200073242188 195.0030059814453 L 119.08200073242188 190.0030059814453 L 124.08200073242188 190.0030059814453 L 124.08200073242188 195.0030059814453 L 129.08200073242188 195.0030059814453 L 129.08200073242188 190.0030059814453 L 134.08200073242188 190.0030059814453 L 134.08200073242188 195.0030059814453 L 139.08200073242188 195.0030059814453 L 139.08200073242188 190.0030059814453 L 144.0800018310547 190.0030059814453 L 144.0800018310547 215 L 139.08200073242188 215 L 134.08200073242188 215 L 129.08200073242188 215 L 124.08200073242188 215 L 119.08200073242188 215 L 114.08100128173828 215 L 109.08100128173828 215 L 104.08100128173828 215 L 99.08100128173828 215 L 94.08100128173828 215 L 89.08100128173828 215 L 84.08100128173828 215 L 79.08100128173828 215 L 74.08000183105469 215 L 69.08000183105469 215 L 64.08000183105469 215 L 59.08000183105469 215 L 54.08000183105469 215 L 49.08000183105469 215 L 44.08000183105469 215 L 39.08000183105469 215 L 34.07899856567383 215 L 29.07900047302246 215 L 27.920000076293945 215 L 24.07900047302246 215 L 19.07900047302246 215 L 14.079000473022461 215 L 9.079000473022461 215 L 4.078999996185303 215 L 0 215 L -0.9210000038146973 215 L -5.921999931335449 215 L -10.92199993133545 215 L -15.92199993133545 215 L -20.922000885009766 215 L -25.922000885009766 215 L -30.922000885009766 215 L -35.922000885009766 215 L -40.92300033569336 215 L -45.92300033569336 215 L -50.92300033569336 215 L -55.92300033569336 215 L -61.496620178222656 215 L -72.08000183105469 215 L -73.08000183105469 215 L -81.80570983886719 215 L -83.4349594116211 215 L -103.95748901367188 215 L -170.0800018310547 215 L -173.0800018310547 215 L -203.91799926757812 215 L -205.4706573486328 215 L -208.91600036621094 215 L -208.91600036621094 210.00900268554688 L -213.91700744628906 210.00900268554688 L -213.91700744628906 215 L -218.91799926757812 215 L -218.91799926757812 210.00900268554688 L -223.91900634765625 210.00900268554688 L -223.91900634765625 215 L -223.92300415039062 215 L -228.121337890625 215 L -228.9199981689453 215 L -228.9199981689453 210.00900268554688 L -233.9199981689453 210.00900268554688 L -233.9199981689453 215 L -238.92100524902344 215 M 12.92300033569336 111 L 12.92300033569336 105.99800109863281 L 7.922999858856201 105.99800109863281 L 7.922999858856201 111 L 2.921999931335449 111 L 2.921999931335449 105.99800109863281 L -2.078000068664551 105.99800109863281 L -2.078000068664551 111 L -7.078000068664551 111 L -7.078000068664551 105.99800109863281 L -12.07800006866455 105.99800109863281 L -12.07800006866455 111 L -17.077999114990234 111 L -17.077999114990234 105.99800109863281 L -22.077999114990234 105.99800109863281 L -22.077999114990234 111 L -27.077999114990234 111 L -27.077999114990234 105.99800109863281 L -32.07899856567383 105.99800109863281 L -32.07899856567383 111 L -37.07899856567383 111 L -37.07899856567383 105.99800109863281 L -42.07899856567383 105.99800109863281 L -42.07899856567383 111 L -47.07699966430664 111 L -47.07899856567383 111 L -47.07899856567383 105.99800109863281 L -52.07699966430664 105.99800109863281 L -52.07899856567383 105.99800109863281 L -52.07899856567383 111 L -57.077999114990234 111 L -57.07899856567383 111 L -57.07899856567383 105.99800109863281 L -62.077999114990234 105.99800109863281 L -62.07899856567383 105.99800109863281 L -62.07899856567383 111 L -67.0780029296875 111 L -67.0790023803711 111 L -67.0790023803711 105.99800109863281 L -72.0780029296875 105.99800109863281 L -72.08000183105469 105.99800109863281 L -72.08000183105469 -17.996999740600586 L -72.0780029296875 -17.996999740600586 L -67.0790023803711 -17.996999740600586 L -67.0790023803711 -23 L -67.0780029296875 -23 L -62.07899856567383 -23 L -62.07899856567383 -17.996999740600586 L -62.077999114990234 -17.996999740600586 L -57.07899856567383 -17.996999740600586 L -57.07899856567383 -23 L -57.077999114990234 -23 L -52.07899856567383 -23 L -52.07899856567383 -17.996999740600586 L -52.07699966430664 -17.996999740600586 L -47.07899856567383 -17.996999740600586 L -47.07899856567383 -23 L -47.07699966430664 -23 L -42.07899856567383 -23 L -42.07899856567383 -17.996999740600586 L -37.07899856567383 -17.996999740600586 L -37.07899856567383 -23 L -32.07899856567383 -23 L -32.07899856567383 -17.996999740600586 L -27.077999114990234 -17.996999740600586 L -27.077999114990234 -23 L -22.077999114990234 -23 L -22.077999114990234 -17.996999740600586 L -17.077999114990234 -17.996999740600586 L -17.077999114990234 -23 L -12.07800006866455 -23 L -12.07800006866455 -17.996999740600586 L -7.078000068664551 -17.996999740600586 L -7.078000068664551 -23 L -2.078000068664551 -23 L -2.078000068664551 -17.996999740600586 L 2.921999931335449 -17.996999740600586 L 2.921999931335449 -23 L 7.922999858856201 -23 L 7.922999858856201 -17.996999740600586 L 12.92300033569336 -17.996999740600586 L 12.92300033569336 -23 L 17.92300033569336 -23 L 17.92300033569336 -17.996999740600586 L 22.92300033569336 -17.996999740600586 L 22.92300033569336 -23 L 23.917999267578125 -23 L 24.92300033569336 -23 L 27.920000076293945 -23 L 27.920000076293945 111 L 24.92300033569336 111 L 23.917999267578125 111 L 22.92300033569336 111 L 22.92300033569336 105.99800109863281 L 17.92300033569336 105.99800109863281 L 17.92300033569336 111 L 12.92300033569336 111 M -121 155 L -126 155 L -126 150 L -131 150 L -131 155 L -136 155 L -136 150 L -149 150 L -149 149.84803771972656 L -141.66700744628906 149.30999755859375 L -132.31300354003906 147.24000549316406 L -131.07200622558594 146.7764129638672 L -123.13899993896484 143.81300354003906 L -116 140.00173950195312 L -116 140 L -76 140 L -76 140.00173950195312 L -73.08000183105469 141.5606231689453 L -72.08000183105469 142.094482421875 L -68.86100006103516 143.81300354003906 L -59.6870002746582 147.24000549316406 L -50.33300018310547 149.30999755859375 L -43 149.84803771972656 L -43 150 L -56 150 L -56 155 L -61 155 L -61 150 L -63 150 L -66 150 L -66 155 L -71 155 L -71 150 L -72.08000183105469 150 L -73.08000183105469 150 L -76 150 L -76.97541046142578 150 L -84.04359436035156 150 L -96 150 L -116 150 L -121 150 L -121 150.322998046875 L -121 155 M -208.39199829101562 -8 L -208.39199829101562 -13 L -203.39199829101562 -13 L -203.39199829101562 -18 L -208.39199829101562 -18 L -208.39199829101562 -23 L -203.39199829101562 -23 L -203.00088500976562 -23 L -202.75518798828125 -18 L -202.50949096679688 -13 L -202.2637939453125 -8 L -202.0181121826172 -3 L -201.8706817626953 1.1102230246251565e-16 L -201.7724151611328 2 L -201.63600158691406 4.776000022888184 L -201.30615234375 7 L -200.56459045410156 12 L -199.82302856445312 17 L -199.0814666748047 22 L -198.33990478515625 27 L -197.5983428955078 32 L -196.85678100585938 37 L -196.38099670410156 40.20800018310547 L -195.93211364746094 42 L -195.68161010742188 43 L -194.67962646484375 47 L -193.42713928222656 52 L -192.17466735839844 57 L -190.92218017578125 62 L -189.66969299316406 67 L -188.41722106933594 72 L -187.677001953125 74.95500183105469 L -186.94528198242188 77 L -185.15626525878906 82 L -183.3672332763672 87 L -181.5782012939453 92 L -179.78916931152344 97 L -178.00013732910156 102 L -180.90232849121094 102 L -187.21649169921875 102 L -196.85850524902344 102 L -203.39199829101562 102 L -203.39199829101562 97 L -203.39199829101562 92 L -208.39199829101562 92 L -208.39199829101562 87.00299835205078 L -208.39199829101562 87 L -204.0019989013672 87 L -204.0019989013672 87.00299835205078 L -203.39199829101562 87.00299835205078 L -197.59544372558594 87.00299835205078 L -192.9969940185547 87.00299835205078 L -192.9969940185547 87 L -192.9969940185547 82 L -192.9969940185547 81.99800109863281 L -197.8413848876953 81.99800109863281 L -203.39199829101562 81.99800109863281 L -204.0019989013672 81.99800109863281 L -204.0019989013672 82 L -208.39199829101562 82 L -208.39199829101562 81.99800109863281 L -208.39199829101562 77.00299835205078 L -208.39199829101562 77 L -204.0019989013672 77 L -204.0019989013672 77.00299835205078 L -203.39199829101562 77.00299835205078 L -198.0868377685547 77.00299835205078 L -192.9969940185547 77.00299835205078 L -192.9969940185547 77 L -192.9969940185547 72 L -192.9969940185547 71.99800109863281 L -198.33277893066406 71.99800109863281 L -203.39199829101562 71.99800109863281 L -204.0019989013672 71.99800109863281 L -204.0019989013672 72 L -208.39199829101562 72 L -208.39199829101562 71.99800109863281 L -208.39199829101562 67 L -203.39199829101562 67 L -203.39199829101562 62 L -208.39199829101562 62 L -208.39199829101562 57 L -203.39199829101562 57 L -203.39199829101562 52 L -208.39199829101562 52 L -208.39199829101562 47 L -203.39199829101562 47 L -203.39199829101562 43 L -203.39199829101562 42 L -208.39199829101562 42 L -208.39199829101562 37 L -203.39199829101562 37 L -203.39199829101562 32 L -208.39199829101562 32 L -208.39199829101562 27 L -203.39199829101562 27 L -203.39199829101562 22 L -208.39199829101562 22 L -208.39199829101562 17 L -203.39199829101562 17 L -203.39199829101562 12 L -208.39199829101562 12 L -208.39199829101562 7 L -203.39199829101562 7 L -203.39199829101562 2 L -208.39199829101562 2 L -208.39199829101562 -3 L -203.39199829101562 -3 L -203.39199829101562 -8 L -208.39199829101562 -8 M -50.07899856567383 137.9969940185547 L -50.07899856567383 132.9969940185547 L -55.07899856567383 132.9969940185547 L -55.07899856567383 137.9969940185547 L -60.07899856567383 137.9969940185547 L -60.07899856567383 132.9969940185547 L -65.08000183105469 132.9969940185547 L -65.08000183105469 137.9969940185547 L -70.08000183105469 137.9969940185547 L -70.08000183105469 132.9969940185547 L -72.08000183105469 132.9969940185547 L -73.08000183105469 132.9969940185547 L -75.08000183105469 132.9969940185547 L -75.08000183105469 137.9969940185547 L -76 137.9969940185547 L -80.08000183105469 137.9969940185547 L -80.08000183105469 132.9969940185547 L -85.08000183105469 132.9969940185547 L -85.08000183105469 137.9969940185547 L -90.08000183105469 137.9969940185547 L -90.08000183105469 132.9969940185547 L -95.08000183105469 132.9969940185547 L -95.08000183105469 137.9969940185547 L -100.08000183105469 137.9969940185547 L -100.08000183105469 132.9969940185547 L -105.08100128173828 132.9969940185547 L -105.08100128173828 137.9969940185547 L -110.08100128173828 137.9969940185547 L -110.08100128173828 132.9969940185547 L -115.08100128173828 132.9969940185547 L -115.08100128173828 137.9969940185547 L -116 137.9969940185547 L -120.08100128173828 137.9969940185547 L -120.08100128173828 132.9969940185547 L -125.08100128173828 132.9969940185547 L -125.08100128173828 137.9969940185547 L -130.08099365234375 137.9969940185547 L -130.08099365234375 132.9969940185547 L -135.08099365234375 132.9969940185547 L -135.08099365234375 137.9969940185547 L -140.08099365234375 137.9969940185547 L -140.08099365234375 132.9969940185547 L -145.08200073242188 132.9969940185547 L -145.08200073242188 137.9969940185547 L -149 137.9969940185547 L -150.08200073242188 137.9969940185547 L -150.08200073242188 132.9969940185547 L -155.08200073242188 132.9969940185547 L -155.08200073242188 137.9969940185547 L -160.08200073242188 137.9969940185547 L -160.08200073242188 132.9969940185547 L -165.08200073242188 132.9969940185547 L -165.08200073242188 137.9969940185547 L -170.0800018310547 137.9969940185547 L -170.0800018310547 113 L -165.08200073242188 113 L -160.08200073242188 113 L -155.08200073242188 113 L -150.08200073242188 113 L -145.08200073242188 113 L -140.08099365234375 113 L -135.08099365234375 113 L -130.08099365234375 113 L -125.08100128173828 113 L -120.08100128173828 113 L -115.08100128173828 113 L -110.08100128173828 113 L -105.08100128173828 113 L -100.08000183105469 113 L -95.08000183105469 113 L -90.08000183105469 113 L -85.08000183105469 113 L -80.08000183105469 113 L -75.08000183105469 113 L -73.08000183105469 113 L -72.08000183105469 113 L -70.08000183105469 113 L -65.08000183105469 113 L -60.07899856567383 113 L -55.07899856567383 113 L -50.07899856567383 113 L -45.07899856567383 113 L -40.07899856567383 113 L -35.07899856567383 113 L -34.00199890136719 113 L -32.99700164794922 113 L -30.082000732421875 113 L -30.082000732421875 132.9969940185547 L -32.99700164794922 132.9969940185547 L -34.00199890136719 132.9969940185547 L -35.07899856567383 132.9969940185547 L -35.07899856567383 137.9969940185547 L -35.07899856567383 138.0019989013672 L -30.082000732421875 138.0019989013672 L -30.082000732421875 138.3408660888672 L -35.07899856567383 138.09532165527344 L -37.08000183105469 137.9969940185547 L -40.07899856567383 137.9969940185547 L -40.07899856567383 132.9969940185547 L -45.07899856567383 132.9969940185547 L -45.07899856567383 137.9969940185547 L -50.07899856567383 137.9969940185547 M -250 97 L -250 98.54113006591797 L -250 102 L -255 102 L -255.39088439941406 102 L -255.63644409179688 97 L -255.8820037841797 92 L -256.05706787109375 88.43538665771484 L -256.1275634765625 87 L -256.37310791015625 82 L -256.61865234375 77 L -256.6690979003906 75.97306060791016 L -256.7550048828125 74.2239990234375 L -257.08489990234375 72 L -257.0873107910156 71.9838638305664 L -257.82659912109375 67 L -258.5683288574219 62 L -259.3100280761719 57 L -260.0517272949219 52 L -260.7934265136719 47 L -261.38677978515625 43 L -261.5351257324219 42 L -262.010986328125 38.79199981689453 L -262.45989990234375 37 L -263.7123718261719 32 L -264.96484375 27 L -266.21734619140625 22 L -267.4698181152344 17 L -268.7222900390625 12 L -269.97479248046875 7 L -270.7149963378906 4.045000076293945 L -271.44671630859375 2 L -272.1623229980469 1.1102230246251565e-16 L -273 -2.3411459922790527 L -273.2357482910156 -3 L -275.0247802734375 -8 L -276.8138122558594 -13 L -278.6028137207031 -18 L -280.391845703125 -23 L -273 -23 L -255 -23 L -255 -18 L -255 -13 L -250 -13 L -250 -8.003000259399414 L -250 -8 L -254.38999938964844 -8 L -254.38999938964844 -8.003000259399414 L -255 -8.003000259399414 L -265.3949890136719 -8.003000259399414 L -265.3949890136719 -8 L -265.3949890136719 -3 L -265.3949890136719 -2.997999906539917 L -255 -2.997999906539917 L -254.38999938964844 -2.997999906539917 L -254.38999938964844 -3 L -250 -3 L -250 -2.997999906539917 L -250 1.1102230246251565e-16 L -250 1.996999979019165 L -250 2 L -254.38999938964844 2 L -254.38999938964844 1.996999979019165 L -255 1.996999979019165 L -257.8305969238281 1.996999979019165 L -260.3021240234375 1.9972245693206787 L -265.3949890136719 1.9976873397827148 L -265.3949890136719 2 L -265.3949890136719 7 L -265.3949890136719 7.002999782562256 L -260.0563049316406 7.002999782562256 L -255 7.002999782562256 L -254.38999938964844 7.002999782562256 L -254.38999938964844 7 L -250 7 L -250 7.002999782562256 L -250 12 L -255 12 L -255 17 L -250 17 L -250 22 L -255 22 L -255 27 L -250 27 L -250 32 L -255 32 L -255 37 L -250 37 L -250 42 L -255 42 L -255 43 L -255 47 L -250 47 L -250 52 L -255 52 L -255 57 L -250 57 L -250 62 L -255 62 L -255 67 L -250 67 L -250 72 L -255 72 L -255 74.28688049316406 L -255 77 L -252.541015625 77 L -250 77 L -250 79.8036117553711 L -250 82 L -252.19906616210938 82 L -255 82 L -255 87 L -250 87 L -250 92 L -253.92054748535156 92 L -255 92 L -255 97 L -250.9237060546875 97 L -250 97 M -30.07699966430664 138.3411102294922 L -30.07699966430664 137.9969940185547 L -30.07699966430664 113 L -27.00200080871582 113 L -25.996999740600586 113 L -25.07900047302246 113 L -20.077999114990234 113 L -15.07800006866455 113 L -10.07800006866455 113 L -5.078000068664551 113 L -0.07800000160932541 113 L 4.921999931335449 113 L 9.92199993133545 113 L 14.92300033569336 113 L 19.92300033569336 113 L 24.92300033569336 113 L 27.920000076293945 113 L 29 113 L 29.92300033569336 113 L 35.49514389038086 113 L 49 113 L 50 113 L 55.80834197998047 113 L 55.99800109863281 113 L 57.00299835205078 113 L 59.917999267578125 113 L 59.917999267578125 137.9969940185547 L 59.917999267578125 145.5939178466797 L 59.917999267578125 150.5089569091797 L 59.917999267578125 151.47048950195312 L 34.12900161743164 145.01100158691406 L 27.920000076293945 144.08995056152344 L 10 141.4316864013672 L 9.92199993133545 141.4201202392578 L 4.921999931335449 140.6784210205078 L 0 139.9482879638672 L -0.07800000160932541 139.9367218017578 L -1.3029999732971191 139.7550048828125 L -10.07800006866455 139.32382202148438 L -15.07800006866455 139.078125 L -20.077999114990234 138.8324432373047 L -23 138.68885803222656 L -25.07900047302246 138.58670043945312 L -30.07699966430664 138.3411102294922 M -114.51000213623047 163.97500610351562 L -114.4645004272461 163.92950439453125 L -111.82437896728516 161.28912353515625 L -114.46499633789062 163.9290008544922 L -116 162.3939971923828 L -118 160.3939971923828 L -116 158.3934326171875 L -114.46499633789062 156.85800170898438 L -110.92916870117188 160.39382934570312 L -103.90399932861328 153.3679962158203 L -101.2916488647461 155.9803466796875 L -97.75550079345703 159.51649475097656 L -96.8324966430664 160.4394989013672 L -96 159.60699462890625 L -93.3219985961914 156.9290008544922 L -89.78700256347656 160.46499633789062 L -93.2969970703125 163.97500610351562 L -93.3219985961914 164 L -93.34700775146484 163.97500610351562 L -96 163.97500610351562 L -102.21399688720703 163.97500610351562 L -107.3479995727539 163.97500610351562 L -109.28856658935547 163.97500610351562 L -114.41899871826172 163.97500610351562 L -114.51000213623047 163.97500610351562 M 10 167 L 0 167 L -3 167 L -3 172 L -8 172 L -8 167 L -13 167 L -13 172 L -18 172 L -18 167 L -23 167 L -43 167 L -56 167 L -61 167 L -63 167 L -66 167 L -68 167 L -68 172 L -71 172 L -72.08000183105469 172 L -73 172 L -73 167 L -73.08000183105469 167 L -76 167 L -78 167 L -78 172 L -83 172 L -83 167 L -96 167 L -96 166.84803771972656 L -88.66699981689453 166.30999755859375 L -83.03387451171875 165.06341552734375 L -79.31300354003906 164.24000549316406 L -76 163.00241088867188 L -73.08000183105469 161.91162109375 L -72.39219665527344 161.65469360351562 L -72.08000183105469 161.53807067871094 L -71 161.13462829589844 L -70.13899993896484 160.81300354003906 L -66 158.60333251953125 L -63 157.00173950195312 L -63 157 L -61 157 L -56 157 L -43 157 L -23 157 L -23 157.00173950195312 L -15.861000061035156 160.81300354003906 L -6.686999797821045 164.24000549316406 L 0 165.7198028564453 L 2.6670000553131104 166.30999755859375 L 10 166.84803771972656 L 10 167 M -323.6109924316406 86 L -323.6109924316406 86.00299835205078 L -323 86.00299835205078 L -317.20672607421875 86.00299835205078 L -312.6059875488281 86.00299835205078 L -312.6059875488281 86 L -312.6059875488281 81 L -312.6059875488281 80.99800109863281 L -317.4525451660156 80.99800109863281 L -323 80.99800109863281 L -323.6109924316406 80.99800109863281 L -323.6109924316406 81 L -328 81 L -328 80.99800109863281 L -328 76.00299835205078 L -328 76 L -323.6109924316406 76 L -323.6109924316406 76.00299835205078 L -323 76.00299835205078 L -317.6978454589844 76.00299835205078 L -312.6059875488281 76.00299835205078 L -312.6059875488281 76 L -312.6059875488281 71 L -312.6059875488281 70.99800109863281 L -317.94366455078125 70.99800109863281 L -323 70.99800109863281 L -323.6109924316406 70.99800109863281 L -323.6109924316406 71 L -328 71 L -328 70.99800109863281 L -328 66 L -323 66 L -323 61 L -328 61 L -328 56 L -323 56 L -323 51 L -328 51 L -328 46 L -323 46 L -323 41 L -328 41 L -328 36 L -323 36 L -323 31 L -328 31 L -328 26 L -323 26 L -323 21 L -328 21 L -328 16 L -323 16 L -323 11 L -328 11 L -328 6 L -323 6 L -323 1 L -328 1 L -328 1.1102230246251565e-16 L -328 -4 L -323 -4 L -323 -9 L -328 -9 L -328 -14 L -323 -14 L -323 -19 L -328 -19 L -328 -24 L -323 -24 L -322.6091003417969 -24 L -322.3635559082031 -19 L -322.1180114746094 -14 L -321.8724365234375 -9 L -321.62689208984375 -4 L -321.4304504394531 1.1102230246251565e-16 L -321.38134765625 1 L -321.2449951171875 3.7760000228881836 L -320.91510009765625 6 L -320.17340087890625 11 L -319.4316711425781 16 L -318.6899719238281 21 L -317.9482727050781 26 L -317.2065734863281 31 L -316.4648742675781 36 L -315.989013671875 39.20800018310547 L -315.54010009765625 41 L -314.2876281738281 46 L -313.03515625 51 L -311.78265380859375 56 L -310.5301818847656 61 L -309.2777099609375 66 L -308.02520751953125 71 L -307.2850036621094 73.95500183105469 L -306.55328369140625 76 L -304.7642517089844 81 L -302.9752197265625 86 L -301.1861877441406 91 L -299.3971862792969 96 L -297.608154296875 101 L -300.51031494140625 101 L -306.82275390625 101 L -316.47021484375 101 L -323 101 L -323 96 L -323 91 L -328 91 L -328 86.00299835205078 L -328 86 L -323.6109924316406 86 M 155.00100708007812 -18.00200080871582 L 157.72592163085938 -18.00200080871582 L 158.85919189453125 -18.00200080871582 L 160 -18.00200080871582 L 160 -23 L 165.00100708007812 -23 L 165.00100708007812 -18.00200080871582 L 170.0019989013672 -18.00200080871582 L 170.0019989013672 -23 L 171.31663513183594 -23 L 172.44989013671875 -23 L 175.00100708007812 -23 L 175.00100708007812 106.00199890136719 L 172.44989013671875 106.00199890136719 L 171.31663513183594 106.00199890136719 L 170.0019989013672 106.00199890136719 L 165.00100708007812 106.00199890136719 L 160 106.00199890136719 L 158.85919189453125 106.00199890136719 L 157.72592163085938 106.00199890136719 L 155.00100708007812 106.00199890136719 L 155.00100708007812 -18.00200080871582 M -75.48999786376953 151.39300537109375 L -75.53600311279297 151.43899536132812 L -73.08000183105469 153.89430236816406 L -72.08000183105469 154.89402770996094 L -72 154.9739990234375 L -72.08000183105469 155.0540008544922 L -73.08000183105469 156.0540008544922 L -75.53600311279297 158.50999450683594 L -76 158.04586791992188 L -79.07099914550781 154.9739990234375 L -86.09700012207031 162 L -88.7093734741211 159.3873748779297 L -92.24471282958984 155.85171508789062 L -93.16766357421875 154.9286651611328 L -96 157.76100158691406 L -96.6780014038086 158.43899536132812 L -100.21399688720703 154.9029998779297 L -96.70301055908203 151.39300537109375 L -96.6780014038086 151.3679962158203 L -96.65299224853516 151.39300537109375 L -96 151.39300537109375 L -82.65098571777344 151.39300537109375 L -76 151.39300537109375 L -75.58201599121094 151.39300537109375 L -75.48999786376953 151.39300537109375 M 176 -17.99799919128418 L 178.72512817382812 -17.99799919128418 L 179.85801696777344 -17.99799919128418 L 181.0019989013672 -17.99799919128418 L 181.0019989013672 -23 L 185.9969940185547 -23 L 185.9969940185547 -17.99799919128418 L 191.0019989013672 -17.99799919128418 L 191.0019989013672 -23 L 196 -23 L 196 105.99800109863281 L 191.0019989013672 105.99800109863281 L 185.9969940185547 105.99800109863281 L 181.0019989013672 105.99800109863281 L 179.85801696777344 105.99800109863281 L 178.72512817382812 105.99800109863281 L 176 105.99800109863281 L 176 -17.99799919128418 M -248 92 L -248 87.6615982055664 L -248 87.00299835205078 L -248 87 L -243.61099243164062 87 L -243.61099243164062 87.00299835205078 L -243.47496032714844 87.00299835205078 L -243 87.00299835205078 L -242.70523071289062 87.00299835205078 L -237.2067413330078 87.00299835205078 L -232.6060028076172 87.00299835205078 L -232.6060028076172 87 L -232.6060028076172 82 L -232.6060028076172 81.99800109863281 L -237.45254516601562 81.99800109863281 L -243 81.99800109863281 L -243.61099243164062 81.99800109863281 L -243.61099243164062 82 L -248 82 L -248 81.99800109863281 L -248 77.00299835205078 L -248 77 L -243.61099243164062 77 L -243.61099243164062 77.00299835205078 L -243 77.00299835205078 L -237.69784545898438 77.00299835205078 L -232.6060028076172 77.00299835205078 L -232.6060028076172 77 L -232.6060028076172 72 L -232.6060028076172 71.99800109863281 L -237.9436492919922 71.99800109863281 L -243 71.99800109863281 L -243.61099243164062 71.99800109863281 L -243.61099243164062 72 L -248 72 L -248 71.99800109863281 L -248 67 L -243 67 L -243 62 L -248 62 L -248 57 L -243 57 L -243 52 L -248 52 L -248 47 L -243 47 L -243 43 L -243 42 L -248 42 L -248 37 L -243 37 L -243 32 L -248 32 L -248 27 L -243 27 L -243 22 L -248 22 L -248 17 L -243 17 L -243 12 L -248 12 L -248 7 L -243 7 L -243 2 L -248 2 L -248 1.1102230246251565e-16 L -248 -3 L -243 -3 L -243 -8 L -248 -8 L -248 -13 L -243 -13 L -243 -18 L -248 -18 L -248 -23 L -243 -23 L -242.60911560058594 -23 L -242.36355590820312 -18 L -242.1179962158203 -13 L -241.8724365234375 -8 L -241.62689208984375 -3 L -241.47955322265625 1.1102230246251565e-16 L -241.38133239746094 2 L -241.2449951171875 4.776000022888184 L -240.9150848388672 7 L -240.1733856201172 12 L -239.4316864013672 17 L -238.6899871826172 22 L -237.9482879638672 27 L -237.20657348632812 32 L -236.46487426757812 37 L -235.98899841308594 40.20800018310547 L -235.5401153564453 42 L -235.28961181640625 43 L -234.28762817382812 47 L -233.03514099121094 52 L -231.7826690673828 57 L -230.53018188476562 62 L -229.27769470214844 67 L -228.0252227783203 72 L -227.28500366210938 74.95500183105469 L -226.55328369140625 77 L -224.76425170898438 82 L -222.97523498535156 87 L -221.1862030029297 92 L -219.3971710205078 97 L -217.60813903808594 102 L -220.5103302001953 102 L -226.15834045410156 102 L -229.88267517089844 102 L -237.36557006835938 102 L -243 102 L -243 97 L -243 94.4030990600586 L -243 92 L -244.78231811523438 92 L -248 92 M -170 52 L -173.0800018310547 52 L -175 52 L -175 57 L -173.0800018310547 57 L -170 57 L -170 62 L -173.0800018310547 62 L -175 62 L -175 67 L -173.0800018310547 67 L -170 67 L -170 72 L -173.0800018310547 72 L -175 72 L -175 77 L -173.0800018310547 77 L -170 77 L -170 82 L -173.0800018310547 82 L -175 82 L -175 87 L -173.0800018310547 87 L -170 87 L -170 92 L -173.0800018310547 92 L -175 92 L -175 97 L -173.0800018310547 97 L -170 97 L -170 102 L -173.0800018310547 102 L -175 102 L -175.39088439941406 102 L -175.63644409179688 97 L -175.8820037841797 92 L -176.1275634765625 87 L -176.37310791015625 82 L -176.61866760253906 77 L -176.7550048828125 74.2239990234375 L -177.0849151611328 72 L -177.8266143798828 67 L -178.5683135986328 62 L -179.3100128173828 57 L -180.0517120361328 52 L -180.79342651367188 47 L -181.38677978515625 43 L -181.53512573242188 42 L -182.01100158691406 38.79199981689453 L -182.4598846435547 37 L -183.71237182617188 32 L -184.96485900878906 27 L -186.2173309326172 22 L -187.46981811523438 17 L -188.72230529785156 12 L -189.9747772216797 7 L -190.71499633789062 4.045000076293945 L -191.44671630859375 2 L -192.16232299804688 1.1102230246251565e-16 L -193.2350311279297 -2.997999906539917 L -193.23574829101562 -3 L -195.02476501464844 -8 L -195.02584838867188 -8.003000259399414 L -196.8137969970703 -13 L -198.6028289794922 -18 L -200.39186096191406 -23 L -175 -23 L -175 -18 L -175 -13 L -173.0800018310547 -13 L -170 -13 L -170 -8 L -173.0800018310547 -8 L -174.38999938964844 -8 L -174.38999938964844 -8.003000259399414 L -175 -8.003000259399414 L -185.39500427246094 -8.003000259399414 L -185.39500427246094 -8 L -185.39500427246094 -3 L -185.39500427246094 -2.997999906539917 L -175 -2.997999906539917 L -174.38999938964844 -2.997999906539917 L -174.38999938964844 -3 L -173.0800018310547 -3 L -170 -3 L -170 2 L -173.0800018310547 2 L -174.38999938964844 2 L -174.38999938964844 1.996999979019165 L -175 1.996999979019165 L -177.8306121826172 1.996999979019165 L -180.30213928222656 1.9972245693206787 L -185.39500427246094 1.9976873397827148 L -185.39500427246094 2 L -185.39500427246094 7 L -185.39500427246094 7.002999782562256 L -180.05630493164062 7.002999782562256 L -175 7.002999782562256 L -174.38999938964844 7.002999782562256 L -174.38999938964844 7 L -173.0800018310547 7 L -170 7 L -170 12 L -173.0800018310547 12 L -175 12 L -175 17 L -173.0800018310547 17 L -170 17 L -170 22 L -173.0800018310547 22 L -175 22 L -175 27 L -173.0800018310547 27 L -170 27 L -170 32 L -173.0800018310547 32 L -175 32 L -175 37 L -173.0800018310547 37 L -170 37 L -170 42 L -173.0800018310547 42 L -175 42 L -175 43 L -175 47 L -173.0800018310547 47 L -170 47 L -170 52 M 59.92300033569336 151.4717559814453 L 59.92300033569336 150.51075744628906 L 59.92300033569336 145.59628295898438 L 59.92300033569336 137.9969940185547 L 59.92300033569336 113 L 62.99800109863281 113 L 64.00299835205078 113 L 70 113 L 71 113 L 91 113 L 92 113 L 112 113 L 113 113 L 133 113 L 134 113 L 154 113 L 155.00100708007812 113 L 175.00100708007812 113 L 176 113 L 196 113 L 197 113 L 245.40333557128906 113 L 246.55398559570312 113 L 252.9998016357422 113 L 239.14366149902344 137.9969940185547 L 227.2162322998047 159.51455688476562 L 214.5521697998047 182.3610076904297 L 212.68699645996094 185.72586059570312 L 212.43194580078125 186.18600463867188 L 211.96798706054688 187.0229949951172 L 211.57200622558594 186.87100219726562 L 210.41600036621094 186.54299926757812 L 209.22900390625 186.31900024414062 L 208.0240020751953 186.19900512695312 L 206.81100463867188 186.18600463867188 L 205.60299682617188 186.27999877929688 L 204.8000030517578 186.4139404296875 L 204.41000366210938 186.47900390625 L 203.24600219726562 186.781005859375 L 202.1199951171875 187.18499755859375 L 201.04299926757812 187.68499755859375 L 200.02699279785156 188.2779998779297 L 199.53074645996094 188.63381958007812 L 199.0800018310547 188.95700073242188 L 198.21200561523438 189.71499633789062 L 197.43099975585938 190.54600524902344 L 196.74600219726562 191.44200134277344 L 196.60800170898438 191.6665802001953 L 196.16099548339844 192.3939971923828 L 195.68299865722656 193.39199829101562 L 195.31700134277344 194.427001953125 L 195.06700134277344 195.49000549316406 L 194.93299865722656 196.56900024414062 L 194.9324951171875 196.60800170898438 L 194.91900634765625 197.65499877929688 L 195.0229949951172 198.73699951171875 L 195.2449951171875 199.8040008544922 L 195.58399963378906 200.8470001220703 L 196.03399658203125 201.85499572753906 L 196.59300231933594 202.81900024414062 L 197.2550048828125 203.72900390625 L 198.01300048828125 204.57699584960938 L 198.86000061035156 205.35400390625 L 199.78799438476562 206.05299377441406 L 200.78900146484375 206.66700744628906 L 201.01678466796875 206.77938842773438 L 201.00547790527344 206.79978942871094 L 200.93890380859375 206.91989135742188 L 200.8135223388672 207.1460723876953 L 200.7886199951172 207.1909942626953 L 199.34584045410156 209.7938232421875 L 195.49342346191406 216.74374389648438 L 193.63821411132812 220.09059143066406 L 193.58409118652344 220.188232421875 L 165.7050018310547 199.51100158691406 L 144.0800018310547 186.55035400390625 L 134.9810028076172 181.0970001220703 L 102.60099792480469 165.78199768066406 L 68.875 153.71400451660156 L 59.92300033569336 151.4717559814453 M 257 105.99800109863281 L 252.0030059814453 105.99800109863281 L 247.0030059814453 105.99800109863281 L 247.0019989013672 105.99800109863281 L 242.0019989013672 105.99800109863281 L 241.9980010986328 105.99800109863281 L 241.9969940185547 105.99800109863281 L 237.00100708007812 105.99800109863281 L 232.00100708007812 105.99800109863281 L 227 105.99800109863281 L 222 105.99800109863281 L 217.0030059814453 105.99800109863281 L 217.0019989013672 105.99800109863281 L 216.99899291992188 105.99800109863281 L 211.99899291992188 105.99800109863281 L 211.9980010986328 105.99800109863281 L 211.9969940185547 105.99800109863281 L 206.9980010986328 105.99800109863281 L 201.9980010986328 105.99800109863281 L 197 105.99800109863281 L 197 -17.996999740600586 L 201.9980010986328 -17.996999740600586 L 201.9980010986328 -23 L 206.9980010986328 -23 L 206.9980010986328 -17.996999740600586 L 211.9969940185547 -17.996999740600586 L 211.9980010986328 -17.996999740600586 L 211.99899291992188 -17.996999740600586 L 211.99899291992188 -18.035999298095703 L 211.99899291992188 -23 L 216.99899291992188 -23 L 216.99899291992188 -18.035999298095703 L 216.99899291992188 -17.996999740600586 L 217.0019989013672 -17.996999740600586 L 217.0030059814453 -17.996999740600586 L 222 -17.996999740600586 L 222 -23 L 227 -23 L 227 -17.996999740600586 L 232.00100708007812 -17.996999740600586 L 232.00100708007812 -23 L 237.00100708007812 -23 L 237.00100708007812 -17.996999740600586 L 241.9969940185547 -17.996999740600586 L 241.9980010986328 -17.996999740600586 L 242.0019989013672 -17.996999740600586 L 242.0019989013672 -18.035999298095703 L 242.0019989013672 -23 L 247.0019989013672 -23 L 247.0019989013672 -18.035999298095703 L 247.0019989013672 -17.996999740600586 L 247.0030059814453 -17.996999740600586 L 252.0030059814453 -17.996999740600586 L 252.0030059814453 -23 L 257 -23 L 257 105.99800109863281 M -215 -23 L -215 -18 L -215 -13 L -210 -13 L -210 -8.003000259399414 L -210 -8 L -214.38999938964844 -8 L -214.38999938964844 -8.003000259399414 L -215 -8.003000259399414 L -225.39500427246094 -8.003000259399414 L -225.39500427246094 -8 L -225.39500427246094 -3 L -225.39500427246094 -2.997999906539917 L -215 -2.997999906539917 L -214.38999938964844 -2.997999906539917 L -214.38999938964844 -3 L -210 -3 L -210 -2.997999906539917 L -210 1.996999979019165 L -210 2 L -214.38999938964844 2 L -214.38999938964844 1.996999979019165 L -215 1.996999979019165 L -217.8306121826172 1.996999979019165 L -220.30213928222656 1.9972245693206787 L -225.39500427246094 1.9976873397827148 L -225.39500427246094 2 L -225.39500427246094 7 L -225.39500427246094 7.002999782562256 L -220.05630493164062 7.002999782562256 L -215 7.002999782562256 L -214.38999938964844 7.002999782562256 L -214.38999938964844 7 L -210 7 L -210 7.002999782562256 L -210 12 L -215 12 L -215 17 L -210 17 L -210 22 L -215 22 L -215 27 L -210 27 L -210 32 L -215 32 L -215 37 L -210 37 L -210 42 L -215 42 L -215 43 L -215 47 L -210 47 L -210 52 L -215 52 L -215 57 L -210 57 L -210 62 L -215 62 L -215 67 L -210 67 L -210 72 L -215 72 L -215 77 L -210 77 L -210 82 L -215 82 L -215 87 L -210 87 L -210 92 L -215 92 L -215 97 L -210 97 L -210 102 L -215 102 L -215.39088439941406 102 L -215.63644409179688 97 L -215.8820037841797 92 L -216.1275634765625 87 L -216.37310791015625 82 L -216.61866760253906 77 L -216.7550048828125 74.2239990234375 L -217.0849151611328 72 L -217.8266143798828 67 L -218.5683135986328 62 L -219.3100128173828 57 L -220.0517120361328 52 L -220.79342651367188 47 L -221.38677978515625 43 L -221.53512573242188 42 L -222.01100158691406 38.79199981689453 L -222.4598846435547 37 L -223.71237182617188 32 L -224.96485900878906 27 L -226.2173309326172 22 L -227.46981811523438 17 L -228.72230529785156 12 L -229.9747772216797 7 L -230.71499633789062 4.045000076293945 L -231.44671630859375 2 L -232.16232299804688 1.1102230246251565e-16 L -233.2350311279297 -2.997999906539917 L -233.23574829101562 -3 L -235.02476501464844 -8 L -235.02584838867188 -8.003000259399414 L -236.8137969970703 -13 L -238.6028289794922 -18 L -240.39186096191406 -23 L -215 -23 M 92 -17.99799919128418 L 94.90833282470703 -17.99799919128418 L 95.96041107177734 -17.99799919128418 L 97.00299835205078 -17.99799919128418 L 97.00299835205078 -23 L 101.99800109863281 -23 L 101.99800109863281 -17.99799919128418 L 107.00299835205078 -17.99799919128418 L 107.00299835205078 -23 L 107.52603149414062 -23 L 108.57847595214844 -23 L 112 -23 L 112 105.99800109863281 L 108.57847595214844 105.99800109863281 L 107.52603149414062 105.99800109863281 L 107.00299835205078 105.99800109863281 L 101.99800109863281 105.99800109863281 L 97.00299835205078 105.99800109863281 L 95.96041107177734 105.99800109863281 L 94.90833282470703 105.99800109863281 L 92 105.99800109863281 L 92 -17.99799919128418 M 71 -17.99799919128418 L 73.91400146484375 -17.99799919128418 L 74.96039581298828 -17.99799919128418 L 76.00299835205078 -17.99799919128418 L 76.00299835205078 -23 L 80.99800109863281 -23 L 80.99800109863281 -17.99799919128418 L 86.00299835205078 -17.99799919128418 L 86.00299835205078 -23 L 86.46077728271484 -23 L 87.50775909423828 -23 L 91 -23 L 91 105.99800109863281 L 87.50775909423828 105.99800109863281 L 86.46077728271484 105.99800109863281 L 86.00299835205078 105.99800109863281 L 80.99800109863281 105.99800109863281 L 76.00299835205078 105.99800109863281 L 74.96039581298828 105.99800109863281 L 73.91400146484375 105.99800109863281 L 71 105.99800109863281 L 71 -17.99799919128418 M 113 -17.996000289916992 L 115.83134460449219 -17.996000289916992 L 116.92636108398438 -17.996000289916992 L 118.00199890136719 -17.996000289916992 L 118.00199890136719 -22.99799919128418 L 122.99700164794922 -22.99799919128418 L 122.99700164794922 -17.996000289916992 L 127.8728256225586 -17.996000289916992 L 128.0019989013672 -17.996000289916992 L 128.0019989013672 -22.99799919128418 L 128.9680938720703 -22.99799919128418 L 133 -22.99799919128418 L 133 106 L 128.9680938720703 106 L 128.0019989013672 106 L 127.8728256225586 106 L 122.99700164794922 106 L 118.00199890136719 106 L 116.92636108398438 106 L 115.83134460449219 106 L 113 106 L 113 -17.996000289916992 M 34.00299835205078 111 L 34.00299835205078 105.99800109863281 L 33.90812683105469 105.99800109863281 L 32.89109420776367 105.99800109863281 L 29 105.99800109863281 L 29 -17.99799919128418 L 32.89109420776367 -17.99799919128418 L 33.90812683105469 -17.99799919128418 L 34.00299835205078 -17.99799919128418 L 34.00299835205078 -23 L 38.99800109863281 -23 L 38.99800109863281 -17.99799919128418 L 44.00299835205078 -17.99799919128418 L 44.00299835205078 -23 L 45.07689666748047 -23 L 46.09360885620117 -23 L 49 -23 L 49 111 L 46.09360885620117 111 L 45.07689666748047 111 L 44.00299835205078 111 L 44.00299835205078 105.99800109863281 L 38.99800109863281 105.99800109863281 L 38.99800109863281 111 L 34.00299835205078 111 M 50 -17.996000289916992 L 52.90525436401367 -17.996000289916992 L 53.9332389831543 -17.996000289916992 L 55.00299835205078 -17.996000289916992 L 55.00299835205078 -22.99799919128418 L 59.99800109863281 -22.99799919128418 L 59.99800109863281 -17.996000289916992 L 65.00299835205078 -17.996000289916992 L 65.00299835205078 -22.99799919128418 L 66.24781036376953 -22.99799919128418 L 67.27548217773438 -22.99799919128418 L 70 -22.99799919128418 L 70 106 L 67.27548217773438 106 L 66.24781036376953 106 L 65.00299835205078 106 L 59.99800109863281 106 L 55.00299835205078 106 L 53.9332389831543 106 L 52.90525436401367 106 L 50 106 L 50 -17.996000289916992 M 134 -17.99799919128418 L 136.72523498535156 -17.99799919128418 L 137.85838317871094 -17.99799919128418 L 139.0019989013672 -17.99799919128418 L 139.0019989013672 -23 L 143.9969940185547 -23 L 143.9969940185547 -17.99799919128418 L 149.0019989013672 -17.99799919128418 L 149.0019989013672 -23 L 150.3161163330078 -23 L 151.44993591308594 -23 L 154 -23 L 154 105.99800109863281 L 151.44993591308594 105.99800109863281 L 150.3161163330078 105.99800109863281 L 149.0019989013672 105.99800109863281 L 143.9969940185547 105.99800109863281 L 139.0019989013672 105.99800109863281 L 137.85838317871094 105.99800109863281 L 136.72523498535156 105.99800109863281 L 134 105.99800109863281 L 134 -17.99799919128418 M -186.9239959716797 142.3669891357422 L -188.94000244140625 141.2949981689453 L -190.90985107421875 145.0005340576172 L -191.28700256347656 145.7100067138672 L -189.31781005859375 146.75709533691406 L -186.9239959716797 148.0299835205078 L -186.8734130859375 148.056884765625 L -185.91900634765625 146.2618865966797 L -184.5260467529297 143.64207458496094 L -185.91900634765625 142.90138244628906 L -186.9239959716797 142.3669891357422 M -143.07699584960938 5.998000144958496 L -143.08099365234375 5.998000144958496 L -148.08099365234375 5.998000144958496 L -148.08200073242188 5.998000144958496 L -148.08200073242188 11.003000259399414 L -148.08099365234375 11.003000259399414 L -143.08099365234375 11.003000259399414 L -143.07699584960938 11.003000259399414 L -143.07699584960938 5.998000144958496 M -10.07800006866455 138.0019989013672 L -10.07800006866455 137.9969940185547 L -10.07800006866455 132.9969940185547 L -15.07800006866455 132.9969940185547 L -15.07800006866455 137.9969940185547 L -15.07800006866455 138.0019989013672 L -13.120408058166504 138.0019989013672 L -10.07800006866455 138.0019989013672 M -143.07699584960938 70.99800109863281 L -143.08099365234375 70.99800109863281 L -148.08099365234375 70.99800109863281 L -148.08200073242188 70.99800109863281 L -148.08200073242188 76.00299835205078 L -148.08099365234375 76.00299835205078 L -143.08099365234375 76.00299835205078 L -143.07699584960938 76.00299835205078 L -143.07699584960938 70.99800109863281 M -77.56300354003906 190.927001953125 L -73.08000183105469 191.7174530029297 L -72.64063262939453 191.794921875 L -72.32471466064453 190.0030059814453 L -72.1344223022461 188.9236602783203 L -72.08000183105469 188.614990234375 L -71.77234649658203 186.86996459960938 L -72.08000183105469 186.8157196044922 L -73.08000183105469 186.639404296875 L -76.69499969482422 186.0019989013672 L -76.81941223144531 186.70790100097656 L -77.40015411376953 190.0030059814453 L -77.56300354003906 190.927001953125 M -173.91900634765625 149.2822723388672 L -174.08984375 149.19142150878906 L -174.9239959716797 148.74786376953125 L -175.69496154785156 148.33792114257812 L -180.110107421875 145.99020385742188 L -182.4574737548828 150.40501403808594 L -178.0415496826172 152.75314331054688 L -175.69500732421875 148.33799743652344 L -174.9239959716797 148.74794006347656 L -174.08973693847656 149.1915283203125 L -173.91900634765625 149.2823028564453 L -173.0800018310547 149.72840881347656 L -172.9813232421875 149.78086853027344 L -173.0800018310547 149.7283935546875 L -173.91900634765625 149.2822723388672 M -153.07699584960938 -14.001999855041504 L -153.08200073242188 -14.001999855041504 L -153.08200073242188 -12.996999740600586 L -153.07699584960938 -12.996999740600586 L -149.07699584960938 -12.996999740600586 L -149.07699584960938 -14.001999855041504 L -153.07699584960938 -14.001999855041504 M 36.793617248535156 134.4691619873047 L 36.17190170288086 137.9969940185547 L 35.925331115722656 139.3961181640625 L 40.84633255004883 140.2641143798828 L 41.24586868286133 137.9969940185547 L 41.71461868286133 135.33717346191406 L 36.793617248535156 134.4691619873047 M 217.0019989013672 -8.098999977111816 L 216.99899291992188 -8.098999977111816 L 211.99899291992188 -8.098999977111816 L 211.9980010986328 -8.098999977111816 L 211.9980010986328 -3.0980000495910645 L 211.99899291992188 -3.0980000495910645 L 216.99899291992188 -3.0980000495910645 L 217.0019989013672 -3.0980000495910645 L 217.0030059814453 -3.0980000495910645 L 217.0030059814453 -8.098999977111816 L 217.0019989013672 -8.098999977111816 M 27.920000076293945 138.0019989013672 L 29.92300033569336 138.0019989013672 L 29.92300033569336 137.9969940185547 L 29.92300033569336 132.9969940185547 L 27.920000076293945 132.9969940185547 L 24.92300033569336 132.9969940185547 L 24.92300033569336 137.9969940185547 L 24.92300033569336 138.0019989013672 L 24.965246200561523 138.0019989013672 L 27.920000076293945 138.0019989013672 M -148.08099365234375 66.00299835205078 L -148.08099365234375 25.99799919128418 L -148.08200073242188 25.99799919128418 L -153.07699584960938 25.99799919128418 L -153.08200073242188 25.99799919128418 L -153.08200073242188 66.00299835205078 L -153.07699584960938 66.00299835205078 L -148.08200073242188 66.00299835205078 L -148.08099365234375 66.00299835205078 M -153.07699584960938 70.99800109863281 L -153.08200073242188 70.99800109863281 L -158.08200073242188 70.99800109863281 L -158.08200073242188 76.00299835205078 L -153.08200073242188 76.00299835205078 L -153.07699584960938 76.00299835205078 L -153.07699584960938 70.99800109863281 M -15.92199993133545 189.9980010986328 L -15.92199993133545 190.0030059814453 L -15.92199993133545 195.0030059814453 L -10.92199993133545 195.0030059814453 L -10.92199993133545 190.0030059814453 L -10.92199993133545 189.9980010986328 L -12.879591941833496 189.9980010986328 L -15.92199993133545 189.9980010986328 M -198.10906982421875 135.99002075195312 L -198.46676635742188 136.66262817382812 L -200.4568634033203 140.4048614501953 L -196.0448760986328 142.7509002685547 L -194.90029907226562 140.59767150878906 L -193.69781494140625 138.33554077148438 L -198.10906982421875 135.99002075195312 M -159.74603271484375 162.1916961669922 L -157.69676208496094 158.33743286132812 L -162.10797119140625 155.9918212890625 L -163.56436157226562 158.73101806640625 L -164.4553985595703 160.4068603515625 L -160.04412841796875 162.7523651123047 L -159.74603271484375 162.1916961669922 M -122.25996398925781 179.9946746826172 L -120.75553894042969 175.36666870117188 L -125.50758361816406 173.82278442382812 L -126.49272918701172 176.85533142089844 L -127.05245971679688 178.5783233642578 L -122.3013916015625 180.12213134765625 L -122.25996398925781 179.9946746826172 M -6.077000141143799 130.0019989013672 L -6.077000141143799 128.9969940185547 L -10.07800006866455 128.9969940185547 L -10.081999778747559 128.9969940185547 L -10.081999778747559 130.0019989013672 L -10.07800006866455 130.0019989013672 L -6.077000141143799 130.0019989013672 M 14.92300033569336 132.9969940185547 L 14.92300033569336 137.9969940185547 L 14.92300033569336 138.0019989013672 L 19.92300033569336 138.0019989013672 L 19.92300033569336 137.9969940185547 L 19.92300033569336 132.9969940185547 L 14.92300033569336 132.9969940185547 M -51.082000732421875 -15.001999855041504 L -51.082000732421875 -14.001999855041504 L -47.082000732421875 -14.001999855041504 L -47.082000732421875 -15.001999855041504 L -51.082000732421875 -15.001999855041504 M 9.92199993133545 132.9969940185547 L 4.921999931335449 132.9969940185547 L 4.921999931335449 137.9969940185547 L 4.921999931335449 138.0019989013672 L 6.146153450012207 138.0019989013672 L 9.92199993133545 138.0019989013672 L 9.92199993133545 137.9969940185547 L 9.92199993133545 132.9969940185547 M 4.078999996185303 195.0030059814453 L 9.079000473022461 195.0030059814453 L 9.079000473022461 190.0030059814453 L 9.079000473022461 189.9980010986328 L 4.078999996185303 189.9980010986328 L 4.078999996185303 190.0030059814453 L 4.078999996185303 195.0030059814453 M -47.082000732421875 103.00299835205078 L -47.082000732421875 102.00299835205078 L -51.082000732421875 102.00299835205078 L -51.082000732421875 103.00299835205078 L -47.082000732421875 103.00299835205078 M -52.07699966430664 66.00299835205078 L -47.07899856567383 66.00299835205078 L -47.07699966430664 66.00299835205078 L -47.07699966430664 25.99799919128418 L -47.07899856567383 25.99799919128418 L -52.07699966430664 25.99799919128418 L -52.07699966430664 66.00299835205078 M -62.077999114990234 25.99799919128418 L -62.077999114990234 66.00299835205078 L -57.07899856567383 66.00299835205078 L -57.077999114990234 66.00299835205078 L -57.077999114990234 25.99799919128418 L -57.07899856567383 25.99799919128418 L -62.077999114990234 25.99799919128418 M -27.00200080871582 123.00199890136719 L -25.996999740600586 123.00199890136719 L -25.996999740600586 118.99700164794922 L -27.00200080871582 118.99700164794922 L -27.00200080871582 123.00199890136719 M -0.07800000160932541 132.9969940185547 L -5.078000068664551 132.9969940185547 L -5.078000068664551 137.9969940185547 L -5.078000068664551 138.0019989013672 L -0.07800000160932541 138.0019989013672 L -0.07800000160932541 137.9969940185547 L -0.07800000160932541 132.9969940185547 M -67.71261596679688 192.66383361816406 L -62.792701721191406 193.53131103515625 L -62.1705207824707 190.0030059814453 L -61.92424774169922 188.6063995361328 L -66.84432983398438 187.73887634277344 L -67.2435073852539 190.0030059814453 L -67.71261596679688 192.66383361816406 M -67.0780029296875 66.00299835205078 L -67.0780029296875 25.99799919128418 L -67.0790023803711 25.99799919128418 L -72.0780029296875 25.99799919128418 L -72.0780029296875 66.00299835205078 L -67.0790023803711 66.00299835205078 L -67.0780029296875 66.00299835205078 M -8.07699966430664 -15.001999855041504 L -12.07800006866455 -15.001999855041504 L -12.07800006866455 -14.001999855041504 L -8.07699966430664 -14.001999855041504 L -8.07699966430664 -15.001999855041504 M -8.07699966430664 102.00299835205078 L -12.07800006866455 102.00299835205078 L -12.07800006866455 103.00299835205078 L -8.07699966430664 103.00299835205078 L -8.07699966430664 102.00299835205078 M -49.082000732421875 130.0019989013672 L -45.07899856567383 130.0019989013672 L -45.07699966430664 130.0019989013672 L -45.07699966430664 128.9969940185547 L -45.07899856567383 128.9969940185547 L -49.082000732421875 128.9969940185547 L -49.082000732421875 130.0019989013672 M 24.92300033569336 98.99800109863281 L 23.917999267578125 98.99800109863281 L 23.917999267578125 103.00299835205078 L 24.92300033569336 103.00299835205078 L 24.92300033569336 98.99800109863281 M -34.00199890136719 123.00199890136719 L -32.99700164794922 123.00199890136719 L -32.99700164794922 118.99700164794922 L -34.00199890136719 118.99700164794922 L -34.00199890136719 123.00199890136719 M -173.28700256347656 155.71099853515625 L -173.0800018310547 155.82106018066406 L -170.0800018310547 157.41619873046875 L -168.87335205078125 158.0577850341797 L -167.3885040283203 155.26507568359375 L -166.52586364746094 153.64263916015625 L -170.0800018310547 151.7527618408203 L -170.93899536132812 151.29600524902344 L -171.2085418701172 151.80284118652344 L -173.0800018310547 155.32177734375 L -173.28700256347656 155.71099853515625 M 23.082000732421875 197.9980010986328 L 19.07900047302246 197.9980010986328 L 19.07699966430664 197.9980010986328 L 19.07699966430664 199.0030059814453 L 19.07900047302246 199.0030059814453 L 23.082000732421875 199.0030059814453 L 23.082000732421875 197.9980010986328 M -20.077999114990234 132.9969940185547 L -25.07900047302246 132.9969940185547 L -25.07900047302246 137.9969940185547 L -25.07900047302246 138.0019989013672 L -20.077999114990234 138.0019989013672 L -20.077999114990234 137.9969940185547 L -20.077999114990234 132.9969940185547 M -209.28799438476562 135.70899963378906 L -204.87477111816406 138.05569458007812 L -202.52781677246094 133.64053344726562 L -206.9409942626953 131.29400634765625 L -209.28799438476562 135.70899963378906 M -50.92300033569336 189.9980010986328 L -50.96524429321289 189.9980010986328 L -55.92300033569336 189.9980010986328 L -55.92300033569336 190.0030059814453 L -55.92300033569336 195.0030059814453 L -50.92300033569336 195.0030059814453 L -50.92300033569336 190.0030059814453 L -50.92300033569336 189.9980010986328 M -88.08000183105469 101.99800109863281 L -92.08200073242188 101.99800109863281 L -92.08200073242188 103.00299835205078 L -88.08000183105469 103.00299835205078 L -88.0790023803711 103.00299835205078 L -88.0770034790039 103.00299835205078 L -88.0770034790039 101.99800109863281 L -88.0790023803711 101.99800109863281 L -88.08000183105469 101.99800109863281 M -45.92300033569336 189.9980010986328 L -45.92300033569336 190.0030059814453 L -45.92300033569336 195.0030059814453 L -40.92300033569336 195.0030059814453 L -40.92300033569336 190.0030059814453 L -40.92300033569336 189.9980010986328 L -45.92300033569336 189.9980010986328 M -215.3509979248047 125.27400207519531 L -214.48500061035156 125.77400207519531 L -212.48500061035156 122.30999755859375 L -213.3509979248047 121.80899810791016 L -215.3509979248047 125.27400207519531 M -230.5574188232422 148.2698211669922 L -231.35299682617188 147.81100463867188 L -233.35299682617188 151.27499389648438 L -232.55796813964844 151.73402404785156 L -232.48699951171875 151.77499389648438 L -230.48599243164062 148.31100463867188 L -230.5574188232422 148.2698211669922 M -30.922000885009766 195.0030059814453 L -30.922000885009766 190.0030059814453 L -30.922000885009766 189.9980010986328 L -32.14615249633789 189.9980010986328 L -35.922000885009766 189.9980010986328 L -35.922000885009766 190.0030059814453 L -35.922000885009766 195.0030059814453 L -30.922000885009766 195.0030059814453 M 46.64371871948242 136.20660400390625 L 46.32819366455078 137.9969940185547 L 46.13798904418945 139.07627868652344 L 45.77543258666992 141.133544921875 L 50.69900131225586 142.0019989013672 L 50.82396697998047 141.2926483154297 L 51.40456771850586 137.9969940185547 L 51.56700134277344 137.0749969482422 L 46.64371871948242 136.20660400390625 M -233.92300415039062 207.81399536132812 L -229.91799926757812 207.81399536132812 L -229.91799926757812 206.8090057373047 L -233.92300415039062 206.8090057373047 L -233.92300415039062 207.81399536132812 M -253.92300415039062 195.00900268554688 L -253.92300415039062 200.01100158691406 L -248.91799926757812 200.01100158691406 L -248.91799926757812 195.00900268554688 L -253.92300415039062 195.00900268554688 M -0.9210000038146973 189.9980010986328 L -5.921999931335449 189.9980010986328 L -5.921999931335449 190.0030059814453 L -5.921999931335449 195.0030059814453 L -0.9210000038146973 195.0030059814453 L -0.9210000038146973 190.0030059814453 L -0.9210000038146973 189.9980010986328 M -218.91799926757812 195.00900268554688 L -223.92300415039062 195.00900268554688 L -223.92300415039062 200.01100158691406 L -220.1532440185547 200.01100158691406 L -218.91799926757812 200.01100158691406 L -218.91799926757812 197.68736267089844 L -218.91799926757812 195.00900268554688 M -261.489013671875 201.83200073242188 L -262.3559875488281 201.33200073242188 L -263.9230041503906 204.0468292236328 L -264.3559875488281 204.7969970703125 L -263.9230041503906 205.0469970703125 L -263.489990234375 205.2969970703125 L -261.489013671875 201.83200073242188 M -19.92300033569336 199.0030059814453 L -15.92199993133545 199.0030059814453 L -15.918000221252441 199.0030059814453 L -15.918000221252441 197.9980010986328 L -15.92199993133545 197.9980010986328 L -19.92300033569336 197.9980010986328 L -19.92300033569336 199.0030059814453 M -82.79849243164062 190.0030059814453 L -81.84840393066406 185.8887481689453 L -86.7164535522461 184.7649688720703 L -87.84161376953125 189.63731384277344 L -86.25797271728516 190.0030059814453 L -82.97362518310547 190.7613983154297 L -82.79849243164062 190.0030059814453 M 62.99800109863281 135.0019989013672 L 64.00299835205078 135.0019989013672 L 64.00299835205078 130.9969940185547 L 62.99800109863281 130.9969940185547 L 62.99800109863281 135.0019989013672 M -91.59253692626953 183.63934326171875 L -96.46299743652344 182.51499938964844 L -97.0830078125 185.20245361328125 L -97.58699798583984 187.38699340820312 L -92.7174072265625 188.51144409179688 L -92.57698059082031 187.90321350097656 L -91.59253692626953 183.63934326171875 M 64.00299835205078 118.99700164794922 L 62.99800109863281 118.99700164794922 L 62.99800109863281 123.00199890136719 L 64.00299835205078 123.00199890136719 L 64.00299835205078 118.99700164794922 M -25.922000885009766 195.0030059814453 L -20.922000885009766 195.0030059814453 L -20.922000885009766 190.0030059814453 L -20.922000885009766 189.9980010986328 L -25.922000885009766 189.9980010986328 L -25.922000885009766 190.0030059814453 L -25.922000885009766 195.0030059814453 M 204.48599243164062 183.68899536132812 L 204.5574188232422 183.7301788330078 L 205.35299682617188 184.18899536132812 L 207.35299682617188 180.72500610351562 L 206.55796813964844 180.26597595214844 L 206.48699951171875 180.22500610351562 L 204.48599243164062 183.68899536132812 M -112.79620361328125 183.12840270996094 L -111.33441162109375 178.34634399414062 L -116.11399841308594 176.88499450683594 L -117.5733871459961 181.658447265625 L -117.57599639892578 181.66700744628906 L -112.79620361328125 183.12840270996094 M -103.23224639892578 186.0525360107422 L -102.06044006347656 182.21913146972656 L -101.77045440673828 181.27047729492188 L -105.59325408935547 180.10166931152344 L -106.54849243164062 179.8096160888672 L -108.01029205322266 184.5916748046875 L -103.23224639892578 186.0525360107422 M -130.26683044433594 172.2765655517578 L -134.53663635253906 170.8893585205078 L -135.02099609375 170.73199462890625 L -136.5659942626953 175.48699951171875 L -131.81224060058594 177.03167724609375 L -130.7328643798828 173.7105255126953 L -130.26683044433594 172.2765655517578 M 55.99800109863281 123.00199890136719 L 57.00299835205078 123.00199890136719 L 57.00299835205078 118.99700164794922 L 55.99800109863281 118.99700164794922 L 55.99800109863281 123.00199890136719 M 55.99800109863281 135.0019989013672 L 57.00299835205078 135.0019989013672 L 57.00299835205078 130.9969940185547 L 55.99800109863281 130.9969940185547 L 55.99800109863281 135.0019989013672 M -141.7333526611328 172.51654052734375 L -139.699951171875 167.94813537597656 L -144.2638702392578 165.91595458984375 L -146.29815673828125 170.48410034179688 L -141.7333526611328 172.51654052734375 M 238.3560028076172 127.2030029296875 L 237.49000549316406 126.7030029296875 L 235.48899841308594 130.16799926757812 L 236.3560028076172 130.66799926757812 L 238.3560028076172 127.2030029296875 M -150.86944580078125 168.4487762451172 L -148.8355712890625 163.8802947998047 L -153.40199279785156 161.8470001220703 L -155.33445739746094 166.19004821777344 L -155.43499755859375 166.41600036621094 L -154.7473602294922 166.72216796875 L -150.86944580078125 168.4487762451172 M 188.48500061035156 206.2259979248047 L 187.50274658203125 207.92726135253906 L 186.48500061035156 209.69000244140625 L 187.3509979248047 210.19000244140625 L 188.20809936523438 208.70550537109375 L 189.3509979248047 206.7259979248047 L 188.48500061035156 206.2259979248047 M -85.0770034790039 130.0019989013672 L -85.0770034790039 128.9969940185547 L -85.08000183105469 128.9969940185547 L -89.08200073242188 128.9969940185547 L -89.08200073242188 130.0019989013672 L -85.08000183105469 130.0019989013672 L -85.0770034790039 130.0019989013672 M 62.99800109863281 144.9969940185547 L 62.99800109863281 147.05068969726562 L 62.99800109863281 149.0019989013672 L 64.00299835205078 149.0019989013672 L 64.00299835205078 147.52603149414062 L 64.00299835205078 144.9969940185547 L 62.99800109863281 144.9969940185547 M -88.0770034790039 -14.001999855041504 L -88.0790023803711 -14.001999855041504 L -88.08000183105469 -14.001999855041504 L -92.08200073242188 -14.001999855041504 L -92.08200073242188 -12.996999740600586 L -88.08000183105469 -12.996999740600586 L -88.0790023803711 -12.996999740600586 L -88.0770034790039 -12.996999740600586 L -88.0770034790039 -14.001999855041504 M 57.00299835205078 144.9969940185547 L 55.99800109863281 144.9969940185547 L 55.99800109863281 149.0019989013672 L 57.00299835205078 149.0019989013672 L 57.00299835205078 144.9969940185547 M 63.082000732421875 199.0030059814453 L 63.082000732421875 197.9980010986328 L 59.08000183105469 197.9980010986328 L 59.07699966430664 197.9980010986328 L 59.07699966430664 199.0030059814453 L 59.08000183105469 199.0030059814453 L 63.082000732421875 199.0030059814453 M -146.07699584960938 128.9969940185547 L -150.08200073242188 128.9969940185547 L -150.08200073242188 130.0019989013672 L -146.07699584960938 130.0019989013672 L -146.07699584960938 128.9969940185547 M -103.0790023803711 25.99799919128418 L -103.0790023803711 66.00299835205078 L -98.08000183105469 66.00299835205078 L -98.0790023803711 66.00299835205078 L -98.0790023803711 25.99799919128418 L -98.08000183105469 25.99799919128418 L -103.0790023803711 25.99799919128418 M -88.0790023803711 66.00299835205078 L -88.0790023803711 25.99799919128418 L -88.08000183105469 25.99799919128418 L -93.0790023803711 25.99799919128418 L -93.0790023803711 66.00299835205078 L -88.08000183105469 66.00299835205078 L -88.0790023803711 66.00299835205078 M 247.0030059814453 -3.0980000495910645 L 247.0030059814453 -8.098999977111816 L 247.0019989013672 -8.098999977111816 L 242.0019989013672 -8.098999977111816 L 241.9980010986328 -8.098999977111816 L 241.9980010986328 -3.0980000495910645 L 242.0019989013672 -3.0980000495910645 L 247.0019989013672 -3.0980000495910645 L 247.0030059814453 -3.0980000495910645 M 120.0770034790039 199.0030059814453 L 124.08200073242188 199.0030059814453 L 124.08200073242188 197.9980010986328 L 120.0770034790039 197.9980010986328 L 120.0770034790039 199.0030059814453 M -113.08000183105469 25.99799919128418 L -113.08000183105469 66.00299835205078 L -108.08000183105469 66.00299835205078 L -108.08000183105469 25.99799919128418 L -113.08000183105469 25.99799919128418 M 136.72523498535156 103.00299835205078 L 137.85838317871094 103.00299835205078 L 137.85838317871094 98.99800109863281 L 136.72523498535156 98.99800109863281 L 136.72523498535156 103.00299835205078 M -123.08000183105469 25.99799919128418 L -123.08000183105469 66.00299835205078 L -118.08100128173828 66.00299835205078 L -118.08000183105469 66.00299835205078 L -118.08000183105469 25.99799919128418 L -118.08100128173828 25.99799919128418 L -123.08000183105469 25.99799919128418 M 222.8979949951172 -15.003000259399414 L 222.8979949951172 -13.998000144958496 L 226.9029998779297 -13.998000144958496 L 226.9029998779297 -15.003000259399414 L 222.8979949951172 -15.003000259399414 M 150.3161163330078 103.00299835205078 L 151.44993591308594 103.00299835205078 L 151.44993591308594 98.99800109863281 L 150.3161163330078 98.99800109863281 L 150.3161163330078 103.00299835205078 M -128.08099365234375 25.99799919128418 L -133.08099365234375 25.99799919128418 L -133.08099365234375 66.00299835205078 L -128.08099365234375 66.00299835205078 L -128.08099365234375 25.99799919128418 M 128.9680938720703 103.00499725341797 L 128.9680938720703 99 L 128.0019989013672 99 L 127.8728256225586 99 L 127.8728256225586 103.00499725341797 L 128.0019989013672 103.00499725341797 L 128.9680938720703 103.00499725341797 M 116.92636108398438 99 L 115.83134460449219 99 L 115.83134460449219 103.00499725341797 L 116.92636108398438 103.00499725341797 L 116.92636108398438 99 M 107.52603149414062 103.00299835205078 L 108.57847595214844 103.00299835205078 L 108.57847595214844 98.99800109863281 L 107.52603149414062 98.99800109863281 L 107.52603149414062 103.00299835205078 M -143.07699584960938 15.998000144958496 L -143.08099365234375 15.998000144958496 L -148.08099365234375 15.998000144958496 L -148.08200073242188 15.998000144958496 L -148.08200073242188 21.003000259399414 L -148.08099365234375 21.003000259399414 L -143.08099365234375 21.003000259399414 L -143.07699584960938 21.003000259399414 L -143.07699584960938 15.998000144958496 M 95.96041107177734 98.99800109863281 L 94.90833282470703 98.99800109863281 L 94.90833282470703 103.00299835205078 L 95.96041107177734 103.00299835205078 L 95.96041107177734 98.99800109863281 M -143.08099365234375 66.00299835205078 L -143.07699584960938 66.00299835205078 L -138.08099365234375 66.00299835205078 L -138.08099365234375 25.99799919128418 L -143.07699584960938 25.99799919128418 L -143.08099365234375 25.99799919128418 L -143.08099365234375 66.00299835205078 M -143.07699584960938 80.99800109863281 L -143.08099365234375 80.99800109863281 L -148.08099365234375 80.99800109863281 L -148.08200073242188 80.99800109863281 L -148.08200073242188 86.00299835205078 L -148.08099365234375 86.00299835205078 L -143.08099365234375 86.00299835205078 L -143.07699584960938 86.00299835205078 L -143.07699584960938 80.99800109863281 M 87.50775909423828 98.99800109863281 L 86.46077728271484 98.99800109863281 L 86.46077728271484 103.00299835205078 L 87.50775909423828 103.00299835205078 L 87.50775909423828 98.99800109863281 M 73.91400146484375 103.00299835205078 L 74.96039581298828 103.00299835205078 L 74.96039581298828 98.99800109863281 L 73.91400146484375 98.99800109863281 L 73.91400146484375 103.00299835205078 M -153.07699584960938 5.998000144958496 L -153.08200073242188 5.998000144958496 L -158.08200073242188 5.998000144958496 L -158.08200073242188 11.003000259399414 L -153.08200073242188 11.003000259399414 L -153.07699584960938 11.003000259399414 L -153.07699584960938 5.998000144958496 M 67.27548217773438 103.00499725341797 L 67.27548217773438 99 L 66.24781036376953 99 L 66.24781036376953 103.00499725341797 L 67.27548217773438 103.00499725341797 M -153.08200073242188 15.998000144958496 L -158.08200073242188 15.998000144958496 L -158.08200073242188 21.003000259399414 L -153.08200073242188 21.003000259399414 L -153.07699584960938 21.003000259399414 L -153.07699584960938 15.998000144958496 L -153.08200073242188 15.998000144958496 M 53.9332389831543 99 L 52.90525436401367 99 L 52.90525436401367 103.00499725341797 L 53.9332389831543 103.00499725341797 L 53.9332389831543 99 M 45.07689666748047 103.00299835205078 L 46.09360885620117 103.00299835205078 L 46.09360885620117 98.99800109863281 L 45.07689666748047 98.99800109863281 L 45.07689666748047 103.00299835205078 M -153.07699584960938 80.99800109863281 L -153.08200073242188 80.99800109863281 L -158.08200073242188 80.99800109863281 L -158.08200073242188 86.00299835205078 L -153.08200073242188 86.00299835205078 L -153.07699584960938 86.00299835205078 L -153.07699584960938 80.99800109863281 M 33.90812683105469 98.99800109863281 L 32.89109420776367 98.99800109863281 L 32.89109420776367 103.00299835205078 L 33.90812683105469 103.00299835205078 L 33.90812683105469 98.99800109863281 M 158.85919189453125 98.99800109863281 L 157.72592163085938 98.99800109863281 L 157.72592163085938 103.00299835205078 L 158.85919189453125 103.00299835205078 L 158.85919189453125 98.99800109863281 M 172.44989013671875 98.99800109863281 L 171.31663513183594 98.99800109863281 L 171.31663513183594 103.00299835205078 L 172.44989013671875 103.00299835205078 L 172.44989013671875 98.99800109863281 M -149.07699584960938 101.99800109863281 L -153.07699584960938 101.99800109863281 L -153.08200073242188 101.99800109863281 L -153.08200073242188 103.00299835205078 L -153.07699584960938 103.00299835205078 L -149.07699584960938 103.00299835205078 L -149.07699584960938 101.99800109863281 M 178.72512817382812 98.99800109863281 L 178.72512817382812 103.00299835205078 L 179.85801696777344 103.00299835205078 L 179.85801696777344 98.99800109863281 L 178.72512817382812 98.99800109863281 M -83.0790023803711 25.99799919128418 L -83.0790023803711 66.00299835205078 L -78.08000183105469 66.00299835205078 L -78.0780029296875 66.00299835205078 L -78.0780029296875 25.99799919128418 L -78.08000183105469 25.99799919128418 L -83.0790023803711 25.99799919128418 z" fill="none" stroke="rgb(255,0,0)" stroke-width="0.001mm" />
</svg>