<?xml version="1.0" standalone="no"?>
<!DOCTYPE svg PUBLIC "-//W3C//DTD SVG 1.1//EN"
  "http://www.w3.org/Graphics/SVG/1.1/DTD/svg11.dtd">
<svg width="79mm" height="59mm" viewBox="-40 -55 79 59" xmlns="http://www.w3.org/2000/svg" version="1.1">
	<title>svgOutput</title>
	<desc>made with tinkercad</desc>
<path d="M 38 3 L 35.00299835205078 3 L 35 3 L -36 3 L -36.00299835205078 3 L -39 3 L -39 -54 L -36.00299835205078 -54 L -36 -54 L 35 -54 L 35.00299835205078 -54 L 38 -54 L 38 3 M -36.00299835205078 -10.196999549865723 L -36 -10.196999549865723 L -32.99800109863281 -10.196999549865723 L -32.99800109863281 -20.402000427246094 L -36 -20.402000427246094 L -36.00299835205078 -20.402000427246094 L -36.00299835205078 -10.196999549865723 M 18.99799919128418 -3.003000020980835 L 18.99799919128418 0.003000000026077143 L 32.00199890136719 0.003000000026077143 L 32.00199890136719 -3.003000020980835 L 31.99799919128418 -3.003000020980835 L 18.99799919128418 -3.003000020980835 M 31.99799919128418 -10.196999549865723 L 35 -10.196999549865723 L 35.00299835205078 -10.196999549865723 L 35.00299835205078 -20.402000427246094 L 35 -20.402000427246094 L 31.99799919128418 -20.402000427246094 L 31.99799919128418 -10.196999549865723 M -33.00299835205078 -3.003000020980835 L -33.00299835205078 0.003000000026077143 L -19.996999740600586 0.003000000026077143 L -19.996999740600586 -3.003000020980835 L -32.99800109863281 -3.003000020980835 L -33.00299835205078 -3.003000020980835 M -7.002999782562256 -51.00299835205078 L -7.002999782562256 -47.99800109863281 L 6.001999855041504 -47.99800109863281 L 6.001999855041504 -51.00299835205078 L -7.002999782562256 -51.00299835205078 M -19.996999740600586 -47.99800109863281 L -19.996999740600586 -51.00299835205078 L -33.00299835205078 -51.00299835205078 L -33.00299835205078 -47.99800109863281 L -32.99800109863281 -47.99800109863281 L -19.996999740600586 -47.99800109863281 M 18.99799919128418 -51.00299835205078 L 18.99799919128418 -47.99800109863281 L 31.99799919128418 -47.99800109863281 L 32.00199890136719 -47.99800109863281 L 32.00199890136719 -51.00299835205078 L 18.99799919128418 -51.00299835205078 M -36 -30.597999572753906 L -32.99800109863281 -30.597999572753906 L -32.99800109863281 -40.803001403808594 L -36 -40.803001403808594 L -36.00299835205078 -40.803001403808594 L -36.00299835205078 -30.597999572753906 L -36 -30.597999572753906 M 31.99799919128418 -30.597999572753906 L 35 -30.597999572753906 L 35.00299835205078 -30.597999572753906 L 35.00299835205078 -40.803001403808594 L 35 -40.803001403808594 L 31.99799919128418 -40.803001403808594 L 31.99799919128418 -30.597999572753906 M 6.001999855041504 0.003000000026077143 L 6.001999855041504 -3.003000020980835 L -7.002999782562256 -3.003000020980835 L -7.002999782562256 0.003000000026077143 L 6.001999855041504 0.003000000026077143 z" fill="none" stroke="rgb(255,0,0)" stroke-width="0.001mm" />
</svg>