<?xml version="1.0" standalone="no"?>
<!DOCTYPE svg PUBLIC "-//W3C//DTD SVG 1.1//EN"
  "http://www.w3.org/Graphics/SVG/1.1/DTD/svg11.dtd">
<svg width="18mm" height="53mm" viewBox="-71.5 -52 18 53" xmlns="http://www.w3.org/2000/svg" version="1.1">
	<title>svgOutput</title>
	<desc>made with tinkercad</desc>
<path d="M -57.50299835205078 -51 L -57.50299835205078 -40.797000885009766 L -54.5 -40.797000885009766 L -54.5 -30.601999282836914 L -57.50299835205078 -30.601999282836914 L -57.50299835205078 -20.398000717163086 L -54.5 -20.398000717163086 L -54.5 -10.20199966430664 L -57.50299835205078 -10.20199966430664 L -57.50299835205078 1.1102230246251565e-16 L -59.49800109863281 1.1102230246251565e-16 L -65.50299835205078 1.1102230246251565e-16 L -67.49800109863281 1.1102230246251565e-16 L -67.49800109863281 -10.20199966430664 L -70.5 -10.20199966430664 L -70.5 -20.398000717163086 L -67.49800109863281 -20.398000717163086 L -67.49800109863281 -30.601999282836914 L -70.5 -30.601999282836914 L -70.5 -40.797000885009766 L -67.49800109863281 -40.797000885009766 L -67.49800109863281 -51 L -65.50299835205078 -51 L -59.49800109863281 -51 L -57.50299835205078 -51 M -65.50299835205078 -37.00299835205078 L -65.50299835205078 -11.996999740600586 L -59.49800109863281 -11.996999740600586 L -59.49800109863281 -37.00299835205078 L -65.50299835205078 -37.00299835205078 z" fill="none" stroke="rgb(255,0,0)" stroke-width="0.001mm" />
</svg>